<ttFont>
    <TTGlyph name=".notdef" xMin="20" yMin="0" xMax="494" yMax="698">
      <contour>
        <pt x="20" y="698" on="1"/>
        <pt x="494" y="698" on="1"/>
        <pt x="494" y="0" on="1"/>
        <pt x="20" y="0" on="1"/>
      </contour>
      <contour>
        <pt x="227" y="349" on="1"/>
        <pt x="70" y="602" on="1"/>
        <pt x="70" y="96" on="1"/>
      </contour>
      <contour>
        <pt x="100" y="648" on="1"/>
        <pt x="257" y="397" on="1"/>
        <pt x="413" y="648" on="1"/>
      </contour>
      <contour>
        <pt x="257" y="302" on="1"/>
        <pt x="100" y="50" on="1"/>
        <pt x="413" y="50" on="1"/>
      </contour>
      <contour>
        <pt x="286" y="349" on="1"/>
        <pt x="444" y="96" on="1"/>
        <pt x="444" y="602" on="1"/>
      </contour>
    </TTGlyph>
    <TTGlyph name="A" xMin="5" yMin="0" xMax="692" yMax="698">
      <contour>
        <pt x="593" y="0" on="1"/>
        <pt x="518" y="179" on="1"/>
        <pt x="179" y="179" on="1"/>
        <pt x="104" y="0" on="1"/>
        <pt x="5" y="0" on="1"/>
        <pt x="301" y="698" on="1"/>
        <pt x="396" y="698" on="1"/>
        <pt x="692" y="0" on="1"/>
      </contour>
      <contour>
        <pt x="215" y="267" on="1"/>
        <pt x="215" y="262" on="1"/>
        <pt x="482" y="262" on="1"/>
        <pt x="482" y="267" on="1"/>
        <pt x="350" y="586" on="1"/>
        <pt x="348" y="586" on="1"/>
      </contour>
    </TTGlyph>
    <TTGlyph name="AE" xMin="-33" yMin="0" xMax="983" yMax="698">
      <contour>
        <pt x="983" y="613" on="1"/>
        <pt x="590" y="613" on="1"/>
        <pt x="590" y="392" on="1"/>
        <pt x="947" y="392" on="1"/>
        <pt x="947" y="307" on="1"/>
        <pt x="590" y="307" on="1"/>
        <pt x="590" y="85" on="1"/>
        <pt x="983" y="85" on="1"/>
        <pt x="983" y="0" on="1"/>
        <pt x="499" y="0" on="1"/>
        <pt x="499" y="179" on="1"/>
        <pt x="191" y="179" on="1"/>
        <pt x="75" y="0" on="1"/>
        <pt x="-33" y="0" on="1"/>
        <pt x="427" y="698" on="1"/>
        <pt x="983" y="698" on="1"/>
      </contour>
      <contour>
        <pt x="499" y="262" on="1"/>
        <pt x="499" y="613" on="1"/>
        <pt x="474" y="613" on="1"/>
        <pt x="247" y="265" on="1"/>
        <pt x="247" y="262" on="1"/>
      </contour>
    </TTGlyph>
    <TTGlyph name="AEacute" xMin="-33" yMin="0" xMax="983" yMax="883">
      <contour>
        <pt x="549" y="883" on="1"/>
        <pt x="648" y="883" on="1"/>
        <pt x="535" y="750" on="1"/>
        <pt x="473" y="750" on="1"/>
      </contour>
      <contour>
        <pt x="983" y="613" on="1"/>
        <pt x="590" y="613" on="1"/>
        <pt x="590" y="392" on="1"/>
        <pt x="947" y="392" on="1"/>
        <pt x="947" y="307" on="1"/>
        <pt x="590" y="307" on="1"/>
        <pt x="590" y="85" on="1"/>
        <pt x="983" y="85" on="1"/>
        <pt x="983" y="0" on="1"/>
        <pt x="499" y="0" on="1"/>
        <pt x="499" y="179" on="1"/>
        <pt x="191" y="179" on="1"/>
        <pt x="75" y="0" on="1"/>
        <pt x="-33" y="0" on="1"/>
        <pt x="427" y="698" on="1"/>
        <pt x="983" y="698" on="1"/>
      </contour>
      <contour>
        <pt x="499" y="262" on="1"/>
        <pt x="499" y="613" on="1"/>
        <pt x="474" y="613" on="1"/>
        <pt x="247" y="265" on="1"/>
        <pt x="247" y="262" on="1"/>
      </contour>
    </TTGlyph>
    <TTGlyph name="Aacute" xMin="5" yMin="0" xMax="692" yMax="883">
      <contour>
        <pt x="375" y="883" on="1"/>
        <pt x="474" y="883" on="1"/>
        <pt x="361" y="750" on="1"/>
        <pt x="299" y="750" on="1"/>
      </contour>
      <contour>
        <pt x="593" y="0" on="1"/>
        <pt x="518" y="179" on="1"/>
        <pt x="179" y="179" on="1"/>
        <pt x="104" y="0" on="1"/>
        <pt x="5" y="0" on="1"/>
        <pt x="301" y="698" on="1"/>
        <pt x="396" y="698" on="1"/>
        <pt x="692" y="0" on="1"/>
      </contour>
      <contour>
        <pt x="215" y="267" on="1"/>
        <pt x="215" y="262" on="1"/>
        <pt x="482" y="262" on="1"/>
        <pt x="482" y="267" on="1"/>
        <pt x="350" y="586" on="1"/>
        <pt x="348" y="586" on="1"/>
      </contour>
    </TTGlyph>
    <TTGlyph name="Abreve" xMin="5" yMin="0" xMax="692" yMax="864">
      <contour>
        <pt x="432" y="864" on="1"/>
        <pt x="496" y="864" on="1"/>
        <pt x="486" y="811" on="0"/>
        <pt x="407" y="748" on="0"/>
        <pt x="291" y="748" on="0"/>
        <pt x="212" y="811" on="0"/>
        <pt x="202" y="864" on="1"/>
        <pt x="266" y="864" on="1"/>
        <pt x="286" y="806" on="0"/>
        <pt x="412" y="806" on="0"/>
      </contour>
      <contour>
        <pt x="593" y="0" on="1"/>
        <pt x="518" y="179" on="1"/>
        <pt x="179" y="179" on="1"/>
        <pt x="104" y="0" on="1"/>
        <pt x="5" y="0" on="1"/>
        <pt x="301" y="698" on="1"/>
        <pt x="396" y="698" on="1"/>
        <pt x="692" y="0" on="1"/>
      </contour>
      <contour>
        <pt x="215" y="267" on="1"/>
        <pt x="215" y="262" on="1"/>
        <pt x="482" y="262" on="1"/>
        <pt x="482" y="267" on="1"/>
        <pt x="350" y="586" on="1"/>
        <pt x="348" y="586" on="1"/>
      </contour>
    </TTGlyph>
    <TTGlyph name="Abreveacute" xMin="5" yMin="0" xMax="692" yMax="985">
      <contour>
        <pt x="432" y="851" on="1"/>
        <pt x="496" y="851" on="1"/>
        <pt x="486" y="798" on="0"/>
        <pt x="407" y="735" on="0"/>
        <pt x="291" y="735" on="0"/>
        <pt x="212" y="798" on="0"/>
        <pt x="202" y="851" on="1"/>
        <pt x="266" y="851" on="1"/>
        <pt x="286" y="793" on="0"/>
        <pt x="412" y="793" on="0"/>
      </contour>
      <contour>
        <pt x="381" y="985" on="1"/>
        <pt x="480" y="985" on="1"/>
        <pt x="367" y="852" on="1"/>
        <pt x="305" y="852" on="1"/>
      </contour>
      <contour>
        <pt x="593" y="0" on="1"/>
        <pt x="518" y="179" on="1"/>
        <pt x="179" y="179" on="1"/>
        <pt x="104" y="0" on="1"/>
        <pt x="5" y="0" on="1"/>
        <pt x="301" y="698" on="1"/>
        <pt x="396" y="698" on="1"/>
        <pt x="692" y="0" on="1"/>
      </contour>
      <contour>
        <pt x="215" y="267" on="1"/>
        <pt x="215" y="262" on="1"/>
        <pt x="482" y="262" on="1"/>
        <pt x="482" y="267" on="1"/>
        <pt x="350" y="586" on="1"/>
        <pt x="348" y="586" on="1"/>
      </contour>
    </TTGlyph>
    <TTGlyph name="Abrevedotbelow" xMin="4" yMin="-156" xMax="691" yMax="859">
      <contour>
        <pt x="431" y="859" on="1"/>
        <pt x="495" y="859" on="1"/>
        <pt x="485" y="806" on="0"/>
        <pt x="406" y="743" on="0"/>
        <pt x="290" y="743" on="0"/>
        <pt x="211" y="806" on="0"/>
        <pt x="201" y="859" on="1"/>
        <pt x="265" y="859" on="1"/>
        <pt x="285" y="801" on="0"/>
        <pt x="411" y="801" on="0"/>
      </contour>
      <contour>
        <pt x="300" y="-156" on="1"/>
        <pt x="300" y="-60" on="1"/>
        <pt x="396" y="-60" on="1"/>
        <pt x="396" y="-156" on="1"/>
      </contour>
      <contour>
        <pt x="592" y="0" on="1"/>
        <pt x="517" y="179" on="1"/>
        <pt x="178" y="179" on="1"/>
        <pt x="103" y="0" on="1"/>
        <pt x="4" y="0" on="1"/>
        <pt x="300" y="698" on="1"/>
        <pt x="395" y="698" on="1"/>
        <pt x="691" y="0" on="1"/>
      </contour>
      <contour>
        <pt x="214" y="267" on="1"/>
        <pt x="214" y="262" on="1"/>
        <pt x="481" y="262" on="1"/>
        <pt x="481" y="267" on="1"/>
        <pt x="349" y="586" on="1"/>
        <pt x="347" y="586" on="1"/>
      </contour>
    </TTGlyph>
    <TTGlyph name="Abrevegrave" xMin="5" yMin="0" xMax="692" yMax="985">
      <contour>
        <pt x="432" y="851" on="1"/>
        <pt x="496" y="851" on="1"/>
        <pt x="486" y="798" on="0"/>
        <pt x="407" y="735" on="0"/>
        <pt x="291" y="735" on="0"/>
        <pt x="212" y="798" on="0"/>
        <pt x="202" y="851" on="1"/>
        <pt x="266" y="851" on="1"/>
        <pt x="286" y="793" on="0"/>
        <pt x="412" y="793" on="0"/>
      </contour>
      <contour>
        <pt x="218" y="985" on="1"/>
        <pt x="317" y="985" on="1"/>
        <pt x="393" y="852" on="1"/>
        <pt x="331" y="852" on="1"/>
      </contour>
      <contour>
        <pt x="593" y="0" on="1"/>
        <pt x="518" y="179" on="1"/>
        <pt x="179" y="179" on="1"/>
        <pt x="104" y="0" on="1"/>
        <pt x="5" y="0" on="1"/>
        <pt x="301" y="698" on="1"/>
        <pt x="396" y="698" on="1"/>
        <pt x="692" y="0" on="1"/>
      </contour>
      <contour>
        <pt x="215" y="267" on="1"/>
        <pt x="215" y="262" on="1"/>
        <pt x="482" y="262" on="1"/>
        <pt x="482" y="267" on="1"/>
        <pt x="350" y="586" on="1"/>
        <pt x="348" y="586" on="1"/>
      </contour>
    </TTGlyph>
    <TTGlyph name="Abrevehookabove" xMin="5" yMin="0" xMax="692" yMax="1015">
      <contour>
        <pt x="330" y="1015" on="1"/>
        <pt x="445" y="1015" on="0"/>
        <pt x="445" y="936" on="1"/>
        <pt x="445" y="879" on="0"/>
        <pt x="370" y="864" on="1"/>
        <pt x="370" y="846" on="1"/>
        <pt x="316" y="846" on="1"/>
        <pt x="316" y="891" on="1"/>
        <pt x="337" y="892" on="0"/>
        <pt x="383" y="911" on="0"/>
        <pt x="383" y="931" on="1"/>
        <pt x="383" y="967" on="0"/>
        <pt x="315" y="967" on="1"/>
        <pt x="298" y="967" on="0"/>
        <pt x="289" y="966" on="1"/>
        <pt x="289" y="1012" on="1"/>
        <pt x="306" y="1015" on="0"/>
      </contour>
      <contour>
        <pt x="432" y="851" on="1"/>
        <pt x="496" y="851" on="1"/>
        <pt x="486" y="798" on="0"/>
        <pt x="407" y="735" on="0"/>
        <pt x="291" y="735" on="0"/>
        <pt x="212" y="798" on="0"/>
        <pt x="202" y="851" on="1"/>
        <pt x="266" y="851" on="1"/>
        <pt x="286" y="793" on="0"/>
        <pt x="412" y="793" on="0"/>
      </contour>
      <contour>
        <pt x="593" y="0" on="1"/>
        <pt x="518" y="179" on="1"/>
        <pt x="179" y="179" on="1"/>
        <pt x="104" y="0" on="1"/>
        <pt x="5" y="0" on="1"/>
        <pt x="301" y="698" on="1"/>
        <pt x="396" y="698" on="1"/>
        <pt x="692" y="0" on="1"/>
      </contour>
      <contour>
        <pt x="215" y="267" on="1"/>
        <pt x="215" y="262" on="1"/>
        <pt x="482" y="262" on="1"/>
        <pt x="482" y="267" on="1"/>
        <pt x="350" y="586" on="1"/>
        <pt x="348" y="586" on="1"/>
      </contour>
    </TTGlyph>
    <TTGlyph name="Abrevetilde" xMin="5" yMin="0" xMax="692" yMax="989">
      <contour>
        <pt x="432" y="849" on="1"/>
        <pt x="496" y="849" on="1"/>
        <pt x="486" y="796" on="0"/>
        <pt x="407" y="733" on="0"/>
        <pt x="291" y="733" on="0"/>
        <pt x="212" y="796" on="0"/>
        <pt x="202" y="849" on="1"/>
        <pt x="266" y="849" on="1"/>
        <pt x="286" y="791" on="0"/>
        <pt x="412" y="791" on="0"/>
      </contour>
      <contour>
        <pt x="469" y="983" on="1"/>
        <pt x="514" y="983" on="1"/>
        <pt x="510" y="929" on="0"/>
        <pt x="463" y="873" on="0"/>
        <pt x="398" y="873" on="0"/>
        <pt x="299" y="921" on="0"/>
        <pt x="274" y="921" on="1"/>
        <pt x="241" y="921" on="0"/>
        <pt x="231" y="878" on="1"/>
        <pt x="187" y="878" on="1"/>
        <pt x="191" y="932" on="0"/>
        <pt x="238" y="989" on="0"/>
        <pt x="302" y="989" on="0"/>
        <pt x="400" y="942" on="0"/>
        <pt x="427" y="942" on="1"/>
        <pt x="461" y="942" on="0"/>
      </contour>
      <contour>
        <pt x="593" y="0" on="1"/>
        <pt x="518" y="179" on="1"/>
        <pt x="179" y="179" on="1"/>
        <pt x="104" y="0" on="1"/>
        <pt x="5" y="0" on="1"/>
        <pt x="301" y="698" on="1"/>
        <pt x="396" y="698" on="1"/>
        <pt x="692" y="0" on="1"/>
      </contour>
      <contour>
        <pt x="215" y="267" on="1"/>
        <pt x="215" y="262" on="1"/>
        <pt x="482" y="262" on="1"/>
        <pt x="482" y="267" on="1"/>
        <pt x="350" y="586" on="1"/>
        <pt x="348" y="586" on="1"/>
      </contour>
    </TTGlyph>
    <TTGlyph name="Acircumflex" xMin="5" yMin="0" xMax="692" yMax="873">
      <contour>
        <pt x="390" y="873" on="1"/>
        <pt x="503" y="750" on="1"/>
        <pt x="424" y="750" on="1"/>
        <pt x="349" y="823" on="1"/>
        <pt x="274" y="750" on="1"/>
        <pt x="195" y="750" on="1"/>
        <pt x="308" y="873" on="1"/>
      </contour>
      <contour>
        <pt x="593" y="0" on="1"/>
        <pt x="518" y="179" on="1"/>
        <pt x="179" y="179" on="1"/>
        <pt x="104" y="0" on="1"/>
        <pt x="5" y="0" on="1"/>
        <pt x="301" y="698" on="1"/>
        <pt x="396" y="698" on="1"/>
        <pt x="692" y="0" on="1"/>
      </contour>
      <contour>
        <pt x="215" y="267" on="1"/>
        <pt x="215" y="262" on="1"/>
        <pt x="482" y="262" on="1"/>
        <pt x="482" y="267" on="1"/>
        <pt x="350" y="586" on="1"/>
        <pt x="348" y="586" on="1"/>
      </contour>
    </TTGlyph>
    <TTGlyph name="Acircumflexacute" xMin="5" yMin="0" xMax="692" yMax="956">
      <contour>
        <pt x="390" y="857" on="1"/>
        <pt x="503" y="734" on="1"/>
        <pt x="424" y="734" on="1"/>
        <pt x="349" y="807" on="1"/>
        <pt x="274" y="734" on="1"/>
        <pt x="195" y="734" on="1"/>
        <pt x="308" y="857" on="1"/>
      </contour>
      <contour>
        <pt x="528" y="956" on="1"/>
        <pt x="627" y="956" on="1"/>
        <pt x="514" y="823" on="1"/>
        <pt x="452" y="823" on="1"/>
      </contour>
      <contour>
        <pt x="593" y="0" on="1"/>
        <pt x="518" y="179" on="1"/>
        <pt x="179" y="179" on="1"/>
        <pt x="104" y="0" on="1"/>
        <pt x="5" y="0" on="1"/>
        <pt x="301" y="698" on="1"/>
        <pt x="396" y="698" on="1"/>
        <pt x="692" y="0" on="1"/>
      </contour>
      <contour>
        <pt x="215" y="267" on="1"/>
        <pt x="215" y="262" on="1"/>
        <pt x="482" y="262" on="1"/>
        <pt x="482" y="267" on="1"/>
        <pt x="350" y="586" on="1"/>
        <pt x="348" y="586" on="1"/>
      </contour>
    </TTGlyph>
    <TTGlyph name="Acircumflexdotbelow" xMin="4" yMin="-156" xMax="691" yMax="871">
      <contour>
        <pt x="389" y="871" on="1"/>
        <pt x="502" y="748" on="1"/>
        <pt x="423" y="748" on="1"/>
        <pt x="348" y="821" on="1"/>
        <pt x="273" y="748" on="1"/>
        <pt x="194" y="748" on="1"/>
        <pt x="307" y="871" on="1"/>
      </contour>
      <contour>
        <pt x="300" y="-156" on="1"/>
        <pt x="300" y="-60" on="1"/>
        <pt x="396" y="-60" on="1"/>
        <pt x="396" y="-156" on="1"/>
      </contour>
      <contour>
        <pt x="592" y="0" on="1"/>
        <pt x="517" y="179" on="1"/>
        <pt x="178" y="179" on="1"/>
        <pt x="103" y="0" on="1"/>
        <pt x="4" y="0" on="1"/>
        <pt x="300" y="698" on="1"/>
        <pt x="395" y="698" on="1"/>
        <pt x="691" y="0" on="1"/>
      </contour>
      <contour>
        <pt x="214" y="267" on="1"/>
        <pt x="214" y="262" on="1"/>
        <pt x="481" y="262" on="1"/>
        <pt x="481" y="267" on="1"/>
        <pt x="349" y="586" on="1"/>
        <pt x="347" y="586" on="1"/>
      </contour>
    </TTGlyph>
    <TTGlyph name="Acircumflexgrave" xMin="5" yMin="0" xMax="692" yMax="956">
      <contour>
        <pt x="390" y="857" on="1"/>
        <pt x="503" y="734" on="1"/>
        <pt x="424" y="734" on="1"/>
        <pt x="349" y="807" on="1"/>
        <pt x="274" y="734" on="1"/>
        <pt x="195" y="734" on="1"/>
        <pt x="308" y="857" on="1"/>
      </contour>
      <contour>
        <pt x="71" y="956" on="1"/>
        <pt x="170" y="956" on="1"/>
        <pt x="246" y="823" on="1"/>
        <pt x="184" y="823" on="1"/>
      </contour>
      <contour>
        <pt x="593" y="0" on="1"/>
        <pt x="518" y="179" on="1"/>
        <pt x="179" y="179" on="1"/>
        <pt x="104" y="0" on="1"/>
        <pt x="5" y="0" on="1"/>
        <pt x="301" y="698" on="1"/>
        <pt x="396" y="698" on="1"/>
        <pt x="692" y="0" on="1"/>
      </contour>
      <contour>
        <pt x="215" y="267" on="1"/>
        <pt x="215" y="262" on="1"/>
        <pt x="482" y="262" on="1"/>
        <pt x="482" y="267" on="1"/>
        <pt x="350" y="586" on="1"/>
        <pt x="348" y="586" on="1"/>
      </contour>
    </TTGlyph>
    <TTGlyph name="Acircumflexhookabove" xMin="5" yMin="0" xMax="692" yMax="958">
      <contour>
        <pt x="390" y="857" on="1"/>
        <pt x="503" y="734" on="1"/>
        <pt x="424" y="734" on="1"/>
        <pt x="349" y="807" on="1"/>
        <pt x="274" y="734" on="1"/>
        <pt x="195" y="734" on="1"/>
        <pt x="308" y="857" on="1"/>
      </contour>
      <contour>
        <pt x="504" y="958" on="1"/>
        <pt x="619" y="958" on="0"/>
        <pt x="619" y="879" on="1"/>
        <pt x="619" y="822" on="0"/>
        <pt x="544" y="807" on="1"/>
        <pt x="544" y="789" on="1"/>
        <pt x="490" y="789" on="1"/>
        <pt x="490" y="834" on="1"/>
        <pt x="511" y="835" on="0"/>
        <pt x="557" y="854" on="0"/>
        <pt x="557" y="874" on="1"/>
        <pt x="557" y="910" on="0"/>
        <pt x="489" y="910" on="1"/>
        <pt x="472" y="910" on="0"/>
        <pt x="463" y="909" on="1"/>
        <pt x="463" y="955" on="1"/>
        <pt x="480" y="958" on="0"/>
      </contour>
      <contour>
        <pt x="593" y="0" on="1"/>
        <pt x="518" y="179" on="1"/>
        <pt x="179" y="179" on="1"/>
        <pt x="104" y="0" on="1"/>
        <pt x="5" y="0" on="1"/>
        <pt x="301" y="698" on="1"/>
        <pt x="396" y="698" on="1"/>
        <pt x="692" y="0" on="1"/>
      </contour>
      <contour>
        <pt x="215" y="267" on="1"/>
        <pt x="215" y="262" on="1"/>
        <pt x="482" y="262" on="1"/>
        <pt x="482" y="267" on="1"/>
        <pt x="350" y="586" on="1"/>
        <pt x="348" y="586" on="1"/>
      </contour>
    </TTGlyph>
    <TTGlyph name="Acircumflextilde" xMin="5" yMin="0" xMax="692" yMax="989">
      <contour>
        <pt x="390" y="852" on="1"/>
        <pt x="503" y="729" on="1"/>
        <pt x="424" y="729" on="1"/>
        <pt x="349" y="802" on="1"/>
        <pt x="274" y="729" on="1"/>
        <pt x="195" y="729" on="1"/>
        <pt x="308" y="852" on="1"/>
      </contour>
      <contour>
        <pt x="469" y="983" on="1"/>
        <pt x="514" y="983" on="1"/>
        <pt x="510" y="929" on="0"/>
        <pt x="463" y="873" on="0"/>
        <pt x="398" y="873" on="0"/>
        <pt x="299" y="921" on="0"/>
        <pt x="274" y="921" on="1"/>
        <pt x="241" y="921" on="0"/>
        <pt x="231" y="878" on="1"/>
        <pt x="187" y="878" on="1"/>
        <pt x="191" y="932" on="0"/>
        <pt x="238" y="989" on="0"/>
        <pt x="302" y="989" on="0"/>
        <pt x="400" y="942" on="0"/>
        <pt x="427" y="942" on="1"/>
        <pt x="461" y="942" on="0"/>
      </contour>
      <contour>
        <pt x="593" y="0" on="1"/>
        <pt x="518" y="179" on="1"/>
        <pt x="179" y="179" on="1"/>
        <pt x="104" y="0" on="1"/>
        <pt x="5" y="0" on="1"/>
        <pt x="301" y="698" on="1"/>
        <pt x="396" y="698" on="1"/>
        <pt x="692" y="0" on="1"/>
      </contour>
      <contour>
        <pt x="215" y="267" on="1"/>
        <pt x="215" y="262" on="1"/>
        <pt x="482" y="262" on="1"/>
        <pt x="482" y="267" on="1"/>
        <pt x="350" y="586" on="1"/>
        <pt x="348" y="586" on="1"/>
      </contour>
    </TTGlyph>
    <TTGlyph name="Adieresis" xMin="5" yMin="0" xMax="692" yMax="846">
      <contour>
        <pt x="593" y="0" on="1"/>
        <pt x="518" y="179" on="1"/>
        <pt x="179" y="179" on="1"/>
        <pt x="104" y="0" on="1"/>
        <pt x="5" y="0" on="1"/>
        <pt x="301" y="698" on="1"/>
        <pt x="396" y="698" on="1"/>
        <pt x="692" y="0" on="1"/>
      </contour>
      <contour>
        <pt x="215" y="267" on="1"/>
        <pt x="215" y="262" on="1"/>
        <pt x="482" y="262" on="1"/>
        <pt x="482" y="267" on="1"/>
        <pt x="350" y="586" on="1"/>
        <pt x="348" y="586" on="1"/>
      </contour>
      <contour>
        <pt x="217" y="750" on="1"/>
        <pt x="217" y="846" on="1"/>
        <pt x="313" y="846" on="1"/>
        <pt x="313" y="750" on="1"/>
      </contour>
      <contour>
        <pt x="385" y="750" on="1"/>
        <pt x="385" y="846" on="1"/>
        <pt x="481" y="846" on="1"/>
        <pt x="481" y="750" on="1"/>
      </contour>
    </TTGlyph>
    <TTGlyph name="Adotbelow" xMin="4" yMin="-156" xMax="691" yMax="698">
      <contour>
        <pt x="300" y="-156" on="1"/>
        <pt x="300" y="-60" on="1"/>
        <pt x="396" y="-60" on="1"/>
        <pt x="396" y="-156" on="1"/>
      </contour>
      <contour>
        <pt x="592" y="0" on="1"/>
        <pt x="517" y="179" on="1"/>
        <pt x="178" y="179" on="1"/>
        <pt x="103" y="0" on="1"/>
        <pt x="4" y="0" on="1"/>
        <pt x="300" y="698" on="1"/>
        <pt x="395" y="698" on="1"/>
        <pt x="691" y="0" on="1"/>
      </contour>
      <contour>
        <pt x="214" y="267" on="1"/>
        <pt x="214" y="262" on="1"/>
        <pt x="481" y="262" on="1"/>
        <pt x="481" y="267" on="1"/>
        <pt x="349" y="586" on="1"/>
        <pt x="347" y="586" on="1"/>
      </contour>
    </TTGlyph>
    <TTGlyph name="Agrave" xMin="5" yMin="0" xMax="692" yMax="883">
      <contour>
        <pt x="223" y="883" on="1"/>
        <pt x="322" y="883" on="1"/>
        <pt x="398" y="750" on="1"/>
        <pt x="336" y="750" on="1"/>
      </contour>
      <contour>
        <pt x="593" y="0" on="1"/>
        <pt x="518" y="179" on="1"/>
        <pt x="179" y="179" on="1"/>
        <pt x="104" y="0" on="1"/>
        <pt x="5" y="0" on="1"/>
        <pt x="301" y="698" on="1"/>
        <pt x="396" y="698" on="1"/>
        <pt x="692" y="0" on="1"/>
      </contour>
      <contour>
        <pt x="215" y="267" on="1"/>
        <pt x="215" y="262" on="1"/>
        <pt x="482" y="262" on="1"/>
        <pt x="482" y="267" on="1"/>
        <pt x="350" y="586" on="1"/>
        <pt x="348" y="586" on="1"/>
      </contour>
    </TTGlyph>
    <TTGlyph name="Ahookabove" xMin="5" yMin="0" xMax="692" yMax="922">
      <contour>
        <pt x="333" y="922" on="1"/>
        <pt x="448" y="922" on="0"/>
        <pt x="448" y="843" on="1"/>
        <pt x="448" y="786" on="0"/>
        <pt x="373" y="771" on="1"/>
        <pt x="373" y="753" on="1"/>
        <pt x="319" y="753" on="1"/>
        <pt x="319" y="798" on="1"/>
        <pt x="340" y="799" on="0"/>
        <pt x="386" y="818" on="0"/>
        <pt x="386" y="838" on="1"/>
        <pt x="386" y="874" on="0"/>
        <pt x="318" y="874" on="1"/>
        <pt x="301" y="874" on="0"/>
        <pt x="292" y="873" on="1"/>
        <pt x="292" y="919" on="1"/>
        <pt x="309" y="922" on="0"/>
      </contour>
      <contour>
        <pt x="593" y="0" on="1"/>
        <pt x="518" y="179" on="1"/>
        <pt x="179" y="179" on="1"/>
        <pt x="104" y="0" on="1"/>
        <pt x="5" y="0" on="1"/>
        <pt x="301" y="698" on="1"/>
        <pt x="396" y="698" on="1"/>
        <pt x="692" y="0" on="1"/>
      </contour>
      <contour>
        <pt x="215" y="267" on="1"/>
        <pt x="215" y="262" on="1"/>
        <pt x="482" y="262" on="1"/>
        <pt x="482" y="267" on="1"/>
        <pt x="350" y="586" on="1"/>
        <pt x="348" y="586" on="1"/>
      </contour>
    </TTGlyph>
    <TTGlyph name="Amacron" xMin="5" yMin="0" xMax="692" yMax="828">
      <contour>
        <pt x="491" y="828" on="1"/>
        <pt x="491" y="768" on="1"/>
        <pt x="207" y="768" on="1"/>
        <pt x="207" y="828" on="1"/>
      </contour>
      <contour>
        <pt x="593" y="0" on="1"/>
        <pt x="518" y="179" on="1"/>
        <pt x="179" y="179" on="1"/>
        <pt x="104" y="0" on="1"/>
        <pt x="5" y="0" on="1"/>
        <pt x="301" y="698" on="1"/>
        <pt x="396" y="698" on="1"/>
        <pt x="692" y="0" on="1"/>
      </contour>
      <contour>
        <pt x="215" y="267" on="1"/>
        <pt x="215" y="262" on="1"/>
        <pt x="482" y="262" on="1"/>
        <pt x="482" y="267" on="1"/>
        <pt x="350" y="586" on="1"/>
        <pt x="348" y="586" on="1"/>
      </contour>
    </TTGlyph>
    <TTGlyph name="Aogonek" xMin="5" yMin="-203" xMax="692" yMax="698">
      <contour>
        <pt x="692" y="0" on="1"/>
        <pt x="578" y="-42" on="0"/>
        <pt x="580" y="-100" on="1"/>
        <pt x="580" y="-147" on="0"/>
        <pt x="631" y="-147" on="1"/>
        <pt x="660" y="-147" on="0"/>
        <pt x="691" y="-129" on="1"/>
        <pt x="691" y="-176" on="1"/>
        <pt x="651" y="-203" on="0"/>
        <pt x="562" y="-203" on="0"/>
        <pt x="507" y="-157" on="0"/>
        <pt x="507" y="-119" on="1"/>
        <pt x="507" y="-44" on="0"/>
        <pt x="614" y="0" on="1"/>
        <pt x="593" y="0" on="1"/>
        <pt x="518" y="179" on="1"/>
        <pt x="179" y="179" on="1"/>
        <pt x="104" y="0" on="1"/>
        <pt x="5" y="0" on="1"/>
        <pt x="301" y="698" on="1"/>
        <pt x="396" y="698" on="1"/>
      </contour>
      <contour>
        <pt x="215" y="267" on="1"/>
        <pt x="215" y="262" on="1"/>
        <pt x="482" y="262" on="1"/>
        <pt x="482" y="267" on="1"/>
        <pt x="350" y="586" on="1"/>
        <pt x="348" y="586" on="1"/>
      </contour>
    </TTGlyph>
    <TTGlyph name="Aring" xMin="5" yMin="0" xMax="692" yMax="918">
      <contour>
        <pt x="310" y="918" on="0"/>
        <pt x="388" y="918" on="0"/>
        <pt x="443" y="863" on="0"/>
        <pt x="443" y="785" on="0"/>
        <pt x="388" y="730" on="0"/>
        <pt x="310" y="730" on="0"/>
        <pt x="255" y="785" on="0"/>
        <pt x="255" y="863" on="0"/>
      </contour>
      <contour>
        <pt x="329" y="775" on="0"/>
        <pt x="369" y="775" on="0"/>
        <pt x="398" y="804" on="0"/>
        <pt x="398" y="844" on="0"/>
        <pt x="369" y="873" on="0"/>
        <pt x="329" y="873" on="0"/>
        <pt x="300" y="844" on="0"/>
        <pt x="300" y="804" on="0"/>
      </contour>
      <contour>
        <pt x="593" y="0" on="1"/>
        <pt x="518" y="179" on="1"/>
        <pt x="179" y="179" on="1"/>
        <pt x="104" y="0" on="1"/>
        <pt x="5" y="0" on="1"/>
        <pt x="301" y="698" on="1"/>
        <pt x="396" y="698" on="1"/>
        <pt x="692" y="0" on="1"/>
      </contour>
      <contour>
        <pt x="215" y="267" on="1"/>
        <pt x="215" y="262" on="1"/>
        <pt x="482" y="262" on="1"/>
        <pt x="482" y="267" on="1"/>
        <pt x="350" y="586" on="1"/>
        <pt x="348" y="586" on="1"/>
      </contour>
    </TTGlyph>
    <TTGlyph name="Atilde" xMin="5" yMin="0" xMax="692" yMax="861">
      <contour>
        <pt x="469" y="855" on="1"/>
        <pt x="514" y="855" on="1"/>
        <pt x="510" y="801" on="0"/>
        <pt x="463" y="745" on="0"/>
        <pt x="398" y="745" on="0"/>
        <pt x="299" y="793" on="0"/>
        <pt x="274" y="793" on="1"/>
        <pt x="241" y="793" on="0"/>
        <pt x="231" y="750" on="1"/>
        <pt x="187" y="750" on="1"/>
        <pt x="191" y="804" on="0"/>
        <pt x="238" y="861" on="0"/>
        <pt x="302" y="861" on="0"/>
        <pt x="400" y="814" on="0"/>
        <pt x="427" y="814" on="1"/>
        <pt x="461" y="814" on="0"/>
      </contour>
      <contour>
        <pt x="593" y="0" on="1"/>
        <pt x="518" y="179" on="1"/>
        <pt x="179" y="179" on="1"/>
        <pt x="104" y="0" on="1"/>
        <pt x="5" y="0" on="1"/>
        <pt x="301" y="698" on="1"/>
        <pt x="396" y="698" on="1"/>
        <pt x="692" y="0" on="1"/>
      </contour>
      <contour>
        <pt x="215" y="267" on="1"/>
        <pt x="215" y="262" on="1"/>
        <pt x="482" y="262" on="1"/>
        <pt x="482" y="267" on="1"/>
        <pt x="350" y="586" on="1"/>
        <pt x="348" y="586" on="1"/>
      </contour>
    </TTGlyph>
    <TTGlyph name="B" xMin="97" yMin="0" xMax="641" yMax="698">
      <contour>
        <pt x="641" y="196" on="1"/>
        <pt x="641" y="0" on="0"/>
        <pt x="384" y="0" on="1"/>
        <pt x="97" y="0" on="1"/>
        <pt x="97" y="698" on="1"/>
        <pt x="378" y="698" on="1"/>
        <pt x="485" y="698" on="0"/>
        <pt x="602" y="600" on="0"/>
        <pt x="602" y="517" on="1"/>
        <pt x="602" y="407" on="0"/>
        <pt x="506" y="364" on="1"/>
        <pt x="506" y="361" on="1"/>
        <pt x="641" y="318" on="0"/>
      </contour>
      <contour>
        <pt x="188" y="85" on="1"/>
        <pt x="375" y="85" on="1"/>
        <pt x="472" y="85" on="0"/>
        <pt x="553" y="145" on="0"/>
        <pt x="553" y="200" on="1"/>
        <pt x="553" y="314" on="0"/>
        <pt x="376" y="314" on="1"/>
        <pt x="188" y="314" on="1"/>
      </contour>
      <contour>
        <pt x="188" y="396" on="1"/>
        <pt x="354" y="396" on="1"/>
        <pt x="443" y="396" on="0"/>
        <pt x="515" y="456" on="0"/>
        <pt x="515" y="557" on="0"/>
        <pt x="438" y="613" on="0"/>
        <pt x="371" y="613" on="1"/>
        <pt x="188" y="613" on="1"/>
      </contour>
    </TTGlyph>
    <TTGlyph name="C" xMin="56" yMin="-10" xMax="643" yMax="708">
      <contour>
        <pt x="638" y="553" on="1"/>
        <pt x="535" y="621" on="0"/>
        <pt x="287" y="621" on="0"/>
        <pt x="147" y="469" on="0"/>
        <pt x="147" y="229" on="0"/>
        <pt x="287" y="77" on="0"/>
        <pt x="535" y="77" on="0"/>
        <pt x="638" y="145" on="1"/>
        <pt x="643" y="145" on="1"/>
        <pt x="643" y="55" on="1"/>
        <pt x="535" y="-10" on="0"/>
        <pt x="406" y="-10" on="1"/>
        <pt x="253" y="-10" on="0"/>
        <pt x="56" y="185" on="0"/>
        <pt x="56" y="513" on="0"/>
        <pt x="253" y="708" on="0"/>
        <pt x="406" y="708" on="1"/>
        <pt x="535" y="708" on="0"/>
        <pt x="643" y="643" on="1"/>
        <pt x="643" y="553" on="1"/>
      </contour>
    </TTGlyph>
    <TTGlyph name="Cacute" xMin="56" yMin="-10" xMax="643" yMax="883">
      <contour>
        <pt x="638" y="553" on="1"/>
        <pt x="535" y="621" on="0"/>
        <pt x="287" y="621" on="0"/>
        <pt x="147" y="469" on="0"/>
        <pt x="147" y="229" on="0"/>
        <pt x="287" y="77" on="0"/>
        <pt x="535" y="77" on="0"/>
        <pt x="638" y="145" on="1"/>
        <pt x="643" y="145" on="1"/>
        <pt x="643" y="55" on="1"/>
        <pt x="535" y="-10" on="0"/>
        <pt x="406" y="-10" on="1"/>
        <pt x="253" y="-10" on="0"/>
        <pt x="56" y="185" on="0"/>
        <pt x="56" y="513" on="0"/>
        <pt x="253" y="708" on="0"/>
        <pt x="406" y="708" on="1"/>
        <pt x="535" y="708" on="0"/>
        <pt x="643" y="643" on="1"/>
        <pt x="643" y="553" on="1"/>
      </contour>
      <contour>
        <pt x="416" y="883" on="1"/>
        <pt x="515" y="883" on="1"/>
        <pt x="402" y="750" on="1"/>
        <pt x="340" y="750" on="1"/>
      </contour>
    </TTGlyph>
    <TTGlyph name="Ccaron" xMin="56" yMin="-10" xMax="643" yMax="873">
      <contour>
        <pt x="638" y="553" on="1"/>
        <pt x="535" y="621" on="0"/>
        <pt x="287" y="621" on="0"/>
        <pt x="147" y="469" on="0"/>
        <pt x="147" y="229" on="0"/>
        <pt x="287" y="77" on="0"/>
        <pt x="535" y="77" on="0"/>
        <pt x="638" y="145" on="1"/>
        <pt x="643" y="145" on="1"/>
        <pt x="643" y="55" on="1"/>
        <pt x="535" y="-10" on="0"/>
        <pt x="406" y="-10" on="1"/>
        <pt x="253" y="-10" on="0"/>
        <pt x="56" y="185" on="0"/>
        <pt x="56" y="513" on="0"/>
        <pt x="253" y="708" on="0"/>
        <pt x="406" y="708" on="1"/>
        <pt x="535" y="708" on="0"/>
        <pt x="643" y="643" on="1"/>
        <pt x="643" y="553" on="1"/>
      </contour>
      <contour>
        <pt x="552" y="873" on="1"/>
        <pt x="439" y="750" on="1"/>
        <pt x="357" y="750" on="1"/>
        <pt x="244" y="873" on="1"/>
        <pt x="323" y="873" on="1"/>
        <pt x="398" y="800" on="1"/>
        <pt x="473" y="873" on="1"/>
      </contour>
    </TTGlyph>
    <TTGlyph name="Ccedilla" xMin="56" yMin="-221" xMax="643" yMax="708">
      <contour>
        <pt x="381" y="-63" on="1"/>
        <pt x="397" y="-59" on="0"/>
        <pt x="449" y="-59" on="0"/>
        <pt x="492" y="-98" on="0"/>
        <pt x="492" y="-129" on="1"/>
        <pt x="492" y="-221" on="0"/>
        <pt x="381" y="-221" on="1"/>
        <pt x="329" y="-221" on="0"/>
        <pt x="283" y="-190" on="1"/>
        <pt x="299" y="-155" on="1"/>
        <pt x="336" y="-178" on="0"/>
        <pt x="368" y="-178" on="1"/>
        <pt x="425" y="-178" on="0"/>
        <pt x="425" y="-132" on="1"/>
        <pt x="425" y="-117" on="0"/>
        <pt x="405" y="-101" on="0"/>
        <pt x="366" y="-101" on="0"/>
        <pt x="343" y="-113" on="1"/>
        <pt x="314" y="-97" on="1"/>
        <pt x="369" y="-8" on="1"/>
        <pt x="231" y="4" on="0"/>
        <pt x="56" y="196" on="0"/>
        <pt x="56" y="513" on="0"/>
        <pt x="253" y="708" on="0"/>
        <pt x="406" y="708" on="1"/>
        <pt x="535" y="708" on="0"/>
        <pt x="643" y="643" on="1"/>
        <pt x="643" y="553" on="1"/>
        <pt x="638" y="553" on="1"/>
        <pt x="535" y="621" on="0"/>
        <pt x="287" y="621" on="0"/>
        <pt x="147" y="469" on="0"/>
        <pt x="147" y="229" on="0"/>
        <pt x="287" y="77" on="0"/>
        <pt x="535" y="77" on="0"/>
        <pt x="638" y="145" on="1"/>
        <pt x="643" y="145" on="1"/>
        <pt x="643" y="55" on="1"/>
        <pt x="536" y="-9" on="0"/>
        <pt x="411" y="-10" on="1"/>
      </contour>
    </TTGlyph>
    <TTGlyph name="Ccircumflex" xMin="56" yMin="-10" xMax="643" yMax="873">
      <contour>
        <pt x="638" y="553" on="1"/>
        <pt x="535" y="621" on="0"/>
        <pt x="287" y="621" on="0"/>
        <pt x="147" y="469" on="0"/>
        <pt x="147" y="229" on="0"/>
        <pt x="287" y="77" on="0"/>
        <pt x="535" y="77" on="0"/>
        <pt x="638" y="145" on="1"/>
        <pt x="643" y="145" on="1"/>
        <pt x="643" y="55" on="1"/>
        <pt x="535" y="-10" on="0"/>
        <pt x="406" y="-10" on="1"/>
        <pt x="253" y="-10" on="0"/>
        <pt x="56" y="185" on="0"/>
        <pt x="56" y="513" on="0"/>
        <pt x="253" y="708" on="0"/>
        <pt x="406" y="708" on="1"/>
        <pt x="535" y="708" on="0"/>
        <pt x="643" y="643" on="1"/>
        <pt x="643" y="553" on="1"/>
      </contour>
      <contour>
        <pt x="438" y="873" on="1"/>
        <pt x="551" y="750" on="1"/>
        <pt x="472" y="750" on="1"/>
        <pt x="397" y="823" on="1"/>
        <pt x="322" y="750" on="1"/>
        <pt x="243" y="750" on="1"/>
        <pt x="356" y="873" on="1"/>
      </contour>
    </TTGlyph>
    <TTGlyph name="Cdotaccent" xMin="56" yMin="-10" xMax="643" yMax="846">
      <contour>
        <pt x="638" y="553" on="1"/>
        <pt x="535" y="621" on="0"/>
        <pt x="287" y="621" on="0"/>
        <pt x="147" y="469" on="0"/>
        <pt x="147" y="229" on="0"/>
        <pt x="287" y="77" on="0"/>
        <pt x="535" y="77" on="0"/>
        <pt x="638" y="145" on="1"/>
        <pt x="643" y="145" on="1"/>
        <pt x="643" y="55" on="1"/>
        <pt x="535" y="-10" on="0"/>
        <pt x="406" y="-10" on="1"/>
        <pt x="253" y="-10" on="0"/>
        <pt x="56" y="185" on="0"/>
        <pt x="56" y="513" on="0"/>
        <pt x="253" y="708" on="0"/>
        <pt x="406" y="708" on="1"/>
        <pt x="535" y="708" on="0"/>
        <pt x="643" y="643" on="1"/>
        <pt x="643" y="553" on="1"/>
      </contour>
      <contour>
        <pt x="347" y="750" on="1"/>
        <pt x="347" y="846" on="1"/>
        <pt x="443" y="846" on="1"/>
        <pt x="443" y="750" on="1"/>
      </contour>
    </TTGlyph>
    <TTGlyph name="D" xMin="97" yMin="0" xMax="696" yMax="698">
      <contour>
        <pt x="343" y="698" on="1"/>
        <pt x="429" y="698" on="0"/>
        <pt x="568" y="637" on="0"/>
        <pt x="610" y="586" on="1"/>
        <pt x="696" y="483" on="0"/>
        <pt x="696" y="349" on="1"/>
        <pt x="696" y="242" on="0"/>
        <pt x="640" y="154" on="1"/>
        <pt x="579" y="57" on="0"/>
        <pt x="471" y="20" on="1"/>
        <pt x="412" y="0" on="0"/>
        <pt x="343" y="0" on="1"/>
        <pt x="97" y="0" on="1"/>
        <pt x="97" y="698" on="1"/>
      </contour>
      <contour>
        <pt x="332" y="85" on="1"/>
        <pt x="456" y="85" on="0"/>
        <pt x="606" y="231" on="0"/>
        <pt x="606" y="467" on="0"/>
        <pt x="456" y="613" on="0"/>
        <pt x="332" y="613" on="1"/>
        <pt x="188" y="613" on="1"/>
        <pt x="188" y="85" on="1"/>
      </contour>
    </TTGlyph>
    <TTGlyph name="Dcaron" xMin="97" yMin="0" xMax="696" yMax="873">
      <contour>
        <pt x="343" y="698" on="1"/>
        <pt x="429" y="698" on="0"/>
        <pt x="568" y="637" on="0"/>
        <pt x="610" y="586" on="1"/>
        <pt x="696" y="483" on="0"/>
        <pt x="696" y="349" on="1"/>
        <pt x="696" y="242" on="0"/>
        <pt x="640" y="154" on="1"/>
        <pt x="579" y="57" on="0"/>
        <pt x="471" y="20" on="1"/>
        <pt x="412" y="0" on="0"/>
        <pt x="343" y="0" on="1"/>
        <pt x="97" y="0" on="1"/>
        <pt x="97" y="698" on="1"/>
      </contour>
      <contour>
        <pt x="332" y="85" on="1"/>
        <pt x="456" y="85" on="0"/>
        <pt x="606" y="231" on="0"/>
        <pt x="606" y="467" on="0"/>
        <pt x="456" y="613" on="0"/>
        <pt x="332" y="613" on="1"/>
        <pt x="188" y="613" on="1"/>
        <pt x="188" y="85" on="1"/>
      </contour>
      <contour>
        <pt x="527" y="873" on="1"/>
        <pt x="414" y="750" on="1"/>
        <pt x="332" y="750" on="1"/>
        <pt x="219" y="873" on="1"/>
        <pt x="298" y="873" on="1"/>
        <pt x="373" y="800" on="1"/>
        <pt x="448" y="873" on="1"/>
      </contour>
    </TTGlyph>
    <TTGlyph name="Dcroat" xMin="22" yMin="0" xMax="703" yMax="698">
      <contour>
        <pt x="22" y="315" on="1"/>
        <pt x="22" y="382" on="1"/>
        <pt x="104" y="382" on="1"/>
        <pt x="104" y="698" on="1"/>
        <pt x="350" y="698" on="1"/>
        <pt x="436" y="698" on="0"/>
        <pt x="575" y="637" on="0"/>
        <pt x="617" y="586" on="1"/>
        <pt x="703" y="483" on="0"/>
        <pt x="703" y="349" on="1"/>
        <pt x="703" y="242" on="0"/>
        <pt x="648" y="154" on="1"/>
        <pt x="586" y="57" on="0"/>
        <pt x="478" y="20" on="1"/>
        <pt x="419" y="0" on="0"/>
        <pt x="350" y="0" on="1"/>
        <pt x="104" y="0" on="1"/>
        <pt x="104" y="315" on="1"/>
      </contour>
      <contour>
        <pt x="339" y="85" on="1"/>
        <pt x="463" y="85" on="0"/>
        <pt x="613" y="231" on="0"/>
        <pt x="613" y="467" on="0"/>
        <pt x="463" y="613" on="0"/>
        <pt x="339" y="613" on="1"/>
        <pt x="195" y="613" on="1"/>
        <pt x="195" y="382" on="1"/>
        <pt x="341" y="382" on="1"/>
        <pt x="341" y="315" on="1"/>
        <pt x="195" y="315" on="1"/>
        <pt x="195" y="85" on="1"/>
      </contour>
    </TTGlyph>
    <TTGlyph name="Delta" xMin="33" yMin="0" xMax="688" yMax="698">
      <contour>
        <pt x="410" y="698" on="1"/>
        <pt x="688" y="0" on="1"/>
        <pt x="33" y="0" on="1"/>
        <pt x="311" y="698" on="1"/>
      </contour>
      <contour>
        <pt x="147" y="76" on="1"/>
        <pt x="147" y="71" on="1"/>
        <pt x="574" y="71" on="1"/>
        <pt x="574" y="76" on="1"/>
        <pt x="362" y="609" on="1"/>
        <pt x="360" y="609" on="1"/>
      </contour>
    </TTGlyph>
    <TTGlyph name="E" xMin="97" yMin="0" xMax="581" yMax="698">
      <contour>
        <pt x="581" y="613" on="1"/>
        <pt x="188" y="613" on="1"/>
        <pt x="188" y="392" on="1"/>
        <pt x="545" y="392" on="1"/>
        <pt x="545" y="307" on="1"/>
        <pt x="188" y="307" on="1"/>
        <pt x="188" y="85" on="1"/>
        <pt x="581" y="85" on="1"/>
        <pt x="581" y="0" on="1"/>
        <pt x="97" y="0" on="1"/>
        <pt x="97" y="698" on="1"/>
        <pt x="581" y="698" on="1"/>
      </contour>
    </TTGlyph>
    <TTGlyph name="Eacute" xMin="97" yMin="0" xMax="581" yMax="883">
      <contour>
        <pt x="581" y="613" on="1"/>
        <pt x="188" y="613" on="1"/>
        <pt x="188" y="392" on="1"/>
        <pt x="545" y="392" on="1"/>
        <pt x="545" y="307" on="1"/>
        <pt x="188" y="307" on="1"/>
        <pt x="188" y="85" on="1"/>
        <pt x="581" y="85" on="1"/>
        <pt x="581" y="0" on="1"/>
        <pt x="97" y="0" on="1"/>
        <pt x="97" y="698" on="1"/>
        <pt x="581" y="698" on="1"/>
      </contour>
      <contour>
        <pt x="365" y="883" on="1"/>
        <pt x="464" y="883" on="1"/>
        <pt x="351" y="750" on="1"/>
        <pt x="289" y="750" on="1"/>
      </contour>
    </TTGlyph>
    <TTGlyph name="Ebreve" xMin="97" yMin="0" xMax="581" yMax="864">
      <contour>
        <pt x="581" y="613" on="1"/>
        <pt x="188" y="613" on="1"/>
        <pt x="188" y="392" on="1"/>
        <pt x="545" y="392" on="1"/>
        <pt x="545" y="307" on="1"/>
        <pt x="188" y="307" on="1"/>
        <pt x="188" y="85" on="1"/>
        <pt x="581" y="85" on="1"/>
        <pt x="581" y="0" on="1"/>
        <pt x="97" y="0" on="1"/>
        <pt x="97" y="698" on="1"/>
        <pt x="581" y="698" on="1"/>
      </contour>
      <contour>
        <pt x="428" y="864" on="1"/>
        <pt x="492" y="864" on="1"/>
        <pt x="482" y="811" on="0"/>
        <pt x="403" y="748" on="0"/>
        <pt x="287" y="748" on="0"/>
        <pt x="208" y="811" on="0"/>
        <pt x="198" y="864" on="1"/>
        <pt x="262" y="864" on="1"/>
        <pt x="282" y="806" on="0"/>
        <pt x="408" y="806" on="0"/>
      </contour>
    </TTGlyph>
    <TTGlyph name="Ecaron" xMin="97" yMin="0" xMax="581" yMax="873">
      <contour>
        <pt x="581" y="613" on="1"/>
        <pt x="188" y="613" on="1"/>
        <pt x="188" y="392" on="1"/>
        <pt x="545" y="392" on="1"/>
        <pt x="545" y="307" on="1"/>
        <pt x="188" y="307" on="1"/>
        <pt x="188" y="85" on="1"/>
        <pt x="581" y="85" on="1"/>
        <pt x="581" y="0" on="1"/>
        <pt x="97" y="0" on="1"/>
        <pt x="97" y="698" on="1"/>
        <pt x="581" y="698" on="1"/>
      </contour>
      <contour>
        <pt x="493" y="873" on="1"/>
        <pt x="380" y="750" on="1"/>
        <pt x="298" y="750" on="1"/>
        <pt x="185" y="873" on="1"/>
        <pt x="264" y="873" on="1"/>
        <pt x="339" y="800" on="1"/>
        <pt x="414" y="873" on="1"/>
      </contour>
    </TTGlyph>
    <TTGlyph name="Ecircumflex" xMin="97" yMin="0" xMax="581" yMax="873">
      <contour>
        <pt x="581" y="613" on="1"/>
        <pt x="188" y="613" on="1"/>
        <pt x="188" y="392" on="1"/>
        <pt x="545" y="392" on="1"/>
        <pt x="545" y="307" on="1"/>
        <pt x="188" y="307" on="1"/>
        <pt x="188" y="85" on="1"/>
        <pt x="581" y="85" on="1"/>
        <pt x="581" y="0" on="1"/>
        <pt x="97" y="0" on="1"/>
        <pt x="97" y="698" on="1"/>
        <pt x="581" y="698" on="1"/>
      </contour>
      <contour>
        <pt x="390" y="873" on="1"/>
        <pt x="503" y="750" on="1"/>
        <pt x="424" y="750" on="1"/>
        <pt x="349" y="823" on="1"/>
        <pt x="274" y="750" on="1"/>
        <pt x="195" y="750" on="1"/>
        <pt x="308" y="873" on="1"/>
      </contour>
    </TTGlyph>
    <TTGlyph name="Ecircumflexacute" xMin="97" yMin="0" xMax="618" yMax="956">
      <contour>
        <pt x="581" y="613" on="1"/>
        <pt x="188" y="613" on="1"/>
        <pt x="188" y="392" on="1"/>
        <pt x="545" y="392" on="1"/>
        <pt x="545" y="307" on="1"/>
        <pt x="188" y="307" on="1"/>
        <pt x="188" y="85" on="1"/>
        <pt x="581" y="85" on="1"/>
        <pt x="581" y="0" on="1"/>
        <pt x="97" y="0" on="1"/>
        <pt x="97" y="698" on="1"/>
        <pt x="581" y="698" on="1"/>
      </contour>
      <contour>
        <pt x="381" y="857" on="1"/>
        <pt x="494" y="734" on="1"/>
        <pt x="415" y="734" on="1"/>
        <pt x="340" y="807" on="1"/>
        <pt x="265" y="734" on="1"/>
        <pt x="186" y="734" on="1"/>
        <pt x="299" y="857" on="1"/>
      </contour>
      <contour>
        <pt x="519" y="956" on="1"/>
        <pt x="618" y="956" on="1"/>
        <pt x="505" y="823" on="1"/>
        <pt x="443" y="823" on="1"/>
      </contour>
    </TTGlyph>
    <TTGlyph name="Ecircumflexdotbelow" xMin="97" yMin="-156" xMax="581" yMax="871">
      <contour>
        <pt x="581" y="613" on="1"/>
        <pt x="188" y="613" on="1"/>
        <pt x="188" y="392" on="1"/>
        <pt x="545" y="392" on="1"/>
        <pt x="545" y="307" on="1"/>
        <pt x="188" y="307" on="1"/>
        <pt x="188" y="85" on="1"/>
        <pt x="581" y="85" on="1"/>
        <pt x="581" y="0" on="1"/>
        <pt x="97" y="0" on="1"/>
        <pt x="97" y="698" on="1"/>
        <pt x="581" y="698" on="1"/>
      </contour>
      <contour>
        <pt x="393" y="871" on="1"/>
        <pt x="506" y="748" on="1"/>
        <pt x="427" y="748" on="1"/>
        <pt x="352" y="821" on="1"/>
        <pt x="277" y="748" on="1"/>
        <pt x="198" y="748" on="1"/>
        <pt x="311" y="871" on="1"/>
      </contour>
      <contour>
        <pt x="304" y="-156" on="1"/>
        <pt x="304" y="-60" on="1"/>
        <pt x="400" y="-60" on="1"/>
        <pt x="400" y="-156" on="1"/>
      </contour>
    </TTGlyph>
    <TTGlyph name="Ecircumflexgrave" xMin="71" yMin="0" xMax="581" yMax="956">
      <contour>
        <pt x="581" y="613" on="1"/>
        <pt x="188" y="613" on="1"/>
        <pt x="188" y="392" on="1"/>
        <pt x="545" y="392" on="1"/>
        <pt x="545" y="307" on="1"/>
        <pt x="188" y="307" on="1"/>
        <pt x="188" y="85" on="1"/>
        <pt x="581" y="85" on="1"/>
        <pt x="581" y="0" on="1"/>
        <pt x="97" y="0" on="1"/>
        <pt x="97" y="698" on="1"/>
        <pt x="581" y="698" on="1"/>
      </contour>
      <contour>
        <pt x="390" y="857" on="1"/>
        <pt x="503" y="734" on="1"/>
        <pt x="424" y="734" on="1"/>
        <pt x="349" y="807" on="1"/>
        <pt x="274" y="734" on="1"/>
        <pt x="195" y="734" on="1"/>
        <pt x="308" y="857" on="1"/>
      </contour>
      <contour>
        <pt x="71" y="956" on="1"/>
        <pt x="170" y="956" on="1"/>
        <pt x="246" y="823" on="1"/>
        <pt x="184" y="823" on="1"/>
      </contour>
    </TTGlyph>
    <TTGlyph name="Ecircumflexhookabove" xMin="97" yMin="0" xMax="610" yMax="958">
      <contour>
        <pt x="581" y="613" on="1"/>
        <pt x="188" y="613" on="1"/>
        <pt x="188" y="392" on="1"/>
        <pt x="545" y="392" on="1"/>
        <pt x="545" y="307" on="1"/>
        <pt x="188" y="307" on="1"/>
        <pt x="188" y="85" on="1"/>
        <pt x="581" y="85" on="1"/>
        <pt x="581" y="0" on="1"/>
        <pt x="97" y="0" on="1"/>
        <pt x="97" y="698" on="1"/>
        <pt x="581" y="698" on="1"/>
      </contour>
      <contour>
        <pt x="381" y="857" on="1"/>
        <pt x="494" y="734" on="1"/>
        <pt x="415" y="734" on="1"/>
        <pt x="340" y="807" on="1"/>
        <pt x="265" y="734" on="1"/>
        <pt x="186" y="734" on="1"/>
        <pt x="299" y="857" on="1"/>
      </contour>
      <contour>
        <pt x="495" y="958" on="1"/>
        <pt x="610" y="958" on="0"/>
        <pt x="610" y="879" on="1"/>
        <pt x="610" y="822" on="0"/>
        <pt x="535" y="807" on="1"/>
        <pt x="535" y="789" on="1"/>
        <pt x="481" y="789" on="1"/>
        <pt x="481" y="834" on="1"/>
        <pt x="502" y="835" on="0"/>
        <pt x="548" y="854" on="0"/>
        <pt x="548" y="874" on="1"/>
        <pt x="548" y="910" on="0"/>
        <pt x="480" y="910" on="1"/>
        <pt x="463" y="910" on="0"/>
        <pt x="454" y="909" on="1"/>
        <pt x="454" y="955" on="1"/>
        <pt x="471" y="958" on="0"/>
      </contour>
    </TTGlyph>
    <TTGlyph name="Ecircumflextilde" xMin="97" yMin="0" xMax="581" yMax="989">
      <contour>
        <pt x="581" y="613" on="1"/>
        <pt x="188" y="613" on="1"/>
        <pt x="188" y="392" on="1"/>
        <pt x="545" y="392" on="1"/>
        <pt x="545" y="307" on="1"/>
        <pt x="188" y="307" on="1"/>
        <pt x="188" y="85" on="1"/>
        <pt x="581" y="85" on="1"/>
        <pt x="581" y="0" on="1"/>
        <pt x="97" y="0" on="1"/>
        <pt x="97" y="698" on="1"/>
        <pt x="581" y="698" on="1"/>
      </contour>
      <contour>
        <pt x="390" y="852" on="1"/>
        <pt x="503" y="729" on="1"/>
        <pt x="424" y="729" on="1"/>
        <pt x="349" y="802" on="1"/>
        <pt x="274" y="729" on="1"/>
        <pt x="195" y="729" on="1"/>
        <pt x="308" y="852" on="1"/>
      </contour>
      <contour>
        <pt x="469" y="983" on="1"/>
        <pt x="514" y="983" on="1"/>
        <pt x="510" y="929" on="0"/>
        <pt x="463" y="873" on="0"/>
        <pt x="398" y="873" on="0"/>
        <pt x="299" y="921" on="0"/>
        <pt x="274" y="921" on="1"/>
        <pt x="241" y="921" on="0"/>
        <pt x="231" y="878" on="1"/>
        <pt x="187" y="878" on="1"/>
        <pt x="191" y="932" on="0"/>
        <pt x="238" y="989" on="0"/>
        <pt x="302" y="989" on="0"/>
        <pt x="400" y="942" on="0"/>
        <pt x="427" y="942" on="1"/>
        <pt x="461" y="942" on="0"/>
      </contour>
    </TTGlyph>
    <TTGlyph name="Edieresis" xMin="97" yMin="0" xMax="581" yMax="846">
      <contour>
        <pt x="581" y="613" on="1"/>
        <pt x="188" y="613" on="1"/>
        <pt x="188" y="392" on="1"/>
        <pt x="545" y="392" on="1"/>
        <pt x="545" y="307" on="1"/>
        <pt x="188" y="307" on="1"/>
        <pt x="188" y="85" on="1"/>
        <pt x="581" y="85" on="1"/>
        <pt x="581" y="0" on="1"/>
        <pt x="97" y="0" on="1"/>
        <pt x="97" y="698" on="1"/>
        <pt x="581" y="698" on="1"/>
      </contour>
      <contour>
        <pt x="206" y="750" on="1"/>
        <pt x="206" y="846" on="1"/>
        <pt x="302" y="846" on="1"/>
        <pt x="302" y="750" on="1"/>
      </contour>
      <contour>
        <pt x="374" y="750" on="1"/>
        <pt x="374" y="846" on="1"/>
        <pt x="470" y="846" on="1"/>
        <pt x="470" y="750" on="1"/>
      </contour>
    </TTGlyph>
    <TTGlyph name="Edotaccent" xMin="97" yMin="0" xMax="581" yMax="846">
      <contour>
        <pt x="581" y="613" on="1"/>
        <pt x="188" y="613" on="1"/>
        <pt x="188" y="392" on="1"/>
        <pt x="545" y="392" on="1"/>
        <pt x="545" y="307" on="1"/>
        <pt x="188" y="307" on="1"/>
        <pt x="188" y="85" on="1"/>
        <pt x="581" y="85" on="1"/>
        <pt x="581" y="0" on="1"/>
        <pt x="97" y="0" on="1"/>
        <pt x="97" y="698" on="1"/>
        <pt x="581" y="698" on="1"/>
      </contour>
      <contour>
        <pt x="299" y="750" on="1"/>
        <pt x="299" y="846" on="1"/>
        <pt x="395" y="846" on="1"/>
        <pt x="395" y="750" on="1"/>
      </contour>
    </TTGlyph>
    <TTGlyph name="Edotbelow" xMin="97" yMin="-156" xMax="581" yMax="698">
      <contour>
        <pt x="581" y="613" on="1"/>
        <pt x="188" y="613" on="1"/>
        <pt x="188" y="392" on="1"/>
        <pt x="545" y="392" on="1"/>
        <pt x="545" y="307" on="1"/>
        <pt x="188" y="307" on="1"/>
        <pt x="188" y="85" on="1"/>
        <pt x="581" y="85" on="1"/>
        <pt x="581" y="0" on="1"/>
        <pt x="97" y="0" on="1"/>
        <pt x="97" y="698" on="1"/>
        <pt x="581" y="698" on="1"/>
      </contour>
      <contour>
        <pt x="295" y="-156" on="1"/>
        <pt x="295" y="-60" on="1"/>
        <pt x="391" y="-60" on="1"/>
        <pt x="391" y="-156" on="1"/>
      </contour>
    </TTGlyph>
    <TTGlyph name="Egrave" xMin="97" yMin="0" xMax="581" yMax="883">
      <contour>
        <pt x="581" y="613" on="1"/>
        <pt x="188" y="613" on="1"/>
        <pt x="188" y="392" on="1"/>
        <pt x="545" y="392" on="1"/>
        <pt x="545" y="307" on="1"/>
        <pt x="188" y="307" on="1"/>
        <pt x="188" y="85" on="1"/>
        <pt x="581" y="85" on="1"/>
        <pt x="581" y="0" on="1"/>
        <pt x="97" y="0" on="1"/>
        <pt x="97" y="698" on="1"/>
        <pt x="581" y="698" on="1"/>
      </contour>
      <contour>
        <pt x="218" y="883" on="1"/>
        <pt x="317" y="883" on="1"/>
        <pt x="393" y="750" on="1"/>
        <pt x="331" y="750" on="1"/>
      </contour>
    </TTGlyph>
    <TTGlyph name="Ehookabove" xMin="97" yMin="0" xMax="581" yMax="922">
      <contour>
        <pt x="581" y="613" on="1"/>
        <pt x="188" y="613" on="1"/>
        <pt x="188" y="392" on="1"/>
        <pt x="545" y="392" on="1"/>
        <pt x="545" y="307" on="1"/>
        <pt x="188" y="307" on="1"/>
        <pt x="188" y="85" on="1"/>
        <pt x="581" y="85" on="1"/>
        <pt x="581" y="0" on="1"/>
        <pt x="97" y="0" on="1"/>
        <pt x="97" y="698" on="1"/>
        <pt x="581" y="698" on="1"/>
      </contour>
      <contour>
        <pt x="328" y="922" on="1"/>
        <pt x="443" y="922" on="0"/>
        <pt x="443" y="843" on="1"/>
        <pt x="443" y="786" on="0"/>
        <pt x="368" y="771" on="1"/>
        <pt x="368" y="753" on="1"/>
        <pt x="314" y="753" on="1"/>
        <pt x="314" y="798" on="1"/>
        <pt x="335" y="799" on="0"/>
        <pt x="381" y="818" on="0"/>
        <pt x="381" y="838" on="1"/>
        <pt x="381" y="874" on="0"/>
        <pt x="313" y="874" on="1"/>
        <pt x="296" y="874" on="0"/>
        <pt x="287" y="873" on="1"/>
        <pt x="287" y="919" on="1"/>
        <pt x="304" y="922" on="0"/>
      </contour>
    </TTGlyph>
    <TTGlyph name="Emacron" xMin="97" yMin="0" xMax="581" yMax="828">
      <contour>
        <pt x="581" y="613" on="1"/>
        <pt x="188" y="613" on="1"/>
        <pt x="188" y="392" on="1"/>
        <pt x="545" y="392" on="1"/>
        <pt x="545" y="307" on="1"/>
        <pt x="188" y="307" on="1"/>
        <pt x="188" y="85" on="1"/>
        <pt x="581" y="85" on="1"/>
        <pt x="581" y="0" on="1"/>
        <pt x="97" y="0" on="1"/>
        <pt x="97" y="698" on="1"/>
        <pt x="581" y="698" on="1"/>
      </contour>
      <contour>
        <pt x="489" y="828" on="1"/>
        <pt x="489" y="768" on="1"/>
        <pt x="205" y="768" on="1"/>
        <pt x="205" y="828" on="1"/>
      </contour>
    </TTGlyph>
    <TTGlyph name="Eng" xMin="97" yMin="-240" xMax="706" yMax="698">
      <contour>
        <pt x="615" y="-101" on="1"/>
        <pt x="615" y="0" on="1"/>
        <pt x="190" y="575" on="1"/>
        <pt x="188" y="575" on="1"/>
        <pt x="188" y="0" on="1"/>
        <pt x="97" y="0" on="1"/>
        <pt x="97" y="698" on="1"/>
        <pt x="209" y="698" on="1"/>
        <pt x="612" y="152" on="1"/>
        <pt x="615" y="152" on="1"/>
        <pt x="615" y="698" on="1"/>
        <pt x="706" y="698" on="1"/>
        <pt x="706" y="-103" on="1"/>
        <pt x="706" y="-165" on="0"/>
        <pt x="643" y="-240" on="0"/>
        <pt x="575" y="-240" on="1"/>
        <pt x="532" y="-240" on="0"/>
        <pt x="500" y="-227" on="1"/>
        <pt x="500" y="-152" on="1"/>
        <pt x="508" y="-152" on="1"/>
        <pt x="532" y="-160" on="0"/>
        <pt x="585" y="-160" on="0"/>
        <pt x="615" y="-138" on="0"/>
      </contour>
    </TTGlyph>
    <TTGlyph name="Eogonek" xMin="97" yMin="-203" xMax="581" yMax="698">
      <contour>
        <pt x="581" y="0" on="1"/>
        <pt x="467" y="-42" on="0"/>
        <pt x="469" y="-100" on="1"/>
        <pt x="469" y="-147" on="0"/>
        <pt x="520" y="-147" on="1"/>
        <pt x="548" y="-147" on="0"/>
        <pt x="580" y="-129" on="1"/>
        <pt x="580" y="-176" on="1"/>
        <pt x="540" y="-203" on="0"/>
        <pt x="451" y="-203" on="0"/>
        <pt x="396" y="-157" on="0"/>
        <pt x="396" y="-119" on="1"/>
        <pt x="396" y="-44" on="0"/>
        <pt x="503" y="0" on="1"/>
        <pt x="97" y="0" on="1"/>
        <pt x="97" y="698" on="1"/>
        <pt x="581" y="698" on="1"/>
        <pt x="581" y="613" on="1"/>
        <pt x="188" y="613" on="1"/>
        <pt x="188" y="392" on="1"/>
        <pt x="545" y="392" on="1"/>
        <pt x="545" y="307" on="1"/>
        <pt x="188" y="307" on="1"/>
        <pt x="188" y="85" on="1"/>
        <pt x="581" y="85" on="1"/>
      </contour>
    </TTGlyph>
    <TTGlyph name="Eth" xMin="22" yMin="0" xMax="703" yMax="698">
      <contour>
        <pt x="22" y="315" on="1"/>
        <pt x="22" y="382" on="1"/>
        <pt x="104" y="382" on="1"/>
        <pt x="104" y="698" on="1"/>
        <pt x="350" y="698" on="1"/>
        <pt x="436" y="698" on="0"/>
        <pt x="575" y="637" on="0"/>
        <pt x="617" y="586" on="1"/>
        <pt x="703" y="483" on="0"/>
        <pt x="703" y="349" on="1"/>
        <pt x="703" y="242" on="0"/>
        <pt x="648" y="154" on="1"/>
        <pt x="586" y="57" on="0"/>
        <pt x="478" y="20" on="1"/>
        <pt x="419" y="0" on="0"/>
        <pt x="350" y="0" on="1"/>
        <pt x="104" y="0" on="1"/>
        <pt x="104" y="315" on="1"/>
      </contour>
      <contour>
        <pt x="339" y="85" on="1"/>
        <pt x="463" y="85" on="0"/>
        <pt x="613" y="231" on="0"/>
        <pt x="613" y="467" on="0"/>
        <pt x="463" y="613" on="0"/>
        <pt x="339" y="613" on="1"/>
        <pt x="195" y="613" on="1"/>
        <pt x="195" y="382" on="1"/>
        <pt x="341" y="382" on="1"/>
        <pt x="341" y="315" on="1"/>
        <pt x="195" y="315" on="1"/>
        <pt x="195" y="85" on="1"/>
      </contour>
    </TTGlyph>
    <TTGlyph name="Etilde" xMin="97" yMin="0" xMax="581" yMax="861">
      <contour>
        <pt x="581" y="613" on="1"/>
        <pt x="188" y="613" on="1"/>
        <pt x="188" y="392" on="1"/>
        <pt x="545" y="392" on="1"/>
        <pt x="545" y="307" on="1"/>
        <pt x="188" y="307" on="1"/>
        <pt x="188" y="85" on="1"/>
        <pt x="581" y="85" on="1"/>
        <pt x="581" y="0" on="1"/>
        <pt x="97" y="0" on="1"/>
        <pt x="97" y="698" on="1"/>
        <pt x="581" y="698" on="1"/>
      </contour>
      <contour>
        <pt x="469" y="855" on="1"/>
        <pt x="514" y="855" on="1"/>
        <pt x="510" y="801" on="0"/>
        <pt x="463" y="745" on="0"/>
        <pt x="398" y="745" on="0"/>
        <pt x="299" y="793" on="0"/>
        <pt x="274" y="793" on="1"/>
        <pt x="241" y="793" on="0"/>
        <pt x="231" y="750" on="1"/>
        <pt x="187" y="750" on="1"/>
        <pt x="191" y="804" on="0"/>
        <pt x="238" y="861" on="0"/>
        <pt x="302" y="861" on="0"/>
        <pt x="400" y="814" on="0"/>
        <pt x="427" y="814" on="1"/>
        <pt x="461" y="814" on="0"/>
      </contour>
    </TTGlyph>
    <TTGlyph name="Euro" xMin="47" yMin="-10" xMax="633" yMax="708">
      <contour>
        <pt x="610" y="107" on="1"/>
        <pt x="633" y="32" on="1"/>
        <pt x="558" y="-10" on="0"/>
        <pt x="468" y="-10" on="1"/>
        <pt x="352" y="-10" on="0"/>
        <pt x="183" y="122" on="0"/>
        <pt x="149" y="229" on="1"/>
        <pt x="47" y="229" on="1"/>
        <pt x="47" y="302" on="1"/>
        <pt x="133" y="302" on="1"/>
        <pt x="129" y="332" on="0"/>
        <pt x="129" y="364" on="0"/>
        <pt x="133" y="396" on="1"/>
        <pt x="47" y="396" on="1"/>
        <pt x="47" y="468" on="1"/>
        <pt x="149" y="468" on="1"/>
        <pt x="183" y="576" on="0"/>
        <pt x="352" y="708" on="0"/>
        <pt x="468" y="708" on="1"/>
        <pt x="558" y="708" on="0"/>
        <pt x="633" y="666" on="1"/>
        <pt x="610" y="590" on="1"/>
        <pt x="548" y="622" on="0"/>
        <pt x="394" y="622" on="0"/>
        <pt x="273" y="539" on="0"/>
        <pt x="244" y="468" on="1"/>
        <pt x="574" y="468" on="1"/>
        <pt x="553" y="396" on="1"/>
        <pt x="223" y="396" on="1"/>
        <pt x="220" y="374" on="0"/>
        <pt x="220" y="324" on="0"/>
        <pt x="223" y="302" on="1"/>
        <pt x="525" y="302" on="1"/>
        <pt x="504" y="229" on="1"/>
        <pt x="244" y="229" on="1"/>
        <pt x="273" y="159" on="0"/>
        <pt x="394" y="76" on="0"/>
        <pt x="546" y="76" on="0"/>
      </contour>
    </TTGlyph>
    <TTGlyph name="F" xMin="97" yMin="0" xMax="569" yMax="698">
      <contour>
        <pt x="97" y="698" on="1"/>
        <pt x="569" y="698" on="1"/>
        <pt x="569" y="613" on="1"/>
        <pt x="188" y="613" on="1"/>
        <pt x="188" y="392" on="1"/>
        <pt x="534" y="392" on="1"/>
        <pt x="534" y="307" on="1"/>
        <pt x="188" y="307" on="1"/>
        <pt x="188" y="0" on="1"/>
        <pt x="97" y="0" on="1"/>
      </contour>
    </TTGlyph>
    <TTGlyph name="G" xMin="55" yMin="-10" xMax="673" yMax="708">
      <contour>
        <pt x="410" y="383" on="1"/>
        <pt x="673" y="383" on="1"/>
        <pt x="673" y="67" on="1"/>
        <pt x="544" y="-10" on="0"/>
        <pt x="406" y="-10" on="1"/>
        <pt x="249" y="-10" on="0"/>
        <pt x="55" y="190" on="0"/>
        <pt x="55" y="508" on="0"/>
        <pt x="255" y="708" on="0"/>
        <pt x="536" y="708" on="0"/>
        <pt x="662" y="631" on="1"/>
        <pt x="662" y="537" on="1"/>
        <pt x="658" y="537" on="1"/>
        <pt x="535" y="620" on="0"/>
        <pt x="296" y="620" on="0"/>
        <pt x="146" y="476" on="0"/>
        <pt x="146" y="229" on="0"/>
        <pt x="292" y="76" on="0"/>
        <pt x="418" y="76" on="1"/>
        <pt x="512" y="76" on="0"/>
        <pt x="593" y="120" on="1"/>
        <pt x="593" y="301" on="1"/>
        <pt x="410" y="301" on="1"/>
      </contour>
    </TTGlyph>
    <TTGlyph name="Gbreve" xMin="55" yMin="-10" xMax="673" yMax="864">
      <contour>
        <pt x="410" y="383" on="1"/>
        <pt x="673" y="383" on="1"/>
        <pt x="673" y="67" on="1"/>
        <pt x="544" y="-10" on="0"/>
        <pt x="406" y="-10" on="1"/>
        <pt x="249" y="-10" on="0"/>
        <pt x="55" y="190" on="0"/>
        <pt x="55" y="508" on="0"/>
        <pt x="255" y="708" on="0"/>
        <pt x="536" y="708" on="0"/>
        <pt x="662" y="631" on="1"/>
        <pt x="662" y="537" on="1"/>
        <pt x="658" y="537" on="1"/>
        <pt x="535" y="620" on="0"/>
        <pt x="296" y="620" on="0"/>
        <pt x="146" y="476" on="0"/>
        <pt x="146" y="229" on="0"/>
        <pt x="292" y="76" on="0"/>
        <pt x="418" y="76" on="1"/>
        <pt x="512" y="76" on="0"/>
        <pt x="593" y="120" on="1"/>
        <pt x="593" y="301" on="1"/>
        <pt x="410" y="301" on="1"/>
      </contour>
      <contour>
        <pt x="479" y="864" on="1"/>
        <pt x="543" y="864" on="1"/>
        <pt x="533" y="811" on="0"/>
        <pt x="454" y="748" on="0"/>
        <pt x="338" y="748" on="0"/>
        <pt x="259" y="811" on="0"/>
        <pt x="249" y="864" on="1"/>
        <pt x="313" y="864" on="1"/>
        <pt x="333" y="806" on="0"/>
        <pt x="459" y="806" on="0"/>
      </contour>
    </TTGlyph>
    <TTGlyph name="Gcircumflex" xMin="55" yMin="-10" xMax="673" yMax="873">
      <contour>
        <pt x="410" y="383" on="1"/>
        <pt x="673" y="383" on="1"/>
        <pt x="673" y="67" on="1"/>
        <pt x="544" y="-10" on="0"/>
        <pt x="406" y="-10" on="1"/>
        <pt x="249" y="-10" on="0"/>
        <pt x="55" y="190" on="0"/>
        <pt x="55" y="508" on="0"/>
        <pt x="255" y="708" on="0"/>
        <pt x="536" y="708" on="0"/>
        <pt x="662" y="631" on="1"/>
        <pt x="662" y="537" on="1"/>
        <pt x="658" y="537" on="1"/>
        <pt x="535" y="620" on="0"/>
        <pt x="296" y="620" on="0"/>
        <pt x="146" y="476" on="0"/>
        <pt x="146" y="229" on="0"/>
        <pt x="292" y="76" on="0"/>
        <pt x="418" y="76" on="1"/>
        <pt x="512" y="76" on="0"/>
        <pt x="593" y="120" on="1"/>
        <pt x="593" y="301" on="1"/>
        <pt x="410" y="301" on="1"/>
      </contour>
      <contour>
        <pt x="440" y="873" on="1"/>
        <pt x="553" y="750" on="1"/>
        <pt x="474" y="750" on="1"/>
        <pt x="399" y="823" on="1"/>
        <pt x="324" y="750" on="1"/>
        <pt x="245" y="750" on="1"/>
        <pt x="358" y="873" on="1"/>
      </contour>
    </TTGlyph>
    <TTGlyph name="Gcommaaccent" xMin="55" yMin="-283" xMax="673" yMax="708">
      <contour>
        <pt x="410" y="383" on="1"/>
        <pt x="673" y="383" on="1"/>
        <pt x="673" y="67" on="1"/>
        <pt x="544" y="-10" on="0"/>
        <pt x="406" y="-10" on="1"/>
        <pt x="249" y="-10" on="0"/>
        <pt x="55" y="190" on="0"/>
        <pt x="55" y="508" on="0"/>
        <pt x="255" y="708" on="0"/>
        <pt x="536" y="708" on="0"/>
        <pt x="662" y="631" on="1"/>
        <pt x="662" y="537" on="1"/>
        <pt x="658" y="537" on="1"/>
        <pt x="535" y="620" on="0"/>
        <pt x="296" y="620" on="0"/>
        <pt x="146" y="476" on="0"/>
        <pt x="146" y="229" on="0"/>
        <pt x="292" y="76" on="0"/>
        <pt x="418" y="76" on="1"/>
        <pt x="512" y="76" on="0"/>
        <pt x="593" y="120" on="1"/>
        <pt x="593" y="301" on="1"/>
        <pt x="410" y="301" on="1"/>
      </contour>
      <contour>
        <pt x="346" y="-53" on="1"/>
        <pt x="441" y="-53" on="1"/>
        <pt x="441" y="-147" on="1"/>
        <pt x="441" y="-242" on="0"/>
        <pt x="346" y="-283" on="1"/>
        <pt x="346" y="-228" on="1"/>
        <pt x="393" y="-203" on="0"/>
        <pt x="393" y="-147" on="1"/>
        <pt x="346" y="-147" on="1"/>
      </contour>
    </TTGlyph>
    <TTGlyph name="Gdotaccent" xMin="55" yMin="-10" xMax="673" yMax="846">
      <contour>
        <pt x="410" y="383" on="1"/>
        <pt x="673" y="383" on="1"/>
        <pt x="673" y="67" on="1"/>
        <pt x="544" y="-10" on="0"/>
        <pt x="406" y="-10" on="1"/>
        <pt x="249" y="-10" on="0"/>
        <pt x="55" y="190" on="0"/>
        <pt x="55" y="508" on="0"/>
        <pt x="255" y="708" on="0"/>
        <pt x="536" y="708" on="0"/>
        <pt x="662" y="631" on="1"/>
        <pt x="662" y="537" on="1"/>
        <pt x="658" y="537" on="1"/>
        <pt x="535" y="620" on="0"/>
        <pt x="296" y="620" on="0"/>
        <pt x="146" y="476" on="0"/>
        <pt x="146" y="229" on="0"/>
        <pt x="292" y="76" on="0"/>
        <pt x="418" y="76" on="1"/>
        <pt x="512" y="76" on="0"/>
        <pt x="593" y="120" on="1"/>
        <pt x="593" y="301" on="1"/>
        <pt x="410" y="301" on="1"/>
      </contour>
      <contour>
        <pt x="343" y="750" on="1"/>
        <pt x="343" y="846" on="1"/>
        <pt x="439" y="846" on="1"/>
        <pt x="439" y="750" on="1"/>
      </contour>
    </TTGlyph>
    <TTGlyph name="H" xMin="97" yMin="0" xMax="658" yMax="698">
      <contour>
        <pt x="567" y="698" on="1"/>
        <pt x="658" y="698" on="1"/>
        <pt x="658" y="0" on="1"/>
        <pt x="567" y="0" on="1"/>
        <pt x="567" y="306" on="1"/>
        <pt x="188" y="306" on="1"/>
        <pt x="188" y="0" on="1"/>
        <pt x="97" y="0" on="1"/>
        <pt x="97" y="698" on="1"/>
        <pt x="188" y="698" on="1"/>
        <pt x="188" y="391" on="1"/>
        <pt x="567" y="391" on="1"/>
      </contour>
    </TTGlyph>
    <TTGlyph name="Hbar" xMin="27" yMin="0" xMax="736" yMax="698">
      <contour>
        <pt x="736" y="576" on="1"/>
        <pt x="736" y="509" on="1"/>
        <pt x="662" y="509" on="1"/>
        <pt x="662" y="0" on="1"/>
        <pt x="571" y="0" on="1"/>
        <pt x="571" y="306" on="1"/>
        <pt x="192" y="306" on="1"/>
        <pt x="192" y="0" on="1"/>
        <pt x="101" y="0" on="1"/>
        <pt x="101" y="509" on="1"/>
        <pt x="27" y="509" on="1"/>
        <pt x="27" y="576" on="1"/>
        <pt x="101" y="576" on="1"/>
        <pt x="101" y="698" on="1"/>
        <pt x="192" y="698" on="1"/>
        <pt x="192" y="576" on="1"/>
        <pt x="571" y="576" on="1"/>
        <pt x="571" y="698" on="1"/>
        <pt x="662" y="698" on="1"/>
        <pt x="662" y="576" on="1"/>
      </contour>
      <contour>
        <pt x="571" y="391" on="1"/>
        <pt x="571" y="509" on="1"/>
        <pt x="192" y="509" on="1"/>
        <pt x="192" y="391" on="1"/>
      </contour>
    </TTGlyph>
    <TTGlyph name="Hcircumflex" xMin="97" yMin="0" xMax="658" yMax="873">
      <contour>
        <pt x="567" y="698" on="1"/>
        <pt x="658" y="698" on="1"/>
        <pt x="658" y="0" on="1"/>
        <pt x="567" y="0" on="1"/>
        <pt x="567" y="306" on="1"/>
        <pt x="188" y="306" on="1"/>
        <pt x="188" y="0" on="1"/>
        <pt x="97" y="0" on="1"/>
        <pt x="97" y="698" on="1"/>
        <pt x="188" y="698" on="1"/>
        <pt x="188" y="391" on="1"/>
        <pt x="567" y="391" on="1"/>
      </contour>
      <contour>
        <pt x="413" y="873" on="1"/>
        <pt x="526" y="750" on="1"/>
        <pt x="447" y="750" on="1"/>
        <pt x="372" y="823" on="1"/>
        <pt x="297" y="750" on="1"/>
        <pt x="218" y="750" on="1"/>
        <pt x="331" y="873" on="1"/>
      </contour>
    </TTGlyph>
    <TTGlyph name="I" xMin="97" yMin="0" xMax="188" yMax="698">
      <contour>
        <pt x="188" y="698" on="1"/>
        <pt x="188" y="0" on="1"/>
        <pt x="97" y="0" on="1"/>
        <pt x="97" y="698" on="1"/>
      </contour>
    </TTGlyph>
    <TTGlyph name="IJ" xMin="97" yMin="-10" xMax="647" yMax="698">
      <contour>
        <pt x="188" y="698" on="1"/>
        <pt x="188" y="0" on="1"/>
        <pt x="97" y="0" on="1"/>
        <pt x="97" y="698" on="1"/>
      </contour>
      <contour>
        <pt x="556" y="698" on="1"/>
        <pt x="647" y="698" on="1"/>
        <pt x="647" y="230" on="1"/>
        <pt x="647" y="99" on="0"/>
        <pt x="530" y="-10" on="0"/>
        <pt x="365" y="-10" on="0"/>
        <pt x="298" y="31" on="1"/>
        <pt x="298" y="121" on="1"/>
        <pt x="302" y="121" on="1"/>
        <pt x="363" y="76" on="0"/>
        <pt x="489" y="76" on="0"/>
        <pt x="556" y="138" on="0"/>
        <pt x="556" y="224" on="1"/>
      </contour>
    </TTGlyph>
    <TTGlyph name="Iacute" xMin="88" yMin="0" xMax="263" yMax="883">
      <contour>
        <pt x="188" y="698" on="1"/>
        <pt x="188" y="0" on="1"/>
        <pt x="97" y="0" on="1"/>
        <pt x="97" y="698" on="1"/>
      </contour>
      <contour>
        <pt x="164" y="883" on="1"/>
        <pt x="263" y="883" on="1"/>
        <pt x="150" y="750" on="1"/>
        <pt x="88" y="750" on="1"/>
      </contour>
    </TTGlyph>
    <TTGlyph name="Ibreve" xMin="-5" yMin="0" xMax="289" yMax="864">
      <contour>
        <pt x="188" y="698" on="1"/>
        <pt x="188" y="0" on="1"/>
        <pt x="97" y="0" on="1"/>
        <pt x="97" y="698" on="1"/>
      </contour>
      <contour>
        <pt x="225" y="864" on="1"/>
        <pt x="289" y="864" on="1"/>
        <pt x="279" y="811" on="0"/>
        <pt x="200" y="748" on="0"/>
        <pt x="84" y="748" on="0"/>
        <pt x="5" y="811" on="0"/>
        <pt x="-5" y="864" on="1"/>
        <pt x="59" y="864" on="1"/>
        <pt x="79" y="806" on="0"/>
        <pt x="205" y="806" on="0"/>
      </contour>
    </TTGlyph>
    <TTGlyph name="Icircumflex" xMin="-12" yMin="0" xMax="296" yMax="873">
      <contour>
        <pt x="188" y="698" on="1"/>
        <pt x="188" y="0" on="1"/>
        <pt x="97" y="0" on="1"/>
        <pt x="97" y="698" on="1"/>
      </contour>
      <contour>
        <pt x="183" y="873" on="1"/>
        <pt x="296" y="750" on="1"/>
        <pt x="217" y="750" on="1"/>
        <pt x="142" y="823" on="1"/>
        <pt x="67" y="750" on="1"/>
        <pt x="-12" y="750" on="1"/>
        <pt x="101" y="873" on="1"/>
      </contour>
    </TTGlyph>
    <TTGlyph name="Idieresis" xMin="10" yMin="0" xMax="274" yMax="846">
      <contour>
        <pt x="188" y="698" on="1"/>
        <pt x="188" y="0" on="1"/>
        <pt x="97" y="0" on="1"/>
        <pt x="97" y="698" on="1"/>
      </contour>
      <contour>
        <pt x="10" y="750" on="1"/>
        <pt x="10" y="846" on="1"/>
        <pt x="106" y="846" on="1"/>
        <pt x="106" y="750" on="1"/>
      </contour>
      <contour>
        <pt x="178" y="750" on="1"/>
        <pt x="178" y="846" on="1"/>
        <pt x="274" y="846" on="1"/>
        <pt x="274" y="750" on="1"/>
      </contour>
    </TTGlyph>
    <TTGlyph name="Idotaccent" xMin="94" yMin="0" xMax="190" yMax="846">
      <contour>
        <pt x="188" y="698" on="1"/>
        <pt x="188" y="0" on="1"/>
        <pt x="97" y="0" on="1"/>
        <pt x="97" y="698" on="1"/>
      </contour>
      <contour>
        <pt x="94" y="750" on="1"/>
        <pt x="94" y="846" on="1"/>
        <pt x="190" y="846" on="1"/>
        <pt x="190" y="750" on="1"/>
      </contour>
    </TTGlyph>
    <TTGlyph name="Idotbelow" xMin="94" yMin="-156" xMax="190" yMax="698">
      <contour>
        <pt x="188" y="698" on="1"/>
        <pt x="188" y="0" on="1"/>
        <pt x="97" y="0" on="1"/>
        <pt x="97" y="698" on="1"/>
      </contour>
      <contour>
        <pt x="94" y="-156" on="1"/>
        <pt x="94" y="-60" on="1"/>
        <pt x="190" y="-60" on="1"/>
        <pt x="190" y="-156" on="1"/>
      </contour>
    </TTGlyph>
    <TTGlyph name="Igrave" xMin="22" yMin="0" xMax="197" yMax="883">
      <contour>
        <pt x="188" y="698" on="1"/>
        <pt x="188" y="0" on="1"/>
        <pt x="97" y="0" on="1"/>
        <pt x="97" y="698" on="1"/>
      </contour>
      <contour>
        <pt x="22" y="883" on="1"/>
        <pt x="121" y="883" on="1"/>
        <pt x="197" y="750" on="1"/>
        <pt x="135" y="750" on="1"/>
      </contour>
    </TTGlyph>
    <TTGlyph name="Ihookabove" xMin="82" yMin="0" xMax="238" yMax="922">
      <contour>
        <pt x="188" y="698" on="1"/>
        <pt x="188" y="0" on="1"/>
        <pt x="97" y="0" on="1"/>
        <pt x="97" y="698" on="1"/>
      </contour>
      <contour>
        <pt x="123" y="922" on="1"/>
        <pt x="238" y="922" on="0"/>
        <pt x="238" y="843" on="1"/>
        <pt x="238" y="786" on="0"/>
        <pt x="163" y="771" on="1"/>
        <pt x="163" y="753" on="1"/>
        <pt x="109" y="753" on="1"/>
        <pt x="109" y="798" on="1"/>
        <pt x="130" y="799" on="0"/>
        <pt x="176" y="818" on="0"/>
        <pt x="176" y="838" on="1"/>
        <pt x="176" y="874" on="0"/>
        <pt x="108" y="874" on="1"/>
        <pt x="91" y="874" on="0"/>
        <pt x="82" y="873" on="1"/>
        <pt x="82" y="919" on="1"/>
        <pt x="99" y="922" on="0"/>
      </contour>
    </TTGlyph>
    <TTGlyph name="Imacron" xMin="0" yMin="0" xMax="284" yMax="828">
      <contour>
        <pt x="188" y="698" on="1"/>
        <pt x="188" y="0" on="1"/>
        <pt x="97" y="0" on="1"/>
        <pt x="97" y="698" on="1"/>
      </contour>
      <contour>
        <pt x="284" y="828" on="1"/>
        <pt x="284" y="768" on="1"/>
        <pt x="0" y="768" on="1"/>
        <pt x="0" y="828" on="1"/>
      </contour>
    </TTGlyph>
    <TTGlyph name="Iogonek" xMin="3" yMin="-203" xMax="188" yMax="698">
      <contour>
        <pt x="188" y="0" on="1"/>
        <pt x="74" y="-42" on="0"/>
        <pt x="76" y="-100" on="1"/>
        <pt x="76" y="-147" on="0"/>
        <pt x="127" y="-147" on="1"/>
        <pt x="156" y="-147" on="0"/>
        <pt x="187" y="-129" on="1"/>
        <pt x="187" y="-176" on="1"/>
        <pt x="147" y="-203" on="0"/>
        <pt x="58" y="-203" on="0"/>
        <pt x="3" y="-157" on="0"/>
        <pt x="3" y="-119" on="1"/>
        <pt x="3" y="-44" on="0"/>
        <pt x="110" y="0" on="1"/>
        <pt x="97" y="0" on="1"/>
        <pt x="97" y="698" on="1"/>
        <pt x="188" y="698" on="1"/>
      </contour>
    </TTGlyph>
    <TTGlyph name="Itilde" xMin="-21" yMin="0" xMax="306" yMax="861">
      <contour>
        <pt x="188" y="698" on="1"/>
        <pt x="188" y="0" on="1"/>
        <pt x="97" y="0" on="1"/>
        <pt x="97" y="698" on="1"/>
      </contour>
      <contour>
        <pt x="261" y="855" on="1"/>
        <pt x="306" y="855" on="1"/>
        <pt x="302" y="801" on="0"/>
        <pt x="255" y="745" on="0"/>
        <pt x="190" y="745" on="0"/>
        <pt x="91" y="793" on="0"/>
        <pt x="66" y="793" on="1"/>
        <pt x="33" y="793" on="0"/>
        <pt x="23" y="750" on="1"/>
        <pt x="-21" y="750" on="1"/>
        <pt x="-17" y="804" on="0"/>
        <pt x="29" y="861" on="0"/>
        <pt x="94" y="861" on="0"/>
        <pt x="192" y="814" on="0"/>
        <pt x="219" y="814" on="1"/>
        <pt x="253" y="814" on="0"/>
      </contour>
    </TTGlyph>
    <TTGlyph name="J" xMin="24" yMin="-10" xMax="373" yMax="698">
      <contour>
        <pt x="282" y="698" on="1"/>
        <pt x="373" y="698" on="1"/>
        <pt x="373" y="230" on="1"/>
        <pt x="373" y="99" on="0"/>
        <pt x="256" y="-10" on="0"/>
        <pt x="91" y="-10" on="0"/>
        <pt x="24" y="31" on="1"/>
        <pt x="24" y="121" on="1"/>
        <pt x="28" y="121" on="1"/>
        <pt x="89" y="76" on="0"/>
        <pt x="215" y="76" on="0"/>
        <pt x="282" y="138" on="0"/>
        <pt x="282" y="224" on="1"/>
      </contour>
    </TTGlyph>
    <TTGlyph name="Jcircumflex" xMin="24" yMin="-10" xMax="481" yMax="889">
      <contour>
        <pt x="282" y="698" on="1"/>
        <pt x="373" y="698" on="1"/>
        <pt x="373" y="230" on="1"/>
        <pt x="373" y="99" on="0"/>
        <pt x="256" y="-10" on="0"/>
        <pt x="91" y="-10" on="0"/>
        <pt x="24" y="31" on="1"/>
        <pt x="24" y="121" on="1"/>
        <pt x="28" y="121" on="1"/>
        <pt x="89" y="76" on="0"/>
        <pt x="215" y="76" on="0"/>
        <pt x="282" y="138" on="0"/>
        <pt x="282" y="224" on="1"/>
      </contour>
      <contour>
        <pt x="368" y="889" on="1"/>
        <pt x="481" y="766" on="1"/>
        <pt x="402" y="766" on="1"/>
        <pt x="327" y="839" on="1"/>
        <pt x="252" y="766" on="1"/>
        <pt x="173" y="766" on="1"/>
        <pt x="286" y="889" on="1"/>
      </contour>
    </TTGlyph>
    <TTGlyph name="K" xMin="97" yMin="0" xMax="673" yMax="698">
      <contour>
        <pt x="362" y="404" on="1"/>
        <pt x="673" y="0" on="1"/>
        <pt x="562" y="0" on="1"/>
        <pt x="304" y="340" on="1"/>
        <pt x="299" y="340" on="1"/>
        <pt x="188" y="225" on="1"/>
        <pt x="188" y="0" on="1"/>
        <pt x="97" y="0" on="1"/>
        <pt x="97" y="698" on="1"/>
        <pt x="188" y="698" on="1"/>
        <pt x="188" y="341" on="1"/>
        <pt x="191" y="341" on="1"/>
        <pt x="528" y="698" on="1"/>
        <pt x="647" y="698" on="1"/>
      </contour>
    </TTGlyph>
    <TTGlyph name="Kcommaaccent" xMin="97" yMin="-283" xMax="673" yMax="698">
      <contour>
        <pt x="362" y="404" on="1"/>
        <pt x="673" y="0" on="1"/>
        <pt x="562" y="0" on="1"/>
        <pt x="304" y="340" on="1"/>
        <pt x="299" y="340" on="1"/>
        <pt x="188" y="225" on="1"/>
        <pt x="188" y="0" on="1"/>
        <pt x="97" y="0" on="1"/>
        <pt x="97" y="698" on="1"/>
        <pt x="188" y="698" on="1"/>
        <pt x="188" y="341" on="1"/>
        <pt x="191" y="341" on="1"/>
        <pt x="528" y="698" on="1"/>
        <pt x="647" y="698" on="1"/>
      </contour>
      <contour>
        <pt x="312" y="-53" on="1"/>
        <pt x="407" y="-53" on="1"/>
        <pt x="407" y="-147" on="1"/>
        <pt x="407" y="-242" on="0"/>
        <pt x="312" y="-283" on="1"/>
        <pt x="312" y="-228" on="1"/>
        <pt x="359" y="-203" on="0"/>
        <pt x="359" y="-147" on="1"/>
        <pt x="312" y="-147" on="1"/>
      </contour>
    </TTGlyph>
    <TTGlyph name="L" xMin="97" yMin="0" xMax="556" yMax="698">
      <contour>
        <pt x="556" y="91" on="1"/>
        <pt x="556" y="0" on="1"/>
        <pt x="97" y="0" on="1"/>
        <pt x="97" y="698" on="1"/>
        <pt x="188" y="698" on="1"/>
        <pt x="188" y="91" on="1"/>
      </contour>
    </TTGlyph>
    <TTGlyph name="Lacute" xMin="97" yMin="0" xMax="556" yMax="883">
      <contour>
        <pt x="556" y="91" on="1"/>
        <pt x="556" y="0" on="1"/>
        <pt x="97" y="0" on="1"/>
        <pt x="97" y="698" on="1"/>
        <pt x="188" y="698" on="1"/>
        <pt x="188" y="91" on="1"/>
      </contour>
      <contour>
        <pt x="180" y="883" on="1"/>
        <pt x="279" y="883" on="1"/>
        <pt x="166" y="750" on="1"/>
        <pt x="104" y="750" on="1"/>
      </contour>
    </TTGlyph>
    <TTGlyph name="Lcaron" xMin="97" yMin="0" xMax="556" yMax="698">
      <contour>
        <pt x="556" y="91" on="1"/>
        <pt x="556" y="0" on="1"/>
        <pt x="97" y="0" on="1"/>
        <pt x="97" y="698" on="1"/>
        <pt x="188" y="698" on="1"/>
        <pt x="188" y="91" on="1"/>
      </contour>
      <contour>
        <pt x="308" y="698" on="1"/>
        <pt x="403" y="698" on="1"/>
        <pt x="403" y="604" on="1"/>
        <pt x="403" y="509" on="0"/>
        <pt x="308" y="468" on="1"/>
        <pt x="308" y="523" on="1"/>
        <pt x="355" y="548" on="0"/>
        <pt x="355" y="604" on="1"/>
        <pt x="308" y="604" on="1"/>
      </contour>
    </TTGlyph>
    <TTGlyph name="Lcommaaccent" xMin="97" yMin="-283" xMax="556" yMax="698">
      <contour>
        <pt x="556" y="91" on="1"/>
        <pt x="556" y="0" on="1"/>
        <pt x="97" y="0" on="1"/>
        <pt x="97" y="698" on="1"/>
        <pt x="188" y="698" on="1"/>
        <pt x="188" y="91" on="1"/>
      </contour>
      <contour>
        <pt x="279" y="-53" on="1"/>
        <pt x="374" y="-53" on="1"/>
        <pt x="374" y="-147" on="1"/>
        <pt x="374" y="-242" on="0"/>
        <pt x="279" y="-283" on="1"/>
        <pt x="279" y="-228" on="1"/>
        <pt x="326" y="-203" on="0"/>
        <pt x="326" y="-147" on="1"/>
        <pt x="279" y="-147" on="1"/>
      </contour>
    </TTGlyph>
    <TTGlyph name="Ldot" xMin="97" yMin="0" xMax="556" yMax="698">
      <contour>
        <pt x="556" y="91" on="1"/>
        <pt x="556" y="0" on="1"/>
        <pt x="97" y="0" on="1"/>
        <pt x="97" y="698" on="1"/>
        <pt x="188" y="698" on="1"/>
        <pt x="188" y="91" on="1"/>
      </contour>
      <contour>
        <pt x="308" y="316" on="1"/>
        <pt x="308" y="412" on="1"/>
        <pt x="404" y="412" on="1"/>
        <pt x="404" y="316" on="1"/>
      </contour>
    </TTGlyph>
    <TTGlyph name="Lslash" xMin="16" yMin="0" xMax="561" yMax="698">
      <contour>
        <pt x="204" y="91" on="1"/>
        <pt x="561" y="91" on="1"/>
        <pt x="561" y="0" on="1"/>
        <pt x="113" y="0" on="1"/>
        <pt x="113" y="257" on="1"/>
        <pt x="16" y="202" on="1"/>
        <pt x="16" y="279" on="1"/>
        <pt x="113" y="334" on="1"/>
        <pt x="113" y="698" on="1"/>
        <pt x="204" y="698" on="1"/>
        <pt x="204" y="386" on="1"/>
        <pt x="390" y="492" on="1"/>
        <pt x="390" y="415" on="1"/>
        <pt x="204" y="309" on="1"/>
      </contour>
    </TTGlyph>
    <TTGlyph name="M" xMin="97" yMin="0" xMax="869" yMax="698">
      <contour>
        <pt x="727" y="698" on="1"/>
        <pt x="869" y="698" on="1"/>
        <pt x="869" y="0" on="1"/>
        <pt x="778" y="0" on="1"/>
        <pt x="778" y="602" on="1"/>
        <pt x="776" y="602" on="1"/>
        <pt x="530" y="0" on="1"/>
        <pt x="436" y="0" on="1"/>
        <pt x="189" y="602" on="1"/>
        <pt x="188" y="602" on="1"/>
        <pt x="188" y="0" on="1"/>
        <pt x="97" y="0" on="1"/>
        <pt x="97" y="698" on="1"/>
        <pt x="239" y="698" on="1"/>
        <pt x="482" y="101" on="1"/>
        <pt x="484" y="101" on="1"/>
      </contour>
    </TTGlyph>
    <TTGlyph name="N" xMin="97" yMin="0" xMax="706" yMax="698">
      <contour>
        <pt x="615" y="698" on="1"/>
        <pt x="706" y="698" on="1"/>
        <pt x="706" y="0" on="1"/>
        <pt x="594" y="0" on="1"/>
        <pt x="190" y="575" on="1"/>
        <pt x="188" y="575" on="1"/>
        <pt x="188" y="0" on="1"/>
        <pt x="97" y="0" on="1"/>
        <pt x="97" y="698" on="1"/>
        <pt x="209" y="698" on="1"/>
        <pt x="612" y="124" on="1"/>
        <pt x="615" y="124" on="1"/>
      </contour>
    </TTGlyph>
    <TTGlyph name="Nacute" xMin="97" yMin="0" xMax="706" yMax="883">
      <contour>
        <pt x="615" y="698" on="1"/>
        <pt x="706" y="698" on="1"/>
        <pt x="706" y="0" on="1"/>
        <pt x="594" y="0" on="1"/>
        <pt x="190" y="575" on="1"/>
        <pt x="188" y="575" on="1"/>
        <pt x="188" y="0" on="1"/>
        <pt x="97" y="0" on="1"/>
        <pt x="97" y="698" on="1"/>
        <pt x="209" y="698" on="1"/>
        <pt x="612" y="124" on="1"/>
        <pt x="615" y="124" on="1"/>
      </contour>
      <contour>
        <pt x="447" y="883" on="1"/>
        <pt x="546" y="883" on="1"/>
        <pt x="433" y="750" on="1"/>
        <pt x="371" y="750" on="1"/>
      </contour>
    </TTGlyph>
    <TTGlyph name="Ncaron" xMin="97" yMin="0" xMax="706" yMax="873">
      <contour>
        <pt x="615" y="698" on="1"/>
        <pt x="706" y="698" on="1"/>
        <pt x="706" y="0" on="1"/>
        <pt x="594" y="0" on="1"/>
        <pt x="190" y="575" on="1"/>
        <pt x="188" y="575" on="1"/>
        <pt x="188" y="0" on="1"/>
        <pt x="97" y="0" on="1"/>
        <pt x="97" y="698" on="1"/>
        <pt x="209" y="698" on="1"/>
        <pt x="612" y="124" on="1"/>
        <pt x="615" y="124" on="1"/>
      </contour>
      <contour>
        <pt x="560" y="873" on="1"/>
        <pt x="447" y="750" on="1"/>
        <pt x="365" y="750" on="1"/>
        <pt x="252" y="873" on="1"/>
        <pt x="331" y="873" on="1"/>
        <pt x="406" y="800" on="1"/>
        <pt x="481" y="873" on="1"/>
      </contour>
    </TTGlyph>
    <TTGlyph name="Ncommaaccent" xMin="97" yMin="-283" xMax="706" yMax="698">
      <contour>
        <pt x="615" y="698" on="1"/>
        <pt x="706" y="698" on="1"/>
        <pt x="706" y="0" on="1"/>
        <pt x="594" y="0" on="1"/>
        <pt x="190" y="575" on="1"/>
        <pt x="188" y="575" on="1"/>
        <pt x="188" y="0" on="1"/>
        <pt x="97" y="0" on="1"/>
        <pt x="97" y="698" on="1"/>
        <pt x="209" y="698" on="1"/>
        <pt x="612" y="124" on="1"/>
        <pt x="615" y="124" on="1"/>
      </contour>
      <contour>
        <pt x="340" y="-53" on="1"/>
        <pt x="435" y="-53" on="1"/>
        <pt x="435" y="-147" on="1"/>
        <pt x="435" y="-242" on="0"/>
        <pt x="340" y="-283" on="1"/>
        <pt x="340" y="-228" on="1"/>
        <pt x="387" y="-203" on="0"/>
        <pt x="387" y="-147" on="1"/>
        <pt x="340" y="-147" on="1"/>
      </contour>
    </TTGlyph>
    <TTGlyph name="Ntilde" xMin="97" yMin="0" xMax="706" yMax="861">
      <contour>
        <pt x="615" y="698" on="1"/>
        <pt x="706" y="698" on="1"/>
        <pt x="706" y="0" on="1"/>
        <pt x="594" y="0" on="1"/>
        <pt x="190" y="575" on="1"/>
        <pt x="188" y="575" on="1"/>
        <pt x="188" y="0" on="1"/>
        <pt x="97" y="0" on="1"/>
        <pt x="97" y="698" on="1"/>
        <pt x="209" y="698" on="1"/>
        <pt x="612" y="124" on="1"/>
        <pt x="615" y="124" on="1"/>
      </contour>
      <contour>
        <pt x="525" y="855" on="1"/>
        <pt x="570" y="855" on="1"/>
        <pt x="566" y="801" on="0"/>
        <pt x="519" y="745" on="0"/>
        <pt x="454" y="745" on="0"/>
        <pt x="355" y="793" on="0"/>
        <pt x="330" y="793" on="1"/>
        <pt x="297" y="793" on="0"/>
        <pt x="287" y="750" on="1"/>
        <pt x="243" y="750" on="1"/>
        <pt x="247" y="804" on="0"/>
        <pt x="294" y="861" on="0"/>
        <pt x="358" y="861" on="0"/>
        <pt x="456" y="814" on="0"/>
        <pt x="483" y="814" on="1"/>
        <pt x="517" y="814" on="0"/>
      </contour>
    </TTGlyph>
    <TTGlyph name="O" xMin="55" yMin="-10" xMax="757" yMax="708">
      <contour>
        <pt x="248" y="708" on="0"/>
        <pt x="564" y="708" on="0"/>
        <pt x="754" y="508" on="0"/>
        <pt x="757" y="349" on="1"/>
        <pt x="754" y="190" on="0"/>
        <pt x="564" y="-10" on="0"/>
        <pt x="248" y="-10" on="0"/>
        <pt x="58" y="190" on="0"/>
        <pt x="55" y="349" on="1"/>
        <pt x="58" y="508" on="0"/>
      </contour>
      <contour>
        <pt x="146" y="230" on="0"/>
        <pt x="285" y="75" on="0"/>
        <pt x="526" y="75" on="0"/>
        <pt x="666" y="230" on="0"/>
        <pt x="666" y="468" on="0"/>
        <pt x="526" y="623" on="0"/>
        <pt x="285" y="623" on="0"/>
        <pt x="146" y="468" on="0"/>
      </contour>
    </TTGlyph>
    <TTGlyph name="OE" xMin="55" yMin="-10" xMax="1053" yMax="708">
      <contour>
        <pt x="1053" y="613" on="1"/>
        <pt x="660" y="613" on="1"/>
        <pt x="660" y="392" on="1"/>
        <pt x="1017" y="392" on="1"/>
        <pt x="1017" y="306" on="1"/>
        <pt x="660" y="306" on="1"/>
        <pt x="660" y="85" on="1"/>
        <pt x="1053" y="85" on="1"/>
        <pt x="1053" y="0" on="1"/>
        <pt x="569" y="0" on="1"/>
        <pt x="569" y="35" on="1"/>
        <pt x="497" y="-10" on="0"/>
        <pt x="406" y="-10" on="1"/>
        <pt x="248" y="-10" on="0"/>
        <pt x="58" y="190" on="0"/>
        <pt x="55" y="349" on="1"/>
        <pt x="58" y="508" on="0"/>
        <pt x="248" y="708" on="0"/>
        <pt x="406" y="708" on="1"/>
        <pt x="497" y="708" on="0"/>
        <pt x="569" y="663" on="1"/>
        <pt x="569" y="698" on="1"/>
        <pt x="1053" y="698" on="1"/>
      </contour>
      <contour>
        <pt x="569" y="134" on="1"/>
        <pt x="569" y="564" on="1"/>
        <pt x="503" y="623" on="0"/>
        <pt x="406" y="623" on="1"/>
        <pt x="285" y="623" on="0"/>
        <pt x="146" y="468" on="0"/>
        <pt x="146" y="230" on="0"/>
        <pt x="285" y="75" on="0"/>
        <pt x="406" y="75" on="1"/>
        <pt x="503" y="75" on="0"/>
      </contour>
    </TTGlyph>
    <TTGlyph name="Oacute" xMin="55" yMin="-10" xMax="757" yMax="883">
      <contour>
        <pt x="248" y="708" on="0"/>
        <pt x="564" y="708" on="0"/>
        <pt x="754" y="508" on="0"/>
        <pt x="757" y="349" on="1"/>
        <pt x="754" y="190" on="0"/>
        <pt x="564" y="-10" on="0"/>
        <pt x="248" y="-10" on="0"/>
        <pt x="58" y="190" on="0"/>
        <pt x="55" y="349" on="1"/>
        <pt x="58" y="508" on="0"/>
      </contour>
      <contour>
        <pt x="146" y="230" on="0"/>
        <pt x="285" y="75" on="0"/>
        <pt x="526" y="75" on="0"/>
        <pt x="666" y="230" on="0"/>
        <pt x="666" y="468" on="0"/>
        <pt x="526" y="623" on="0"/>
        <pt x="285" y="623" on="0"/>
        <pt x="146" y="468" on="0"/>
      </contour>
      <contour>
        <pt x="425" y="883" on="1"/>
        <pt x="524" y="883" on="1"/>
        <pt x="411" y="750" on="1"/>
        <pt x="349" y="750" on="1"/>
      </contour>
    </TTGlyph>
    <TTGlyph name="Obreve" xMin="55" yMin="-10" xMax="757" yMax="864">
      <contour>
        <pt x="248" y="708" on="0"/>
        <pt x="564" y="708" on="0"/>
        <pt x="754" y="508" on="0"/>
        <pt x="757" y="349" on="1"/>
        <pt x="754" y="190" on="0"/>
        <pt x="564" y="-10" on="0"/>
        <pt x="248" y="-10" on="0"/>
        <pt x="58" y="190" on="0"/>
        <pt x="55" y="349" on="1"/>
        <pt x="58" y="508" on="0"/>
      </contour>
      <contour>
        <pt x="146" y="230" on="0"/>
        <pt x="285" y="75" on="0"/>
        <pt x="526" y="75" on="0"/>
        <pt x="666" y="230" on="0"/>
        <pt x="666" y="468" on="0"/>
        <pt x="526" y="623" on="0"/>
        <pt x="285" y="623" on="0"/>
        <pt x="146" y="468" on="0"/>
      </contour>
      <contour>
        <pt x="489" y="864" on="1"/>
        <pt x="553" y="864" on="1"/>
        <pt x="543" y="811" on="0"/>
        <pt x="464" y="748" on="0"/>
        <pt x="348" y="748" on="0"/>
        <pt x="269" y="811" on="0"/>
        <pt x="259" y="864" on="1"/>
        <pt x="323" y="864" on="1"/>
        <pt x="343" y="806" on="0"/>
        <pt x="469" y="806" on="0"/>
      </contour>
    </TTGlyph>
    <TTGlyph name="Ocircumflex" xMin="55" yMin="-10" xMax="757" yMax="873">
      <contour>
        <pt x="248" y="708" on="0"/>
        <pt x="564" y="708" on="0"/>
        <pt x="754" y="508" on="0"/>
        <pt x="757" y="349" on="1"/>
        <pt x="754" y="190" on="0"/>
        <pt x="564" y="-10" on="0"/>
        <pt x="248" y="-10" on="0"/>
        <pt x="58" y="190" on="0"/>
        <pt x="55" y="349" on="1"/>
        <pt x="58" y="508" on="0"/>
      </contour>
      <contour>
        <pt x="146" y="230" on="0"/>
        <pt x="285" y="75" on="0"/>
        <pt x="526" y="75" on="0"/>
        <pt x="666" y="230" on="0"/>
        <pt x="666" y="468" on="0"/>
        <pt x="526" y="623" on="0"/>
        <pt x="285" y="623" on="0"/>
        <pt x="146" y="468" on="0"/>
      </contour>
      <contour>
        <pt x="447" y="873" on="1"/>
        <pt x="560" y="750" on="1"/>
        <pt x="481" y="750" on="1"/>
        <pt x="406" y="823" on="1"/>
        <pt x="331" y="750" on="1"/>
        <pt x="252" y="750" on="1"/>
        <pt x="365" y="873" on="1"/>
      </contour>
    </TTGlyph>
    <TTGlyph name="Ocircumflexacute" xMin="55" yMin="-10" xMax="757" yMax="956">
      <contour>
        <pt x="248" y="708" on="0"/>
        <pt x="564" y="708" on="0"/>
        <pt x="754" y="508" on="0"/>
        <pt x="757" y="349" on="1"/>
        <pt x="754" y="190" on="0"/>
        <pt x="564" y="-10" on="0"/>
        <pt x="248" y="-10" on="0"/>
        <pt x="58" y="190" on="0"/>
        <pt x="55" y="349" on="1"/>
        <pt x="58" y="508" on="0"/>
      </contour>
      <contour>
        <pt x="146" y="230" on="0"/>
        <pt x="285" y="75" on="0"/>
        <pt x="526" y="75" on="0"/>
        <pt x="666" y="230" on="0"/>
        <pt x="666" y="468" on="0"/>
        <pt x="526" y="623" on="0"/>
        <pt x="285" y="623" on="0"/>
        <pt x="146" y="468" on="0"/>
      </contour>
      <contour>
        <pt x="447" y="857" on="1"/>
        <pt x="560" y="734" on="1"/>
        <pt x="481" y="734" on="1"/>
        <pt x="406" y="807" on="1"/>
        <pt x="331" y="734" on="1"/>
        <pt x="252" y="734" on="1"/>
        <pt x="365" y="857" on="1"/>
      </contour>
      <contour>
        <pt x="585" y="956" on="1"/>
        <pt x="684" y="956" on="1"/>
        <pt x="571" y="823" on="1"/>
        <pt x="509" y="823" on="1"/>
      </contour>
    </TTGlyph>
    <TTGlyph name="Ocircumflexdotbelow" xMin="55" yMin="-156" xMax="757" yMax="871">
      <contour>
        <pt x="248" y="708" on="0"/>
        <pt x="564" y="708" on="0"/>
        <pt x="754" y="508" on="0"/>
        <pt x="757" y="349" on="1"/>
        <pt x="754" y="190" on="0"/>
        <pt x="564" y="-10" on="0"/>
        <pt x="248" y="-10" on="0"/>
        <pt x="58" y="190" on="0"/>
        <pt x="55" y="349" on="1"/>
        <pt x="58" y="508" on="0"/>
      </contour>
      <contour>
        <pt x="146" y="230" on="0"/>
        <pt x="285" y="75" on="0"/>
        <pt x="526" y="75" on="0"/>
        <pt x="666" y="230" on="0"/>
        <pt x="666" y="468" on="0"/>
        <pt x="526" y="623" on="0"/>
        <pt x="285" y="623" on="0"/>
        <pt x="146" y="468" on="0"/>
      </contour>
      <contour>
        <pt x="447" y="871" on="1"/>
        <pt x="560" y="748" on="1"/>
        <pt x="481" y="748" on="1"/>
        <pt x="406" y="821" on="1"/>
        <pt x="331" y="748" on="1"/>
        <pt x="252" y="748" on="1"/>
        <pt x="365" y="871" on="1"/>
      </contour>
      <contour>
        <pt x="358" y="-156" on="1"/>
        <pt x="358" y="-60" on="1"/>
        <pt x="454" y="-60" on="1"/>
        <pt x="454" y="-156" on="1"/>
      </contour>
    </TTGlyph>
    <TTGlyph name="Ocircumflexgrave" xMin="55" yMin="-10" xMax="757" yMax="956">
      <contour>
        <pt x="248" y="708" on="0"/>
        <pt x="564" y="708" on="0"/>
        <pt x="754" y="508" on="0"/>
        <pt x="757" y="349" on="1"/>
        <pt x="754" y="190" on="0"/>
        <pt x="564" y="-10" on="0"/>
        <pt x="248" y="-10" on="0"/>
        <pt x="58" y="190" on="0"/>
        <pt x="55" y="349" on="1"/>
        <pt x="58" y="508" on="0"/>
      </contour>
      <contour>
        <pt x="146" y="230" on="0"/>
        <pt x="285" y="75" on="0"/>
        <pt x="526" y="75" on="0"/>
        <pt x="666" y="230" on="0"/>
        <pt x="666" y="468" on="0"/>
        <pt x="526" y="623" on="0"/>
        <pt x="285" y="623" on="0"/>
        <pt x="146" y="468" on="0"/>
      </contour>
      <contour>
        <pt x="447" y="857" on="1"/>
        <pt x="560" y="734" on="1"/>
        <pt x="481" y="734" on="1"/>
        <pt x="406" y="807" on="1"/>
        <pt x="331" y="734" on="1"/>
        <pt x="252" y="734" on="1"/>
        <pt x="365" y="857" on="1"/>
      </contour>
      <contour>
        <pt x="128" y="956" on="1"/>
        <pt x="227" y="956" on="1"/>
        <pt x="303" y="823" on="1"/>
        <pt x="241" y="823" on="1"/>
      </contour>
    </TTGlyph>
    <TTGlyph name="Ocircumflexhookabove" xMin="55" yMin="-10" xMax="757" yMax="958">
      <contour>
        <pt x="248" y="708" on="0"/>
        <pt x="564" y="708" on="0"/>
        <pt x="754" y="508" on="0"/>
        <pt x="757" y="349" on="1"/>
        <pt x="754" y="190" on="0"/>
        <pt x="564" y="-10" on="0"/>
        <pt x="248" y="-10" on="0"/>
        <pt x="58" y="190" on="0"/>
        <pt x="55" y="349" on="1"/>
        <pt x="58" y="508" on="0"/>
      </contour>
      <contour>
        <pt x="146" y="230" on="0"/>
        <pt x="285" y="75" on="0"/>
        <pt x="526" y="75" on="0"/>
        <pt x="666" y="230" on="0"/>
        <pt x="666" y="468" on="0"/>
        <pt x="526" y="623" on="0"/>
        <pt x="285" y="623" on="0"/>
        <pt x="146" y="468" on="0"/>
      </contour>
      <contour>
        <pt x="447" y="857" on="1"/>
        <pt x="560" y="734" on="1"/>
        <pt x="481" y="734" on="1"/>
        <pt x="406" y="807" on="1"/>
        <pt x="331" y="734" on="1"/>
        <pt x="252" y="734" on="1"/>
        <pt x="365" y="857" on="1"/>
      </contour>
      <contour>
        <pt x="561" y="958" on="1"/>
        <pt x="676" y="958" on="0"/>
        <pt x="676" y="879" on="1"/>
        <pt x="676" y="822" on="0"/>
        <pt x="601" y="807" on="1"/>
        <pt x="601" y="789" on="1"/>
        <pt x="547" y="789" on="1"/>
        <pt x="547" y="834" on="1"/>
        <pt x="568" y="835" on="0"/>
        <pt x="614" y="854" on="0"/>
        <pt x="614" y="874" on="1"/>
        <pt x="614" y="910" on="0"/>
        <pt x="546" y="910" on="1"/>
        <pt x="529" y="910" on="0"/>
        <pt x="520" y="909" on="1"/>
        <pt x="520" y="955" on="1"/>
        <pt x="537" y="958" on="0"/>
      </contour>
    </TTGlyph>
    <TTGlyph name="Ocircumflextilde" xMin="55" yMin="-10" xMax="757" yMax="989">
      <contour>
        <pt x="248" y="708" on="0"/>
        <pt x="564" y="708" on="0"/>
        <pt x="754" y="508" on="0"/>
        <pt x="757" y="349" on="1"/>
        <pt x="754" y="190" on="0"/>
        <pt x="564" y="-10" on="0"/>
        <pt x="248" y="-10" on="0"/>
        <pt x="58" y="190" on="0"/>
        <pt x="55" y="349" on="1"/>
        <pt x="58" y="508" on="0"/>
      </contour>
      <contour>
        <pt x="146" y="230" on="0"/>
        <pt x="285" y="75" on="0"/>
        <pt x="526" y="75" on="0"/>
        <pt x="666" y="230" on="0"/>
        <pt x="666" y="468" on="0"/>
        <pt x="526" y="623" on="0"/>
        <pt x="285" y="623" on="0"/>
        <pt x="146" y="468" on="0"/>
      </contour>
      <contour>
        <pt x="447" y="852" on="1"/>
        <pt x="560" y="729" on="1"/>
        <pt x="481" y="729" on="1"/>
        <pt x="406" y="802" on="1"/>
        <pt x="331" y="729" on="1"/>
        <pt x="252" y="729" on="1"/>
        <pt x="365" y="852" on="1"/>
      </contour>
      <contour>
        <pt x="526" y="983" on="1"/>
        <pt x="571" y="983" on="1"/>
        <pt x="567" y="929" on="0"/>
        <pt x="520" y="873" on="0"/>
        <pt x="455" y="873" on="0"/>
        <pt x="356" y="921" on="0"/>
        <pt x="331" y="921" on="1"/>
        <pt x="298" y="921" on="0"/>
        <pt x="288" y="878" on="1"/>
        <pt x="244" y="878" on="1"/>
        <pt x="248" y="932" on="0"/>
        <pt x="294" y="989" on="0"/>
        <pt x="360" y="989" on="0"/>
        <pt x="458" y="942" on="0"/>
        <pt x="484" y="942" on="1"/>
        <pt x="518" y="942" on="0"/>
      </contour>
    </TTGlyph>
    <TTGlyph name="Odieresis" xMin="55" yMin="-10" xMax="757" yMax="846">
      <contour>
        <pt x="248" y="708" on="0"/>
        <pt x="564" y="708" on="0"/>
        <pt x="754" y="508" on="0"/>
        <pt x="757" y="349" on="1"/>
        <pt x="754" y="190" on="0"/>
        <pt x="564" y="-10" on="0"/>
        <pt x="248" y="-10" on="0"/>
        <pt x="58" y="190" on="0"/>
        <pt x="55" y="349" on="1"/>
        <pt x="58" y="508" on="0"/>
      </contour>
      <contour>
        <pt x="146" y="230" on="0"/>
        <pt x="285" y="75" on="0"/>
        <pt x="526" y="75" on="0"/>
        <pt x="666" y="230" on="0"/>
        <pt x="666" y="468" on="0"/>
        <pt x="526" y="623" on="0"/>
        <pt x="285" y="623" on="0"/>
        <pt x="146" y="468" on="0"/>
      </contour>
      <contour>
        <pt x="274" y="750" on="1"/>
        <pt x="274" y="846" on="1"/>
        <pt x="370" y="846" on="1"/>
        <pt x="370" y="750" on="1"/>
      </contour>
      <contour>
        <pt x="442" y="750" on="1"/>
        <pt x="442" y="846" on="1"/>
        <pt x="538" y="846" on="1"/>
        <pt x="538" y="750" on="1"/>
      </contour>
    </TTGlyph>
    <TTGlyph name="Odotbelow" xMin="55" yMin="-165" xMax="757" yMax="708">
      <contour>
        <pt x="248" y="708" on="0"/>
        <pt x="564" y="708" on="0"/>
        <pt x="754" y="508" on="0"/>
        <pt x="757" y="349" on="1"/>
        <pt x="754" y="190" on="0"/>
        <pt x="564" y="-10" on="0"/>
        <pt x="248" y="-10" on="0"/>
        <pt x="58" y="190" on="0"/>
        <pt x="55" y="349" on="1"/>
        <pt x="58" y="508" on="0"/>
      </contour>
      <contour>
        <pt x="146" y="230" on="0"/>
        <pt x="285" y="75" on="0"/>
        <pt x="526" y="75" on="0"/>
        <pt x="666" y="230" on="0"/>
        <pt x="666" y="468" on="0"/>
        <pt x="526" y="623" on="0"/>
        <pt x="285" y="623" on="0"/>
        <pt x="146" y="468" on="0"/>
      </contour>
      <contour>
        <pt x="358" y="-165" on="1"/>
        <pt x="358" y="-69" on="1"/>
        <pt x="454" y="-69" on="1"/>
        <pt x="454" y="-165" on="1"/>
      </contour>
    </TTGlyph>
    <TTGlyph name="Ograve" xMin="55" yMin="-10" xMax="757" yMax="883">
      <contour>
        <pt x="248" y="708" on="0"/>
        <pt x="564" y="708" on="0"/>
        <pt x="754" y="508" on="0"/>
        <pt x="757" y="349" on="1"/>
        <pt x="754" y="190" on="0"/>
        <pt x="564" y="-10" on="0"/>
        <pt x="248" y="-10" on="0"/>
        <pt x="58" y="190" on="0"/>
        <pt x="55" y="349" on="1"/>
        <pt x="58" y="508" on="0"/>
      </contour>
      <contour>
        <pt x="146" y="230" on="0"/>
        <pt x="285" y="75" on="0"/>
        <pt x="526" y="75" on="0"/>
        <pt x="666" y="230" on="0"/>
        <pt x="666" y="468" on="0"/>
        <pt x="526" y="623" on="0"/>
        <pt x="285" y="623" on="0"/>
        <pt x="146" y="468" on="0"/>
      </contour>
      <contour>
        <pt x="288" y="883" on="1"/>
        <pt x="387" y="883" on="1"/>
        <pt x="463" y="750" on="1"/>
        <pt x="401" y="750" on="1"/>
      </contour>
    </TTGlyph>
    <TTGlyph name="Ohookabove" xMin="55" yMin="-10" xMax="757" yMax="922">
      <contour>
        <pt x="248" y="708" on="0"/>
        <pt x="564" y="708" on="0"/>
        <pt x="754" y="508" on="0"/>
        <pt x="757" y="349" on="1"/>
        <pt x="754" y="190" on="0"/>
        <pt x="564" y="-10" on="0"/>
        <pt x="248" y="-10" on="0"/>
        <pt x="58" y="190" on="0"/>
        <pt x="55" y="349" on="1"/>
        <pt x="58" y="508" on="0"/>
      </contour>
      <contour>
        <pt x="146" y="230" on="0"/>
        <pt x="285" y="75" on="0"/>
        <pt x="526" y="75" on="0"/>
        <pt x="666" y="230" on="0"/>
        <pt x="666" y="468" on="0"/>
        <pt x="526" y="623" on="0"/>
        <pt x="285" y="623" on="0"/>
        <pt x="146" y="468" on="0"/>
      </contour>
      <contour>
        <pt x="382" y="922" on="1"/>
        <pt x="497" y="922" on="0"/>
        <pt x="497" y="843" on="1"/>
        <pt x="497" y="786" on="0"/>
        <pt x="422" y="771" on="1"/>
        <pt x="422" y="753" on="1"/>
        <pt x="368" y="753" on="1"/>
        <pt x="368" y="798" on="1"/>
        <pt x="389" y="799" on="0"/>
        <pt x="435" y="818" on="0"/>
        <pt x="435" y="838" on="1"/>
        <pt x="435" y="874" on="0"/>
        <pt x="367" y="874" on="1"/>
        <pt x="350" y="874" on="0"/>
        <pt x="341" y="873" on="1"/>
        <pt x="341" y="919" on="1"/>
        <pt x="358" y="922" on="0"/>
      </contour>
    </TTGlyph>
    <TTGlyph name="Ohorn" xMin="55" yMin="-10" xMax="867" yMax="708">
      <contour>
        <pt x="759" y="703" on="1"/>
        <pt x="867" y="703" on="1"/>
        <pt x="867" y="597" on="1"/>
        <pt x="867" y="513" on="0"/>
        <pt x="811" y="420" on="0"/>
        <pt x="752" y="404" on="1"/>
        <pt x="755" y="386" on="0"/>
        <pt x="757" y="349" on="1"/>
        <pt x="754" y="190" on="0"/>
        <pt x="564" y="-10" on="0"/>
        <pt x="248" y="-10" on="0"/>
        <pt x="58" y="190" on="0"/>
        <pt x="55" y="349" on="1"/>
        <pt x="58" y="508" on="0"/>
        <pt x="248" y="708" on="0"/>
        <pt x="406" y="708" on="1"/>
        <pt x="537" y="708" on="0"/>
        <pt x="715" y="567" on="0"/>
        <pt x="744" y="448" on="1"/>
        <pt x="784" y="460" on="0"/>
        <pt x="815" y="526" on="0"/>
        <pt x="815" y="593" on="1"/>
        <pt x="759" y="593" on="1"/>
      </contour>
      <contour>
        <pt x="146" y="230" on="0"/>
        <pt x="285" y="75" on="0"/>
        <pt x="526" y="75" on="0"/>
        <pt x="666" y="230" on="0"/>
        <pt x="666" y="468" on="0"/>
        <pt x="526" y="623" on="0"/>
        <pt x="285" y="623" on="0"/>
        <pt x="146" y="468" on="0"/>
      </contour>
    </TTGlyph>
    <TTGlyph name="Ohornacute" xMin="55" yMin="-10" xMax="867" yMax="883">
      <contour>
        <pt x="759" y="703" on="1"/>
        <pt x="867" y="703" on="1"/>
        <pt x="867" y="597" on="1"/>
        <pt x="867" y="513" on="0"/>
        <pt x="811" y="420" on="0"/>
        <pt x="752" y="404" on="1"/>
        <pt x="755" y="386" on="0"/>
        <pt x="757" y="349" on="1"/>
        <pt x="754" y="190" on="0"/>
        <pt x="564" y="-10" on="0"/>
        <pt x="248" y="-10" on="0"/>
        <pt x="58" y="190" on="0"/>
        <pt x="55" y="349" on="1"/>
        <pt x="58" y="508" on="0"/>
        <pt x="248" y="708" on="0"/>
        <pt x="406" y="708" on="1"/>
        <pt x="537" y="708" on="0"/>
        <pt x="715" y="567" on="0"/>
        <pt x="744" y="448" on="1"/>
        <pt x="784" y="460" on="0"/>
        <pt x="815" y="526" on="0"/>
        <pt x="815" y="593" on="1"/>
        <pt x="759" y="593" on="1"/>
      </contour>
      <contour>
        <pt x="146" y="230" on="0"/>
        <pt x="285" y="75" on="0"/>
        <pt x="526" y="75" on="0"/>
        <pt x="666" y="230" on="0"/>
        <pt x="666" y="468" on="0"/>
        <pt x="526" y="623" on="0"/>
        <pt x="285" y="623" on="0"/>
        <pt x="146" y="468" on="0"/>
      </contour>
      <contour>
        <pt x="425" y="883" on="1"/>
        <pt x="524" y="883" on="1"/>
        <pt x="411" y="750" on="1"/>
        <pt x="349" y="750" on="1"/>
      </contour>
    </TTGlyph>
    <TTGlyph name="Ohorndotbelow" xMin="55" yMin="-165" xMax="867" yMax="708">
      <contour>
        <pt x="759" y="703" on="1"/>
        <pt x="867" y="703" on="1"/>
        <pt x="867" y="597" on="1"/>
        <pt x="867" y="513" on="0"/>
        <pt x="811" y="420" on="0"/>
        <pt x="752" y="404" on="1"/>
        <pt x="755" y="386" on="0"/>
        <pt x="757" y="349" on="1"/>
        <pt x="754" y="190" on="0"/>
        <pt x="564" y="-10" on="0"/>
        <pt x="248" y="-10" on="0"/>
        <pt x="58" y="190" on="0"/>
        <pt x="55" y="349" on="1"/>
        <pt x="58" y="508" on="0"/>
        <pt x="248" y="708" on="0"/>
        <pt x="406" y="708" on="1"/>
        <pt x="537" y="708" on="0"/>
        <pt x="715" y="567" on="0"/>
        <pt x="744" y="448" on="1"/>
        <pt x="784" y="460" on="0"/>
        <pt x="815" y="526" on="0"/>
        <pt x="815" y="593" on="1"/>
        <pt x="759" y="593" on="1"/>
      </contour>
      <contour>
        <pt x="146" y="230" on="0"/>
        <pt x="285" y="75" on="0"/>
        <pt x="526" y="75" on="0"/>
        <pt x="666" y="230" on="0"/>
        <pt x="666" y="468" on="0"/>
        <pt x="526" y="623" on="0"/>
        <pt x="285" y="623" on="0"/>
        <pt x="146" y="468" on="0"/>
      </contour>
      <contour>
        <pt x="358" y="-165" on="1"/>
        <pt x="358" y="-69" on="1"/>
        <pt x="454" y="-69" on="1"/>
        <pt x="454" y="-165" on="1"/>
      </contour>
    </TTGlyph>
    <TTGlyph name="Ohorngrave" xMin="55" yMin="-10" xMax="867" yMax="883">
      <contour>
        <pt x="759" y="703" on="1"/>
        <pt x="867" y="703" on="1"/>
        <pt x="867" y="597" on="1"/>
        <pt x="867" y="513" on="0"/>
        <pt x="811" y="420" on="0"/>
        <pt x="752" y="404" on="1"/>
        <pt x="755" y="386" on="0"/>
        <pt x="757" y="349" on="1"/>
        <pt x="754" y="190" on="0"/>
        <pt x="564" y="-10" on="0"/>
        <pt x="248" y="-10" on="0"/>
        <pt x="58" y="190" on="0"/>
        <pt x="55" y="349" on="1"/>
        <pt x="58" y="508" on="0"/>
        <pt x="248" y="708" on="0"/>
        <pt x="406" y="708" on="1"/>
        <pt x="537" y="708" on="0"/>
        <pt x="715" y="567" on="0"/>
        <pt x="744" y="448" on="1"/>
        <pt x="784" y="460" on="0"/>
        <pt x="815" y="526" on="0"/>
        <pt x="815" y="593" on="1"/>
        <pt x="759" y="593" on="1"/>
      </contour>
      <contour>
        <pt x="146" y="230" on="0"/>
        <pt x="285" y="75" on="0"/>
        <pt x="526" y="75" on="0"/>
        <pt x="666" y="230" on="0"/>
        <pt x="666" y="468" on="0"/>
        <pt x="526" y="623" on="0"/>
        <pt x="285" y="623" on="0"/>
        <pt x="146" y="468" on="0"/>
      </contour>
      <contour>
        <pt x="288" y="883" on="1"/>
        <pt x="387" y="883" on="1"/>
        <pt x="463" y="750" on="1"/>
        <pt x="401" y="750" on="1"/>
      </contour>
    </TTGlyph>
    <TTGlyph name="Ohornhookabove" xMin="55" yMin="-10" xMax="867" yMax="922">
      <contour>
        <pt x="759" y="703" on="1"/>
        <pt x="867" y="703" on="1"/>
        <pt x="867" y="597" on="1"/>
        <pt x="867" y="513" on="0"/>
        <pt x="811" y="420" on="0"/>
        <pt x="752" y="404" on="1"/>
        <pt x="755" y="386" on="0"/>
        <pt x="757" y="349" on="1"/>
        <pt x="754" y="190" on="0"/>
        <pt x="564" y="-10" on="0"/>
        <pt x="248" y="-10" on="0"/>
        <pt x="58" y="190" on="0"/>
        <pt x="55" y="349" on="1"/>
        <pt x="58" y="508" on="0"/>
        <pt x="248" y="708" on="0"/>
        <pt x="406" y="708" on="1"/>
        <pt x="537" y="708" on="0"/>
        <pt x="715" y="567" on="0"/>
        <pt x="744" y="448" on="1"/>
        <pt x="784" y="460" on="0"/>
        <pt x="815" y="526" on="0"/>
        <pt x="815" y="593" on="1"/>
        <pt x="759" y="593" on="1"/>
      </contour>
      <contour>
        <pt x="146" y="230" on="0"/>
        <pt x="285" y="75" on="0"/>
        <pt x="526" y="75" on="0"/>
        <pt x="666" y="230" on="0"/>
        <pt x="666" y="468" on="0"/>
        <pt x="526" y="623" on="0"/>
        <pt x="285" y="623" on="0"/>
        <pt x="146" y="468" on="0"/>
      </contour>
      <contour>
        <pt x="382" y="922" on="1"/>
        <pt x="497" y="922" on="0"/>
        <pt x="497" y="843" on="1"/>
        <pt x="497" y="786" on="0"/>
        <pt x="422" y="771" on="1"/>
        <pt x="422" y="753" on="1"/>
        <pt x="368" y="753" on="1"/>
        <pt x="368" y="798" on="1"/>
        <pt x="389" y="799" on="0"/>
        <pt x="435" y="818" on="0"/>
        <pt x="435" y="838" on="1"/>
        <pt x="435" y="874" on="0"/>
        <pt x="367" y="874" on="1"/>
        <pt x="350" y="874" on="0"/>
        <pt x="341" y="873" on="1"/>
        <pt x="341" y="919" on="1"/>
        <pt x="358" y="922" on="0"/>
      </contour>
    </TTGlyph>
    <TTGlyph name="Ohorntilde" xMin="55" yMin="-10" xMax="867" yMax="861">
      <contour>
        <pt x="759" y="703" on="1"/>
        <pt x="867" y="703" on="1"/>
        <pt x="867" y="597" on="1"/>
        <pt x="867" y="513" on="0"/>
        <pt x="811" y="420" on="0"/>
        <pt x="752" y="404" on="1"/>
        <pt x="755" y="386" on="0"/>
        <pt x="757" y="349" on="1"/>
        <pt x="754" y="190" on="0"/>
        <pt x="564" y="-10" on="0"/>
        <pt x="248" y="-10" on="0"/>
        <pt x="58" y="190" on="0"/>
        <pt x="55" y="349" on="1"/>
        <pt x="58" y="508" on="0"/>
        <pt x="248" y="708" on="0"/>
        <pt x="406" y="708" on="1"/>
        <pt x="537" y="708" on="0"/>
        <pt x="715" y="567" on="0"/>
        <pt x="744" y="448" on="1"/>
        <pt x="784" y="460" on="0"/>
        <pt x="815" y="526" on="0"/>
        <pt x="815" y="593" on="1"/>
        <pt x="759" y="593" on="1"/>
      </contour>
      <contour>
        <pt x="146" y="230" on="0"/>
        <pt x="285" y="75" on="0"/>
        <pt x="526" y="75" on="0"/>
        <pt x="666" y="230" on="0"/>
        <pt x="666" y="468" on="0"/>
        <pt x="526" y="623" on="0"/>
        <pt x="285" y="623" on="0"/>
        <pt x="146" y="468" on="0"/>
      </contour>
      <contour>
        <pt x="524" y="855" on="1"/>
        <pt x="569" y="855" on="1"/>
        <pt x="565" y="801" on="0"/>
        <pt x="518" y="745" on="0"/>
        <pt x="453" y="745" on="0"/>
        <pt x="354" y="793" on="0"/>
        <pt x="329" y="793" on="1"/>
        <pt x="296" y="793" on="0"/>
        <pt x="286" y="750" on="1"/>
        <pt x="242" y="750" on="1"/>
        <pt x="246" y="804" on="0"/>
        <pt x="292" y="861" on="0"/>
        <pt x="358" y="861" on="0"/>
        <pt x="456" y="814" on="0"/>
        <pt x="482" y="814" on="1"/>
        <pt x="516" y="814" on="0"/>
      </contour>
    </TTGlyph>
    <TTGlyph name="Ohungarumlaut" xMin="55" yMin="-10" xMax="757" yMax="883">
      <contour>
        <pt x="248" y="708" on="0"/>
        <pt x="564" y="708" on="0"/>
        <pt x="754" y="508" on="0"/>
        <pt x="757" y="349" on="1"/>
        <pt x="754" y="190" on="0"/>
        <pt x="564" y="-10" on="0"/>
        <pt x="248" y="-10" on="0"/>
        <pt x="58" y="190" on="0"/>
        <pt x="55" y="349" on="1"/>
        <pt x="58" y="508" on="0"/>
      </contour>
      <contour>
        <pt x="146" y="230" on="0"/>
        <pt x="285" y="75" on="0"/>
        <pt x="526" y="75" on="0"/>
        <pt x="666" y="230" on="0"/>
        <pt x="666" y="468" on="0"/>
        <pt x="526" y="623" on="0"/>
        <pt x="285" y="623" on="0"/>
        <pt x="146" y="468" on="0"/>
      </contour>
      <contour>
        <pt x="362" y="883" on="1"/>
        <pt x="461" y="883" on="1"/>
        <pt x="348" y="750" on="1"/>
        <pt x="286" y="750" on="1"/>
      </contour>
      <contour>
        <pt x="517" y="883" on="1"/>
        <pt x="616" y="883" on="1"/>
        <pt x="502" y="750" on="1"/>
        <pt x="441" y="750" on="1"/>
      </contour>
    </TTGlyph>
    <TTGlyph name="Omacron" xMin="55" yMin="-10" xMax="757" yMax="828">
      <contour>
        <pt x="248" y="708" on="0"/>
        <pt x="564" y="708" on="0"/>
        <pt x="754" y="508" on="0"/>
        <pt x="757" y="349" on="1"/>
        <pt x="754" y="190" on="0"/>
        <pt x="564" y="-10" on="0"/>
        <pt x="248" y="-10" on="0"/>
        <pt x="58" y="190" on="0"/>
        <pt x="55" y="349" on="1"/>
        <pt x="58" y="508" on="0"/>
      </contour>
      <contour>
        <pt x="146" y="230" on="0"/>
        <pt x="285" y="75" on="0"/>
        <pt x="526" y="75" on="0"/>
        <pt x="666" y="230" on="0"/>
        <pt x="666" y="468" on="0"/>
        <pt x="526" y="623" on="0"/>
        <pt x="285" y="623" on="0"/>
        <pt x="146" y="468" on="0"/>
      </contour>
      <contour>
        <pt x="548" y="828" on="1"/>
        <pt x="548" y="768" on="1"/>
        <pt x="264" y="768" on="1"/>
        <pt x="264" y="828" on="1"/>
      </contour>
    </TTGlyph>
    <TTGlyph name="Omega" xMin="59" yMin="0" xMax="731" yMax="708">
      <contour>
        <pt x="731" y="78" on="1"/>
        <pt x="731" y="0" on="1"/>
        <pt x="468" y="0" on="1"/>
        <pt x="468" y="75" on="1"/>
        <pt x="522" y="98" on="0"/>
        <pt x="574" y="154" on="1"/>
        <pt x="603" y="186" on="0"/>
        <pt x="639" y="292" on="0"/>
        <pt x="639" y="358" on="1"/>
        <pt x="639" y="465" on="0"/>
        <pt x="506" y="617" on="0"/>
        <pt x="284" y="617" on="0"/>
        <pt x="151" y="465" on="0"/>
        <pt x="151" y="358" on="1"/>
        <pt x="151" y="292" on="0"/>
        <pt x="187" y="186" on="0"/>
        <pt x="216" y="154" on="1"/>
        <pt x="268" y="98" on="0"/>
        <pt x="322" y="75" on="1"/>
        <pt x="322" y="0" on="1"/>
        <pt x="59" y="0" on="1"/>
        <pt x="59" y="78" on="1"/>
        <pt x="193" y="78" on="1"/>
        <pt x="193" y="79" on="1"/>
        <pt x="69" y="181" on="0"/>
        <pt x="69" y="369" on="1"/>
        <pt x="69" y="452" on="0"/>
        <pt x="145" y="605" on="0"/>
        <pt x="298" y="708" on="0"/>
        <pt x="492" y="708" on="0"/>
        <pt x="645" y="605" on="0"/>
        <pt x="721" y="452" on="0"/>
        <pt x="721" y="369" on="1"/>
        <pt x="721" y="183" on="0"/>
        <pt x="597" y="79" on="1"/>
        <pt x="597" y="78" on="1"/>
      </contour>
    </TTGlyph>
    <TTGlyph name="Oslash" xMin="55" yMin="-30" xMax="757" yMax="729">
      <contour>
        <pt x="635" y="631" on="1"/>
        <pt x="754" y="531" on="0"/>
        <pt x="757" y="349" on="1"/>
        <pt x="754" y="190" on="0"/>
        <pt x="564" y="-10" on="0"/>
        <pt x="406" y="-10" on="1"/>
        <pt x="302" y="-10" on="0"/>
        <pt x="219" y="38" on="1"/>
        <pt x="171" y="-30" on="1"/>
        <pt x="130" y="-1" on="1"/>
        <pt x="178" y="67" on="1"/>
        <pt x="60" y="165" on="0"/>
        <pt x="55" y="349" on="1"/>
        <pt x="58" y="508" on="0"/>
        <pt x="248" y="708" on="0"/>
        <pt x="406" y="708" on="1"/>
        <pt x="513" y="708" on="0"/>
        <pt x="594" y="660" on="1"/>
        <pt x="642" y="729" on="1"/>
        <pt x="683" y="700" on="1"/>
      </contour>
      <contour>
        <pt x="285" y="623" on="0"/>
        <pt x="146" y="468" on="0"/>
        <pt x="146" y="217" on="0"/>
        <pt x="229" y="140" on="1"/>
        <pt x="544" y="589" on="1"/>
        <pt x="485" y="623" on="0"/>
        <pt x="406" y="623" on="1"/>
      </contour>
      <contour>
        <pt x="406" y="75" on="1"/>
        <pt x="526" y="75" on="0"/>
        <pt x="666" y="230" on="0"/>
        <pt x="666" y="482" on="0"/>
        <pt x="584" y="559" on="1"/>
        <pt x="269" y="110" on="1"/>
        <pt x="329" y="75" on="0"/>
      </contour>
    </TTGlyph>
    <TTGlyph name="Oslashacute" xMin="55" yMin="-30" xMax="757" yMax="883">
      <contour>
        <pt x="635" y="631" on="1"/>
        <pt x="754" y="531" on="0"/>
        <pt x="757" y="349" on="1"/>
        <pt x="754" y="190" on="0"/>
        <pt x="564" y="-10" on="0"/>
        <pt x="406" y="-10" on="1"/>
        <pt x="302" y="-10" on="0"/>
        <pt x="219" y="38" on="1"/>
        <pt x="171" y="-30" on="1"/>
        <pt x="130" y="-1" on="1"/>
        <pt x="178" y="67" on="1"/>
        <pt x="60" y="165" on="0"/>
        <pt x="55" y="349" on="1"/>
        <pt x="58" y="508" on="0"/>
        <pt x="248" y="708" on="0"/>
        <pt x="406" y="708" on="1"/>
        <pt x="513" y="708" on="0"/>
        <pt x="594" y="660" on="1"/>
        <pt x="642" y="729" on="1"/>
        <pt x="683" y="700" on="1"/>
      </contour>
      <contour>
        <pt x="285" y="623" on="0"/>
        <pt x="146" y="468" on="0"/>
        <pt x="146" y="217" on="0"/>
        <pt x="229" y="140" on="1"/>
        <pt x="544" y="589" on="1"/>
        <pt x="485" y="623" on="0"/>
        <pt x="406" y="623" on="1"/>
      </contour>
      <contour>
        <pt x="406" y="75" on="1"/>
        <pt x="526" y="75" on="0"/>
        <pt x="666" y="230" on="0"/>
        <pt x="666" y="482" on="0"/>
        <pt x="584" y="559" on="1"/>
        <pt x="269" y="110" on="1"/>
        <pt x="329" y="75" on="0"/>
      </contour>
      <contour>
        <pt x="425" y="883" on="1"/>
        <pt x="524" y="883" on="1"/>
        <pt x="411" y="750" on="1"/>
        <pt x="349" y="750" on="1"/>
      </contour>
    </TTGlyph>
    <TTGlyph name="Otilde" xMin="55" yMin="-10" xMax="757" yMax="861">
      <contour>
        <pt x="248" y="708" on="0"/>
        <pt x="564" y="708" on="0"/>
        <pt x="754" y="508" on="0"/>
        <pt x="757" y="349" on="1"/>
        <pt x="754" y="190" on="0"/>
        <pt x="564" y="-10" on="0"/>
        <pt x="248" y="-10" on="0"/>
        <pt x="58" y="190" on="0"/>
        <pt x="55" y="349" on="1"/>
        <pt x="58" y="508" on="0"/>
      </contour>
      <contour>
        <pt x="146" y="230" on="0"/>
        <pt x="285" y="75" on="0"/>
        <pt x="526" y="75" on="0"/>
        <pt x="666" y="230" on="0"/>
        <pt x="666" y="468" on="0"/>
        <pt x="526" y="623" on="0"/>
        <pt x="285" y="623" on="0"/>
        <pt x="146" y="468" on="0"/>
      </contour>
      <contour>
        <pt x="525" y="855" on="1"/>
        <pt x="570" y="855" on="1"/>
        <pt x="566" y="801" on="0"/>
        <pt x="519" y="745" on="0"/>
        <pt x="454" y="745" on="0"/>
        <pt x="355" y="793" on="0"/>
        <pt x="330" y="793" on="1"/>
        <pt x="297" y="793" on="0"/>
        <pt x="287" y="750" on="1"/>
        <pt x="243" y="750" on="1"/>
        <pt x="247" y="804" on="0"/>
        <pt x="294" y="861" on="0"/>
        <pt x="358" y="861" on="0"/>
        <pt x="456" y="814" on="0"/>
        <pt x="483" y="814" on="1"/>
        <pt x="517" y="814" on="0"/>
      </contour>
    </TTGlyph>
    <TTGlyph name="P" xMin="97" yMin="0" xMax="637" yMax="698">
      <contour>
        <pt x="370" y="698" on="1"/>
        <pt x="442" y="698" on="0"/>
        <pt x="550" y="659" on="0"/>
        <pt x="609" y="593" on="0"/>
        <pt x="637" y="518" on="0"/>
        <pt x="637" y="434" on="0"/>
        <pt x="609" y="359" on="0"/>
        <pt x="550" y="293" on="0"/>
        <pt x="442" y="254" on="0"/>
        <pt x="370" y="254" on="1"/>
        <pt x="188" y="254" on="1"/>
        <pt x="188" y="0" on="1"/>
        <pt x="97" y="0" on="1"/>
        <pt x="97" y="698" on="1"/>
      </contour>
      <contour>
        <pt x="361" y="340" on="1"/>
        <pt x="463" y="340" on="0"/>
        <pt x="546" y="418" on="0"/>
        <pt x="546" y="534" on="0"/>
        <pt x="463" y="612" on="0"/>
        <pt x="361" y="612" on="1"/>
        <pt x="188" y="612" on="1"/>
        <pt x="188" y="340" on="1"/>
      </contour>
    </TTGlyph>
    <TTGlyph name="Q" xMin="55" yMin="-140" xMax="757" yMax="708">
      <contour>
        <pt x="552" y="18" on="1"/>
        <pt x="552" y="15" on="1"/>
        <pt x="688" y="-137" on="1"/>
        <pt x="688" y="-140" on="1"/>
        <pt x="576" y="-140" on="1"/>
        <pt x="466" y="-6" on="1"/>
        <pt x="441" y="-10" on="0"/>
        <pt x="406" y="-10" on="1"/>
        <pt x="248" y="-10" on="0"/>
        <pt x="58" y="190" on="0"/>
        <pt x="55" y="349" on="1"/>
        <pt x="58" y="508" on="0"/>
        <pt x="248" y="708" on="0"/>
        <pt x="564" y="708" on="0"/>
        <pt x="754" y="508" on="0"/>
        <pt x="757" y="349" on="1"/>
        <pt x="755" y="232" on="0"/>
        <pt x="646" y="57" on="0"/>
      </contour>
      <contour>
        <pt x="146" y="230" on="0"/>
        <pt x="285" y="75" on="0"/>
        <pt x="526" y="75" on="0"/>
        <pt x="666" y="230" on="0"/>
        <pt x="666" y="468" on="0"/>
        <pt x="526" y="623" on="0"/>
        <pt x="285" y="623" on="0"/>
        <pt x="146" y="468" on="0"/>
      </contour>
    </TTGlyph>
    <TTGlyph name="R" xMin="97" yMin="0" xMax="653" yMax="698">
      <contour>
        <pt x="636" y="86" on="1"/>
        <pt x="636" y="62" on="1"/>
        <pt x="636" y="30" on="0"/>
        <pt x="653" y="4" on="1"/>
        <pt x="653" y="0" on="1"/>
        <pt x="559" y="0" on="1"/>
        <pt x="545" y="23" on="0"/>
        <pt x="545" y="54" on="1"/>
        <pt x="545" y="70" on="1"/>
        <pt x="545" y="162" on="0"/>
        <pt x="526" y="196" on="1"/>
        <pt x="517" y="214" on="0"/>
        <pt x="502" y="234" on="1"/>
        <pt x="471" y="272" on="0"/>
        <pt x="395" y="272" on="1"/>
        <pt x="188" y="272" on="1"/>
        <pt x="188" y="0" on="1"/>
        <pt x="97" y="0" on="1"/>
        <pt x="97" y="698" on="1"/>
        <pt x="375" y="698" on="1"/>
        <pt x="511" y="698" on="0"/>
        <pt x="647" y="586" on="0"/>
        <pt x="647" y="495" on="1"/>
        <pt x="647" y="434" on="0"/>
        <pt x="581" y="337" on="0"/>
        <pt x="518" y="315" on="1"/>
        <pt x="518" y="313" on="1"/>
        <pt x="636" y="282" on="0"/>
      </contour>
      <contour>
        <pt x="369" y="358" on="1"/>
        <pt x="455" y="358" on="0"/>
        <pt x="556" y="426" on="0"/>
        <pt x="556" y="548" on="0"/>
        <pt x="469" y="612" on="0"/>
        <pt x="364" y="612" on="1"/>
        <pt x="188" y="612" on="1"/>
        <pt x="188" y="358" on="1"/>
      </contour>
    </TTGlyph>
    <TTGlyph name="Racute" xMin="97" yMin="0" xMax="653" yMax="883">
      <contour>
        <pt x="636" y="86" on="1"/>
        <pt x="636" y="62" on="1"/>
        <pt x="636" y="30" on="0"/>
        <pt x="653" y="4" on="1"/>
        <pt x="653" y="0" on="1"/>
        <pt x="559" y="0" on="1"/>
        <pt x="545" y="23" on="0"/>
        <pt x="545" y="54" on="1"/>
        <pt x="545" y="70" on="1"/>
        <pt x="545" y="162" on="0"/>
        <pt x="526" y="196" on="1"/>
        <pt x="517" y="214" on="0"/>
        <pt x="502" y="234" on="1"/>
        <pt x="471" y="272" on="0"/>
        <pt x="395" y="272" on="1"/>
        <pt x="188" y="272" on="1"/>
        <pt x="188" y="0" on="1"/>
        <pt x="97" y="0" on="1"/>
        <pt x="97" y="698" on="1"/>
        <pt x="375" y="698" on="1"/>
        <pt x="511" y="698" on="0"/>
        <pt x="647" y="586" on="0"/>
        <pt x="647" y="495" on="1"/>
        <pt x="647" y="434" on="0"/>
        <pt x="581" y="337" on="0"/>
        <pt x="518" y="315" on="1"/>
        <pt x="518" y="313" on="1"/>
        <pt x="636" y="282" on="0"/>
      </contour>
      <contour>
        <pt x="369" y="358" on="1"/>
        <pt x="455" y="358" on="0"/>
        <pt x="556" y="426" on="0"/>
        <pt x="556" y="548" on="0"/>
        <pt x="469" y="612" on="0"/>
        <pt x="364" y="612" on="1"/>
        <pt x="188" y="612" on="1"/>
        <pt x="188" y="358" on="1"/>
      </contour>
      <contour>
        <pt x="383" y="883" on="1"/>
        <pt x="482" y="883" on="1"/>
        <pt x="369" y="750" on="1"/>
        <pt x="307" y="750" on="1"/>
      </contour>
    </TTGlyph>
    <TTGlyph name="Rcaron" xMin="97" yMin="0" xMax="653" yMax="873">
      <contour>
        <pt x="636" y="86" on="1"/>
        <pt x="636" y="62" on="1"/>
        <pt x="636" y="30" on="0"/>
        <pt x="653" y="4" on="1"/>
        <pt x="653" y="0" on="1"/>
        <pt x="559" y="0" on="1"/>
        <pt x="545" y="23" on="0"/>
        <pt x="545" y="54" on="1"/>
        <pt x="545" y="70" on="1"/>
        <pt x="545" y="162" on="0"/>
        <pt x="526" y="196" on="1"/>
        <pt x="517" y="214" on="0"/>
        <pt x="502" y="234" on="1"/>
        <pt x="471" y="272" on="0"/>
        <pt x="395" y="272" on="1"/>
        <pt x="188" y="272" on="1"/>
        <pt x="188" y="0" on="1"/>
        <pt x="97" y="0" on="1"/>
        <pt x="97" y="698" on="1"/>
        <pt x="375" y="698" on="1"/>
        <pt x="511" y="698" on="0"/>
        <pt x="647" y="586" on="0"/>
        <pt x="647" y="495" on="1"/>
        <pt x="647" y="434" on="0"/>
        <pt x="581" y="337" on="0"/>
        <pt x="518" y="315" on="1"/>
        <pt x="518" y="313" on="1"/>
        <pt x="636" y="282" on="0"/>
      </contour>
      <contour>
        <pt x="369" y="358" on="1"/>
        <pt x="455" y="358" on="0"/>
        <pt x="556" y="426" on="0"/>
        <pt x="556" y="548" on="0"/>
        <pt x="469" y="612" on="0"/>
        <pt x="364" y="612" on="1"/>
        <pt x="188" y="612" on="1"/>
        <pt x="188" y="358" on="1"/>
      </contour>
      <contour>
        <pt x="516" y="873" on="1"/>
        <pt x="403" y="750" on="1"/>
        <pt x="321" y="750" on="1"/>
        <pt x="208" y="873" on="1"/>
        <pt x="287" y="873" on="1"/>
        <pt x="362" y="800" on="1"/>
        <pt x="437" y="873" on="1"/>
      </contour>
    </TTGlyph>
    <TTGlyph name="Rcommaaccent" xMin="97" yMin="-283" xMax="653" yMax="698">
      <contour>
        <pt x="636" y="86" on="1"/>
        <pt x="636" y="62" on="1"/>
        <pt x="636" y="30" on="0"/>
        <pt x="653" y="4" on="1"/>
        <pt x="653" y="0" on="1"/>
        <pt x="559" y="0" on="1"/>
        <pt x="545" y="23" on="0"/>
        <pt x="545" y="54" on="1"/>
        <pt x="545" y="70" on="1"/>
        <pt x="545" y="162" on="0"/>
        <pt x="526" y="196" on="1"/>
        <pt x="517" y="214" on="0"/>
        <pt x="502" y="234" on="1"/>
        <pt x="471" y="272" on="0"/>
        <pt x="395" y="272" on="1"/>
        <pt x="188" y="272" on="1"/>
        <pt x="188" y="0" on="1"/>
        <pt x="97" y="0" on="1"/>
        <pt x="97" y="698" on="1"/>
        <pt x="375" y="698" on="1"/>
        <pt x="511" y="698" on="0"/>
        <pt x="647" y="586" on="0"/>
        <pt x="647" y="495" on="1"/>
        <pt x="647" y="434" on="0"/>
        <pt x="581" y="337" on="0"/>
        <pt x="518" y="315" on="1"/>
        <pt x="518" y="313" on="1"/>
        <pt x="636" y="282" on="0"/>
      </contour>
      <contour>
        <pt x="369" y="358" on="1"/>
        <pt x="455" y="358" on="0"/>
        <pt x="556" y="426" on="0"/>
        <pt x="556" y="548" on="0"/>
        <pt x="469" y="612" on="0"/>
        <pt x="364" y="612" on="1"/>
        <pt x="188" y="612" on="1"/>
        <pt x="188" y="358" on="1"/>
      </contour>
      <contour>
        <pt x="314" y="-53" on="1"/>
        <pt x="409" y="-53" on="1"/>
        <pt x="409" y="-147" on="1"/>
        <pt x="409" y="-242" on="0"/>
        <pt x="314" y="-283" on="1"/>
        <pt x="314" y="-228" on="1"/>
        <pt x="361" y="-203" on="0"/>
        <pt x="361" y="-147" on="1"/>
        <pt x="314" y="-147" on="1"/>
      </contour>
    </TTGlyph>
    <TTGlyph name="S" xMin="58" yMin="-10" xMax="573" yMax="708">
      <contour>
        <pt x="148" y="510" on="1"/>
        <pt x="148" y="470" on="0"/>
        <pt x="211" y="418" on="0"/>
        <pt x="305" y="397" on="0"/>
        <pt x="416" y="366" on="0"/>
        <pt x="510" y="330" on="0"/>
        <pt x="573" y="247" on="0"/>
        <pt x="573" y="185" on="1"/>
        <pt x="573" y="99" on="0"/>
        <pt x="432" y="-10" on="0"/>
        <pt x="180" y="-10" on="0"/>
        <pt x="66" y="44" on="1"/>
        <pt x="66" y="133" on="1"/>
        <pt x="71" y="133" on="1"/>
        <pt x="175" y="75" on="0"/>
        <pt x="308" y="75" on="1"/>
        <pt x="483" y="75" on="0"/>
        <pt x="483" y="191" on="1"/>
        <pt x="483" y="248" on="0"/>
        <pt x="398" y="275" on="1"/>
        <pt x="361" y="287" on="0"/>
        <pt x="271" y="309" on="0"/>
        <pt x="180" y="339" on="0"/>
        <pt x="105" y="380" on="0"/>
        <pt x="58" y="453" on="0"/>
        <pt x="58" y="503" on="1"/>
        <pt x="58" y="590" on="0"/>
        <pt x="195" y="708" on="0"/>
        <pt x="428" y="708" on="0"/>
        <pt x="522" y="672" on="1"/>
        <pt x="522" y="587" on="1"/>
        <pt x="515" y="587" on="1"/>
        <pt x="421" y="625" on="0"/>
        <pt x="248" y="625" on="0"/>
        <pt x="148" y="564" on="0"/>
      </contour>
    </TTGlyph>
    <TTGlyph name="Sacute" xMin="58" yMin="-10" xMax="573" yMax="883">
      <contour>
        <pt x="148" y="510" on="1"/>
        <pt x="148" y="470" on="0"/>
        <pt x="211" y="418" on="0"/>
        <pt x="305" y="397" on="0"/>
        <pt x="416" y="366" on="0"/>
        <pt x="510" y="330" on="0"/>
        <pt x="573" y="247" on="0"/>
        <pt x="573" y="185" on="1"/>
        <pt x="573" y="99" on="0"/>
        <pt x="432" y="-10" on="0"/>
        <pt x="180" y="-10" on="0"/>
        <pt x="66" y="44" on="1"/>
        <pt x="66" y="133" on="1"/>
        <pt x="71" y="133" on="1"/>
        <pt x="175" y="75" on="0"/>
        <pt x="308" y="75" on="1"/>
        <pt x="483" y="75" on="0"/>
        <pt x="483" y="191" on="1"/>
        <pt x="483" y="248" on="0"/>
        <pt x="398" y="275" on="1"/>
        <pt x="361" y="287" on="0"/>
        <pt x="271" y="309" on="0"/>
        <pt x="180" y="339" on="0"/>
        <pt x="105" y="380" on="0"/>
        <pt x="58" y="453" on="0"/>
        <pt x="58" y="503" on="1"/>
        <pt x="58" y="590" on="0"/>
        <pt x="195" y="708" on="0"/>
        <pt x="428" y="708" on="0"/>
        <pt x="522" y="672" on="1"/>
        <pt x="522" y="587" on="1"/>
        <pt x="515" y="587" on="1"/>
        <pt x="421" y="625" on="0"/>
        <pt x="248" y="625" on="0"/>
        <pt x="148" y="564" on="0"/>
      </contour>
      <contour>
        <pt x="334" y="883" on="1"/>
        <pt x="433" y="883" on="1"/>
        <pt x="320" y="750" on="1"/>
        <pt x="258" y="750" on="1"/>
      </contour>
    </TTGlyph>
    <TTGlyph name="Scaron" xMin="58" yMin="-10" xMax="573" yMax="873">
      <contour>
        <pt x="148" y="510" on="1"/>
        <pt x="148" y="470" on="0"/>
        <pt x="211" y="418" on="0"/>
        <pt x="305" y="397" on="0"/>
        <pt x="416" y="366" on="0"/>
        <pt x="510" y="330" on="0"/>
        <pt x="573" y="247" on="0"/>
        <pt x="573" y="185" on="1"/>
        <pt x="573" y="99" on="0"/>
        <pt x="432" y="-10" on="0"/>
        <pt x="180" y="-10" on="0"/>
        <pt x="66" y="44" on="1"/>
        <pt x="66" y="133" on="1"/>
        <pt x="71" y="133" on="1"/>
        <pt x="175" y="75" on="0"/>
        <pt x="308" y="75" on="1"/>
        <pt x="483" y="75" on="0"/>
        <pt x="483" y="191" on="1"/>
        <pt x="483" y="248" on="0"/>
        <pt x="398" y="275" on="1"/>
        <pt x="361" y="287" on="0"/>
        <pt x="271" y="309" on="0"/>
        <pt x="180" y="339" on="0"/>
        <pt x="105" y="380" on="0"/>
        <pt x="58" y="453" on="0"/>
        <pt x="58" y="503" on="1"/>
        <pt x="58" y="590" on="0"/>
        <pt x="195" y="708" on="0"/>
        <pt x="428" y="708" on="0"/>
        <pt x="522" y="672" on="1"/>
        <pt x="522" y="587" on="1"/>
        <pt x="515" y="587" on="1"/>
        <pt x="421" y="625" on="0"/>
        <pt x="248" y="625" on="0"/>
        <pt x="148" y="564" on="0"/>
      </contour>
      <contour>
        <pt x="469" y="873" on="1"/>
        <pt x="356" y="750" on="1"/>
        <pt x="274" y="750" on="1"/>
        <pt x="161" y="873" on="1"/>
        <pt x="240" y="873" on="1"/>
        <pt x="315" y="800" on="1"/>
        <pt x="390" y="873" on="1"/>
      </contour>
    </TTGlyph>
    <TTGlyph name="Scedilla" xMin="58" yMin="-221" xMax="573" yMax="708">
      <contour>
        <pt x="302" y="-63" on="1"/>
        <pt x="318" y="-59" on="0"/>
        <pt x="370" y="-59" on="0"/>
        <pt x="413" y="-98" on="0"/>
        <pt x="413" y="-129" on="1"/>
        <pt x="413" y="-221" on="0"/>
        <pt x="302" y="-221" on="1"/>
        <pt x="250" y="-221" on="0"/>
        <pt x="204" y="-190" on="1"/>
        <pt x="220" y="-155" on="1"/>
        <pt x="257" y="-178" on="0"/>
        <pt x="289" y="-178" on="1"/>
        <pt x="346" y="-178" on="0"/>
        <pt x="346" y="-132" on="1"/>
        <pt x="346" y="-117" on="0"/>
        <pt x="326" y="-101" on="0"/>
        <pt x="287" y="-101" on="0"/>
        <pt x="264" y="-113" on="1"/>
        <pt x="235" y="-97" on="1"/>
        <pt x="289" y="-10" on="1"/>
        <pt x="163" y="-5" on="0"/>
        <pt x="66" y="44" on="1"/>
        <pt x="66" y="133" on="1"/>
        <pt x="71" y="133" on="1"/>
        <pt x="175" y="75" on="0"/>
        <pt x="308" y="75" on="1"/>
        <pt x="483" y="75" on="0"/>
        <pt x="483" y="191" on="1"/>
        <pt x="483" y="248" on="0"/>
        <pt x="398" y="275" on="1"/>
        <pt x="361" y="287" on="0"/>
        <pt x="271" y="309" on="0"/>
        <pt x="180" y="339" on="0"/>
        <pt x="105" y="380" on="0"/>
        <pt x="58" y="453" on="0"/>
        <pt x="58" y="503" on="1"/>
        <pt x="58" y="590" on="0"/>
        <pt x="195" y="708" on="0"/>
        <pt x="428" y="708" on="0"/>
        <pt x="522" y="672" on="1"/>
        <pt x="522" y="587" on="1"/>
        <pt x="515" y="587" on="1"/>
        <pt x="421" y="625" on="0"/>
        <pt x="248" y="625" on="0"/>
        <pt x="148" y="564" on="0"/>
        <pt x="148" y="510" on="1"/>
        <pt x="148" y="470" on="0"/>
        <pt x="211" y="418" on="0"/>
        <pt x="305" y="397" on="0"/>
        <pt x="416" y="366" on="0"/>
        <pt x="510" y="330" on="0"/>
        <pt x="573" y="247" on="0"/>
        <pt x="573" y="185" on="1"/>
        <pt x="573" y="103" on="0"/>
        <pt x="441" y="-6" on="0"/>
        <pt x="332" y="-10" on="1"/>
      </contour>
    </TTGlyph>
    <TTGlyph name="Scircumflex" xMin="58" yMin="-10" xMax="573" yMax="873">
      <contour>
        <pt x="148" y="510" on="1"/>
        <pt x="148" y="470" on="0"/>
        <pt x="211" y="418" on="0"/>
        <pt x="305" y="397" on="0"/>
        <pt x="416" y="366" on="0"/>
        <pt x="510" y="330" on="0"/>
        <pt x="573" y="247" on="0"/>
        <pt x="573" y="185" on="1"/>
        <pt x="573" y="99" on="0"/>
        <pt x="432" y="-10" on="0"/>
        <pt x="180" y="-10" on="0"/>
        <pt x="66" y="44" on="1"/>
        <pt x="66" y="133" on="1"/>
        <pt x="71" y="133" on="1"/>
        <pt x="175" y="75" on="0"/>
        <pt x="308" y="75" on="1"/>
        <pt x="483" y="75" on="0"/>
        <pt x="483" y="191" on="1"/>
        <pt x="483" y="248" on="0"/>
        <pt x="398" y="275" on="1"/>
        <pt x="361" y="287" on="0"/>
        <pt x="271" y="309" on="0"/>
        <pt x="180" y="339" on="0"/>
        <pt x="105" y="380" on="0"/>
        <pt x="58" y="453" on="0"/>
        <pt x="58" y="503" on="1"/>
        <pt x="58" y="590" on="0"/>
        <pt x="195" y="708" on="0"/>
        <pt x="428" y="708" on="0"/>
        <pt x="522" y="672" on="1"/>
        <pt x="522" y="587" on="1"/>
        <pt x="515" y="587" on="1"/>
        <pt x="421" y="625" on="0"/>
        <pt x="248" y="625" on="0"/>
        <pt x="148" y="564" on="0"/>
      </contour>
      <contour>
        <pt x="354" y="873" on="1"/>
        <pt x="467" y="750" on="1"/>
        <pt x="388" y="750" on="1"/>
        <pt x="313" y="823" on="1"/>
        <pt x="238" y="750" on="1"/>
        <pt x="159" y="750" on="1"/>
        <pt x="272" y="873" on="1"/>
      </contour>
    </TTGlyph>
    <TTGlyph name="Scommaaccent" xMin="58" yMin="-283" xMax="573" yMax="708">
      <contour>
        <pt x="148" y="510" on="1"/>
        <pt x="148" y="470" on="0"/>
        <pt x="211" y="418" on="0"/>
        <pt x="305" y="397" on="0"/>
        <pt x="416" y="366" on="0"/>
        <pt x="510" y="330" on="0"/>
        <pt x="573" y="247" on="0"/>
        <pt x="573" y="185" on="1"/>
        <pt x="573" y="99" on="0"/>
        <pt x="432" y="-10" on="0"/>
        <pt x="180" y="-10" on="0"/>
        <pt x="66" y="44" on="1"/>
        <pt x="66" y="133" on="1"/>
        <pt x="71" y="133" on="1"/>
        <pt x="175" y="75" on="0"/>
        <pt x="308" y="75" on="1"/>
        <pt x="483" y="75" on="0"/>
        <pt x="483" y="191" on="1"/>
        <pt x="483" y="248" on="0"/>
        <pt x="398" y="275" on="1"/>
        <pt x="361" y="287" on="0"/>
        <pt x="271" y="309" on="0"/>
        <pt x="180" y="339" on="0"/>
        <pt x="105" y="380" on="0"/>
        <pt x="58" y="453" on="0"/>
        <pt x="58" y="503" on="1"/>
        <pt x="58" y="590" on="0"/>
        <pt x="195" y="708" on="0"/>
        <pt x="428" y="708" on="0"/>
        <pt x="522" y="672" on="1"/>
        <pt x="522" y="587" on="1"/>
        <pt x="515" y="587" on="1"/>
        <pt x="421" y="625" on="0"/>
        <pt x="248" y="625" on="0"/>
        <pt x="148" y="564" on="0"/>
      </contour>
      <contour>
        <pt x="267" y="-53" on="1"/>
        <pt x="362" y="-53" on="1"/>
        <pt x="362" y="-147" on="1"/>
        <pt x="362" y="-242" on="0"/>
        <pt x="267" y="-283" on="1"/>
        <pt x="267" y="-228" on="1"/>
        <pt x="314" y="-203" on="0"/>
        <pt x="314" y="-147" on="1"/>
        <pt x="267" y="-147" on="1"/>
      </contour>
    </TTGlyph>
    <TTGlyph name="T" xMin="19" yMin="0" xMax="592" yMax="698">
      <contour>
        <pt x="592" y="698" on="1"/>
        <pt x="592" y="613" on="1"/>
        <pt x="351" y="613" on="1"/>
        <pt x="351" y="0" on="1"/>
        <pt x="260" y="0" on="1"/>
        <pt x="260" y="613" on="1"/>
        <pt x="19" y="613" on="1"/>
        <pt x="19" y="698" on="1"/>
      </contour>
    </TTGlyph>
    <TTGlyph name="Tbar" xMin="20" yMin="0" xMax="593" yMax="698">
      <contour>
        <pt x="593" y="613" on="1"/>
        <pt x="352" y="613" on="1"/>
        <pt x="352" y="403" on="1"/>
        <pt x="513" y="403" on="1"/>
        <pt x="513" y="336" on="1"/>
        <pt x="352" y="336" on="1"/>
        <pt x="352" y="0" on="1"/>
        <pt x="261" y="0" on="1"/>
        <pt x="261" y="336" on="1"/>
        <pt x="101" y="336" on="1"/>
        <pt x="101" y="403" on="1"/>
        <pt x="261" y="403" on="1"/>
        <pt x="261" y="613" on="1"/>
        <pt x="20" y="613" on="1"/>
        <pt x="20" y="698" on="1"/>
        <pt x="593" y="698" on="1"/>
      </contour>
    </TTGlyph>
    <TTGlyph name="Tcaron" xMin="19" yMin="0" xMax="592" yMax="873">
      <contour>
        <pt x="592" y="698" on="1"/>
        <pt x="592" y="613" on="1"/>
        <pt x="351" y="613" on="1"/>
        <pt x="351" y="0" on="1"/>
        <pt x="260" y="0" on="1"/>
        <pt x="260" y="613" on="1"/>
        <pt x="19" y="613" on="1"/>
        <pt x="19" y="698" on="1"/>
      </contour>
      <contour>
        <pt x="459" y="873" on="1"/>
        <pt x="346" y="750" on="1"/>
        <pt x="264" y="750" on="1"/>
        <pt x="151" y="873" on="1"/>
        <pt x="230" y="873" on="1"/>
        <pt x="305" y="800" on="1"/>
        <pt x="380" y="873" on="1"/>
      </contour>
    </TTGlyph>
    <TTGlyph name="Tcommaaccent" xMin="18" yMin="-283" xMax="591" yMax="698">
      <contour>
        <pt x="591" y="698" on="1"/>
        <pt x="591" y="613" on="1"/>
        <pt x="350" y="613" on="1"/>
        <pt x="350" y="0" on="1"/>
        <pt x="259" y="0" on="1"/>
        <pt x="259" y="613" on="1"/>
        <pt x="18" y="613" on="1"/>
        <pt x="18" y="698" on="1"/>
      </contour>
      <contour>
        <pt x="257" y="-53" on="1"/>
        <pt x="352" y="-53" on="1"/>
        <pt x="352" y="-147" on="1"/>
        <pt x="352" y="-242" on="0"/>
        <pt x="257" y="-283" on="1"/>
        <pt x="257" y="-228" on="1"/>
        <pt x="304" y="-203" on="0"/>
        <pt x="304" y="-147" on="1"/>
        <pt x="257" y="-147" on="1"/>
      </contour>
    </TTGlyph>
    <TTGlyph name="Thorn" xMin="97" yMin="0" xMax="637" yMax="698">
      <contour>
        <pt x="370" y="586" on="1"/>
        <pt x="442" y="586" on="0"/>
        <pt x="550" y="547" on="0"/>
        <pt x="609" y="481" on="0"/>
        <pt x="637" y="406" on="0"/>
        <pt x="637" y="322" on="0"/>
        <pt x="609" y="247" on="0"/>
        <pt x="550" y="181" on="0"/>
        <pt x="442" y="142" on="0"/>
        <pt x="370" y="142" on="1"/>
        <pt x="188" y="142" on="1"/>
        <pt x="188" y="0" on="1"/>
        <pt x="97" y="0" on="1"/>
        <pt x="97" y="698" on="1"/>
        <pt x="188" y="698" on="1"/>
        <pt x="188" y="586" on="1"/>
      </contour>
      <contour>
        <pt x="361" y="228" on="1"/>
        <pt x="463" y="228" on="0"/>
        <pt x="546" y="306" on="0"/>
        <pt x="546" y="422" on="0"/>
        <pt x="463" y="500" on="0"/>
        <pt x="361" y="500" on="1"/>
        <pt x="188" y="500" on="1"/>
        <pt x="188" y="228" on="1"/>
      </contour>
    </TTGlyph>
    <TTGlyph name="U" xMin="92" yMin="-10" xMax="666" yMax="698">
      <contour>
        <pt x="575" y="698" on="1"/>
        <pt x="666" y="698" on="1"/>
        <pt x="666" y="262" on="1"/>
        <pt x="666" y="194" on="0"/>
        <pt x="615" y="87" on="0"/>
        <pt x="530" y="23" on="0"/>
        <pt x="431" y="-10" on="0"/>
        <pt x="327" y="-10" on="0"/>
        <pt x="228" y="23" on="0"/>
        <pt x="143" y="87" on="0"/>
        <pt x="92" y="194" on="0"/>
        <pt x="92" y="262" on="1"/>
        <pt x="92" y="698" on="1"/>
        <pt x="183" y="698" on="1"/>
        <pt x="183" y="259" on="1"/>
        <pt x="183" y="171" on="0"/>
        <pt x="299" y="73" on="0"/>
        <pt x="459" y="73" on="0"/>
        <pt x="575" y="171" on="0"/>
        <pt x="575" y="259" on="1"/>
      </contour>
    </TTGlyph>
    <TTGlyph name="Uacute" xMin="92" yMin="-10" xMax="666" yMax="883">
      <contour>
        <pt x="575" y="698" on="1"/>
        <pt x="666" y="698" on="1"/>
        <pt x="666" y="262" on="1"/>
        <pt x="666" y="194" on="0"/>
        <pt x="615" y="87" on="0"/>
        <pt x="530" y="23" on="0"/>
        <pt x="431" y="-10" on="0"/>
        <pt x="327" y="-10" on="0"/>
        <pt x="228" y="23" on="0"/>
        <pt x="143" y="87" on="0"/>
        <pt x="92" y="194" on="0"/>
        <pt x="92" y="262" on="1"/>
        <pt x="92" y="698" on="1"/>
        <pt x="183" y="698" on="1"/>
        <pt x="183" y="259" on="1"/>
        <pt x="183" y="171" on="0"/>
        <pt x="299" y="73" on="0"/>
        <pt x="459" y="73" on="0"/>
        <pt x="575" y="171" on="0"/>
        <pt x="575" y="259" on="1"/>
      </contour>
      <contour>
        <pt x="392" y="883" on="1"/>
        <pt x="491" y="883" on="1"/>
        <pt x="378" y="750" on="1"/>
        <pt x="316" y="750" on="1"/>
      </contour>
    </TTGlyph>
    <TTGlyph name="Ubreve" xMin="92" yMin="-10" xMax="666" yMax="864">
      <contour>
        <pt x="575" y="698" on="1"/>
        <pt x="666" y="698" on="1"/>
        <pt x="666" y="262" on="1"/>
        <pt x="666" y="194" on="0"/>
        <pt x="615" y="87" on="0"/>
        <pt x="530" y="23" on="0"/>
        <pt x="431" y="-10" on="0"/>
        <pt x="327" y="-10" on="0"/>
        <pt x="228" y="23" on="0"/>
        <pt x="143" y="87" on="0"/>
        <pt x="92" y="194" on="0"/>
        <pt x="92" y="262" on="1"/>
        <pt x="92" y="698" on="1"/>
        <pt x="183" y="698" on="1"/>
        <pt x="183" y="259" on="1"/>
        <pt x="183" y="171" on="0"/>
        <pt x="299" y="73" on="0"/>
        <pt x="459" y="73" on="0"/>
        <pt x="575" y="171" on="0"/>
        <pt x="575" y="259" on="1"/>
      </contour>
      <contour>
        <pt x="462" y="864" on="1"/>
        <pt x="526" y="864" on="1"/>
        <pt x="516" y="811" on="0"/>
        <pt x="437" y="748" on="0"/>
        <pt x="321" y="748" on="0"/>
        <pt x="242" y="811" on="0"/>
        <pt x="232" y="864" on="1"/>
        <pt x="296" y="864" on="1"/>
        <pt x="316" y="806" on="0"/>
        <pt x="442" y="806" on="0"/>
      </contour>
    </TTGlyph>
    <TTGlyph name="Ucircumflex" xMin="92" yMin="-10" xMax="666" yMax="873">
      <contour>
        <pt x="575" y="698" on="1"/>
        <pt x="666" y="698" on="1"/>
        <pt x="666" y="262" on="1"/>
        <pt x="666" y="194" on="0"/>
        <pt x="615" y="87" on="0"/>
        <pt x="530" y="23" on="0"/>
        <pt x="431" y="-10" on="0"/>
        <pt x="327" y="-10" on="0"/>
        <pt x="228" y="23" on="0"/>
        <pt x="143" y="87" on="0"/>
        <pt x="92" y="194" on="0"/>
        <pt x="92" y="262" on="1"/>
        <pt x="92" y="698" on="1"/>
        <pt x="183" y="698" on="1"/>
        <pt x="183" y="259" on="1"/>
        <pt x="183" y="171" on="0"/>
        <pt x="299" y="73" on="0"/>
        <pt x="459" y="73" on="0"/>
        <pt x="575" y="171" on="0"/>
        <pt x="575" y="259" on="1"/>
      </contour>
      <contour>
        <pt x="420" y="873" on="1"/>
        <pt x="533" y="750" on="1"/>
        <pt x="454" y="750" on="1"/>
        <pt x="379" y="823" on="1"/>
        <pt x="304" y="750" on="1"/>
        <pt x="225" y="750" on="1"/>
        <pt x="338" y="873" on="1"/>
      </contour>
    </TTGlyph>
    <TTGlyph name="Udieresis" xMin="92" yMin="-10" xMax="666" yMax="846">
      <contour>
        <pt x="575" y="698" on="1"/>
        <pt x="666" y="698" on="1"/>
        <pt x="666" y="262" on="1"/>
        <pt x="666" y="194" on="0"/>
        <pt x="615" y="87" on="0"/>
        <pt x="530" y="23" on="0"/>
        <pt x="431" y="-10" on="0"/>
        <pt x="327" y="-10" on="0"/>
        <pt x="228" y="23" on="0"/>
        <pt x="143" y="87" on="0"/>
        <pt x="92" y="194" on="0"/>
        <pt x="92" y="262" on="1"/>
        <pt x="92" y="698" on="1"/>
        <pt x="183" y="698" on="1"/>
        <pt x="183" y="259" on="1"/>
        <pt x="183" y="171" on="0"/>
        <pt x="299" y="73" on="0"/>
        <pt x="459" y="73" on="0"/>
        <pt x="575" y="171" on="0"/>
        <pt x="575" y="259" on="1"/>
      </contour>
      <contour>
        <pt x="247" y="750" on="1"/>
        <pt x="247" y="846" on="1"/>
        <pt x="343" y="846" on="1"/>
        <pt x="343" y="750" on="1"/>
      </contour>
      <contour>
        <pt x="415" y="750" on="1"/>
        <pt x="415" y="846" on="1"/>
        <pt x="511" y="846" on="1"/>
        <pt x="511" y="750" on="1"/>
      </contour>
    </TTGlyph>
    <TTGlyph name="Udotbelow" xMin="92" yMin="-165" xMax="666" yMax="698">
      <contour>
        <pt x="575" y="698" on="1"/>
        <pt x="666" y="698" on="1"/>
        <pt x="666" y="262" on="1"/>
        <pt x="666" y="194" on="0"/>
        <pt x="615" y="87" on="0"/>
        <pt x="530" y="23" on="0"/>
        <pt x="431" y="-10" on="0"/>
        <pt x="327" y="-10" on="0"/>
        <pt x="228" y="23" on="0"/>
        <pt x="143" y="87" on="0"/>
        <pt x="92" y="194" on="0"/>
        <pt x="92" y="262" on="1"/>
        <pt x="92" y="698" on="1"/>
        <pt x="183" y="698" on="1"/>
        <pt x="183" y="259" on="1"/>
        <pt x="183" y="171" on="0"/>
        <pt x="299" y="73" on="0"/>
        <pt x="459" y="73" on="0"/>
        <pt x="575" y="171" on="0"/>
        <pt x="575" y="259" on="1"/>
      </contour>
      <contour>
        <pt x="331" y="-165" on="1"/>
        <pt x="331" y="-69" on="1"/>
        <pt x="427" y="-69" on="1"/>
        <pt x="427" y="-165" on="1"/>
      </contour>
    </TTGlyph>
    <TTGlyph name="Ugrave" xMin="92" yMin="-10" xMax="666" yMax="883">
      <contour>
        <pt x="575" y="698" on="1"/>
        <pt x="666" y="698" on="1"/>
        <pt x="666" y="262" on="1"/>
        <pt x="666" y="194" on="0"/>
        <pt x="615" y="87" on="0"/>
        <pt x="530" y="23" on="0"/>
        <pt x="431" y="-10" on="0"/>
        <pt x="327" y="-10" on="0"/>
        <pt x="228" y="23" on="0"/>
        <pt x="143" y="87" on="0"/>
        <pt x="92" y="194" on="0"/>
        <pt x="92" y="262" on="1"/>
        <pt x="92" y="698" on="1"/>
        <pt x="183" y="698" on="1"/>
        <pt x="183" y="259" on="1"/>
        <pt x="183" y="171" on="0"/>
        <pt x="299" y="73" on="0"/>
        <pt x="459" y="73" on="0"/>
        <pt x="575" y="171" on="0"/>
        <pt x="575" y="259" on="1"/>
      </contour>
      <contour>
        <pt x="267" y="883" on="1"/>
        <pt x="366" y="883" on="1"/>
        <pt x="442" y="750" on="1"/>
        <pt x="380" y="750" on="1"/>
      </contour>
    </TTGlyph>
    <TTGlyph name="Uhookabove" xMin="92" yMin="-10" xMax="666" yMax="922">
      <contour>
        <pt x="575" y="698" on="1"/>
        <pt x="666" y="698" on="1"/>
        <pt x="666" y="262" on="1"/>
        <pt x="666" y="194" on="0"/>
        <pt x="615" y="87" on="0"/>
        <pt x="530" y="23" on="0"/>
        <pt x="431" y="-10" on="0"/>
        <pt x="327" y="-10" on="0"/>
        <pt x="228" y="23" on="0"/>
        <pt x="143" y="87" on="0"/>
        <pt x="92" y="194" on="0"/>
        <pt x="92" y="262" on="1"/>
        <pt x="92" y="698" on="1"/>
        <pt x="183" y="698" on="1"/>
        <pt x="183" y="259" on="1"/>
        <pt x="183" y="171" on="0"/>
        <pt x="299" y="73" on="0"/>
        <pt x="459" y="73" on="0"/>
        <pt x="575" y="171" on="0"/>
        <pt x="575" y="259" on="1"/>
      </contour>
      <contour>
        <pt x="352" y="922" on="1"/>
        <pt x="467" y="922" on="0"/>
        <pt x="467" y="843" on="1"/>
        <pt x="467" y="786" on="0"/>
        <pt x="392" y="771" on="1"/>
        <pt x="392" y="753" on="1"/>
        <pt x="338" y="753" on="1"/>
        <pt x="338" y="798" on="1"/>
        <pt x="359" y="799" on="0"/>
        <pt x="405" y="818" on="0"/>
        <pt x="405" y="838" on="1"/>
        <pt x="405" y="874" on="0"/>
        <pt x="337" y="874" on="1"/>
        <pt x="320" y="874" on="0"/>
        <pt x="311" y="873" on="1"/>
        <pt x="311" y="919" on="1"/>
        <pt x="328" y="922" on="0"/>
      </contour>
    </TTGlyph>
    <TTGlyph name="Uhorn" xMin="92" yMin="-10" xMax="843" yMax="698">
      <contour>
        <pt x="575" y="698" on="1"/>
        <pt x="666" y="698" on="1"/>
        <pt x="666" y="442" on="1"/>
        <pt x="739" y="444" on="0"/>
        <pt x="791" y="505" on="0"/>
        <pt x="791" y="588" on="1"/>
        <pt x="735" y="588" on="1"/>
        <pt x="735" y="698" on="1"/>
        <pt x="843" y="698" on="1"/>
        <pt x="843" y="592" on="1"/>
        <pt x="843" y="490" on="0"/>
        <pt x="759" y="401" on="0"/>
        <pt x="666" y="398" on="1"/>
        <pt x="666" y="262" on="1"/>
        <pt x="666" y="194" on="0"/>
        <pt x="615" y="87" on="0"/>
        <pt x="530" y="23" on="0"/>
        <pt x="431" y="-10" on="0"/>
        <pt x="327" y="-10" on="0"/>
        <pt x="228" y="23" on="0"/>
        <pt x="143" y="87" on="0"/>
        <pt x="92" y="194" on="0"/>
        <pt x="92" y="262" on="1"/>
        <pt x="92" y="698" on="1"/>
        <pt x="183" y="698" on="1"/>
        <pt x="183" y="259" on="1"/>
        <pt x="183" y="171" on="0"/>
        <pt x="299" y="73" on="0"/>
        <pt x="459" y="73" on="0"/>
        <pt x="575" y="171" on="0"/>
        <pt x="575" y="259" on="1"/>
      </contour>
    </TTGlyph>
    <TTGlyph name="Uhornacute" xMin="92" yMin="-10" xMax="843" yMax="883">
      <contour>
        <pt x="575" y="698" on="1"/>
        <pt x="666" y="698" on="1"/>
        <pt x="666" y="442" on="1"/>
        <pt x="739" y="444" on="0"/>
        <pt x="791" y="505" on="0"/>
        <pt x="791" y="588" on="1"/>
        <pt x="735" y="588" on="1"/>
        <pt x="735" y="698" on="1"/>
        <pt x="843" y="698" on="1"/>
        <pt x="843" y="592" on="1"/>
        <pt x="843" y="490" on="0"/>
        <pt x="759" y="401" on="0"/>
        <pt x="666" y="398" on="1"/>
        <pt x="666" y="262" on="1"/>
        <pt x="666" y="194" on="0"/>
        <pt x="615" y="87" on="0"/>
        <pt x="530" y="23" on="0"/>
        <pt x="431" y="-10" on="0"/>
        <pt x="327" y="-10" on="0"/>
        <pt x="228" y="23" on="0"/>
        <pt x="143" y="87" on="0"/>
        <pt x="92" y="194" on="0"/>
        <pt x="92" y="262" on="1"/>
        <pt x="92" y="698" on="1"/>
        <pt x="183" y="698" on="1"/>
        <pt x="183" y="259" on="1"/>
        <pt x="183" y="171" on="0"/>
        <pt x="299" y="73" on="0"/>
        <pt x="459" y="73" on="0"/>
        <pt x="575" y="171" on="0"/>
        <pt x="575" y="259" on="1"/>
      </contour>
      <contour>
        <pt x="392" y="883" on="1"/>
        <pt x="491" y="883" on="1"/>
        <pt x="378" y="750" on="1"/>
        <pt x="316" y="750" on="1"/>
      </contour>
    </TTGlyph>
    <TTGlyph name="Uhorndotbelow" xMin="92" yMin="-165" xMax="843" yMax="698">
      <contour>
        <pt x="575" y="698" on="1"/>
        <pt x="666" y="698" on="1"/>
        <pt x="666" y="442" on="1"/>
        <pt x="739" y="444" on="0"/>
        <pt x="791" y="505" on="0"/>
        <pt x="791" y="588" on="1"/>
        <pt x="735" y="588" on="1"/>
        <pt x="735" y="698" on="1"/>
        <pt x="843" y="698" on="1"/>
        <pt x="843" y="592" on="1"/>
        <pt x="843" y="490" on="0"/>
        <pt x="759" y="401" on="0"/>
        <pt x="666" y="398" on="1"/>
        <pt x="666" y="262" on="1"/>
        <pt x="666" y="194" on="0"/>
        <pt x="615" y="87" on="0"/>
        <pt x="530" y="23" on="0"/>
        <pt x="431" y="-10" on="0"/>
        <pt x="327" y="-10" on="0"/>
        <pt x="228" y="23" on="0"/>
        <pt x="143" y="87" on="0"/>
        <pt x="92" y="194" on="0"/>
        <pt x="92" y="262" on="1"/>
        <pt x="92" y="698" on="1"/>
        <pt x="183" y="698" on="1"/>
        <pt x="183" y="259" on="1"/>
        <pt x="183" y="171" on="0"/>
        <pt x="299" y="73" on="0"/>
        <pt x="459" y="73" on="0"/>
        <pt x="575" y="171" on="0"/>
        <pt x="575" y="259" on="1"/>
      </contour>
      <contour>
        <pt x="331" y="-165" on="1"/>
        <pt x="331" y="-69" on="1"/>
        <pt x="427" y="-69" on="1"/>
        <pt x="427" y="-165" on="1"/>
      </contour>
    </TTGlyph>
    <TTGlyph name="Uhorngrave" xMin="92" yMin="-10" xMax="843" yMax="883">
      <contour>
        <pt x="575" y="698" on="1"/>
        <pt x="666" y="698" on="1"/>
        <pt x="666" y="442" on="1"/>
        <pt x="739" y="444" on="0"/>
        <pt x="791" y="505" on="0"/>
        <pt x="791" y="588" on="1"/>
        <pt x="735" y="588" on="1"/>
        <pt x="735" y="698" on="1"/>
        <pt x="843" y="698" on="1"/>
        <pt x="843" y="592" on="1"/>
        <pt x="843" y="490" on="0"/>
        <pt x="759" y="401" on="0"/>
        <pt x="666" y="398" on="1"/>
        <pt x="666" y="262" on="1"/>
        <pt x="666" y="194" on="0"/>
        <pt x="615" y="87" on="0"/>
        <pt x="530" y="23" on="0"/>
        <pt x="431" y="-10" on="0"/>
        <pt x="327" y="-10" on="0"/>
        <pt x="228" y="23" on="0"/>
        <pt x="143" y="87" on="0"/>
        <pt x="92" y="194" on="0"/>
        <pt x="92" y="262" on="1"/>
        <pt x="92" y="698" on="1"/>
        <pt x="183" y="698" on="1"/>
        <pt x="183" y="259" on="1"/>
        <pt x="183" y="171" on="0"/>
        <pt x="299" y="73" on="0"/>
        <pt x="459" y="73" on="0"/>
        <pt x="575" y="171" on="0"/>
        <pt x="575" y="259" on="1"/>
      </contour>
      <contour>
        <pt x="267" y="883" on="1"/>
        <pt x="366" y="883" on="1"/>
        <pt x="442" y="750" on="1"/>
        <pt x="380" y="750" on="1"/>
      </contour>
    </TTGlyph>
    <TTGlyph name="Uhornhookabove" xMin="92" yMin="-10" xMax="843" yMax="922">
      <contour>
        <pt x="575" y="698" on="1"/>
        <pt x="666" y="698" on="1"/>
        <pt x="666" y="442" on="1"/>
        <pt x="739" y="444" on="0"/>
        <pt x="791" y="505" on="0"/>
        <pt x="791" y="588" on="1"/>
        <pt x="735" y="588" on="1"/>
        <pt x="735" y="698" on="1"/>
        <pt x="843" y="698" on="1"/>
        <pt x="843" y="592" on="1"/>
        <pt x="843" y="490" on="0"/>
        <pt x="759" y="401" on="0"/>
        <pt x="666" y="398" on="1"/>
        <pt x="666" y="262" on="1"/>
        <pt x="666" y="194" on="0"/>
        <pt x="615" y="87" on="0"/>
        <pt x="530" y="23" on="0"/>
        <pt x="431" y="-10" on="0"/>
        <pt x="327" y="-10" on="0"/>
        <pt x="228" y="23" on="0"/>
        <pt x="143" y="87" on="0"/>
        <pt x="92" y="194" on="0"/>
        <pt x="92" y="262" on="1"/>
        <pt x="92" y="698" on="1"/>
        <pt x="183" y="698" on="1"/>
        <pt x="183" y="259" on="1"/>
        <pt x="183" y="171" on="0"/>
        <pt x="299" y="73" on="0"/>
        <pt x="459" y="73" on="0"/>
        <pt x="575" y="171" on="0"/>
        <pt x="575" y="259" on="1"/>
      </contour>
      <contour>
        <pt x="352" y="922" on="1"/>
        <pt x="467" y="922" on="0"/>
        <pt x="467" y="843" on="1"/>
        <pt x="467" y="786" on="0"/>
        <pt x="392" y="771" on="1"/>
        <pt x="392" y="753" on="1"/>
        <pt x="338" y="753" on="1"/>
        <pt x="338" y="798" on="1"/>
        <pt x="359" y="799" on="0"/>
        <pt x="405" y="818" on="0"/>
        <pt x="405" y="838" on="1"/>
        <pt x="405" y="874" on="0"/>
        <pt x="337" y="874" on="1"/>
        <pt x="320" y="874" on="0"/>
        <pt x="311" y="873" on="1"/>
        <pt x="311" y="919" on="1"/>
        <pt x="328" y="922" on="0"/>
      </contour>
    </TTGlyph>
    <TTGlyph name="Uhorntilde" xMin="92" yMin="-10" xMax="843" yMax="861">
      <contour>
        <pt x="575" y="698" on="1"/>
        <pt x="666" y="698" on="1"/>
        <pt x="666" y="442" on="1"/>
        <pt x="739" y="444" on="0"/>
        <pt x="791" y="505" on="0"/>
        <pt x="791" y="588" on="1"/>
        <pt x="735" y="588" on="1"/>
        <pt x="735" y="698" on="1"/>
        <pt x="843" y="698" on="1"/>
        <pt x="843" y="592" on="1"/>
        <pt x="843" y="490" on="0"/>
        <pt x="759" y="401" on="0"/>
        <pt x="666" y="398" on="1"/>
        <pt x="666" y="262" on="1"/>
        <pt x="666" y="194" on="0"/>
        <pt x="615" y="87" on="0"/>
        <pt x="530" y="23" on="0"/>
        <pt x="431" y="-10" on="0"/>
        <pt x="327" y="-10" on="0"/>
        <pt x="228" y="23" on="0"/>
        <pt x="143" y="87" on="0"/>
        <pt x="92" y="194" on="0"/>
        <pt x="92" y="262" on="1"/>
        <pt x="92" y="698" on="1"/>
        <pt x="183" y="698" on="1"/>
        <pt x="183" y="259" on="1"/>
        <pt x="183" y="171" on="0"/>
        <pt x="299" y="73" on="0"/>
        <pt x="459" y="73" on="0"/>
        <pt x="575" y="171" on="0"/>
        <pt x="575" y="259" on="1"/>
      </contour>
      <contour>
        <pt x="501" y="855" on="1"/>
        <pt x="546" y="855" on="1"/>
        <pt x="542" y="801" on="0"/>
        <pt x="495" y="745" on="0"/>
        <pt x="430" y="745" on="0"/>
        <pt x="331" y="793" on="0"/>
        <pt x="306" y="793" on="1"/>
        <pt x="273" y="793" on="0"/>
        <pt x="263" y="750" on="1"/>
        <pt x="219" y="750" on="1"/>
        <pt x="223" y="804" on="0"/>
        <pt x="270" y="861" on="0"/>
        <pt x="334" y="861" on="0"/>
        <pt x="432" y="814" on="0"/>
        <pt x="459" y="814" on="1"/>
        <pt x="493" y="814" on="0"/>
      </contour>
    </TTGlyph>
    <TTGlyph name="Uhungarumlaut" xMin="92" yMin="-10" xMax="666" yMax="883">
      <contour>
        <pt x="575" y="698" on="1"/>
        <pt x="666" y="698" on="1"/>
        <pt x="666" y="262" on="1"/>
        <pt x="666" y="194" on="0"/>
        <pt x="615" y="87" on="0"/>
        <pt x="530" y="23" on="0"/>
        <pt x="431" y="-10" on="0"/>
        <pt x="327" y="-10" on="0"/>
        <pt x="228" y="23" on="0"/>
        <pt x="143" y="87" on="0"/>
        <pt x="92" y="194" on="0"/>
        <pt x="92" y="262" on="1"/>
        <pt x="92" y="698" on="1"/>
        <pt x="183" y="698" on="1"/>
        <pt x="183" y="259" on="1"/>
        <pt x="183" y="171" on="0"/>
        <pt x="299" y="73" on="0"/>
        <pt x="459" y="73" on="0"/>
        <pt x="575" y="171" on="0"/>
        <pt x="575" y="259" on="1"/>
      </contour>
      <contour>
        <pt x="329" y="883" on="1"/>
        <pt x="428" y="883" on="1"/>
        <pt x="315" y="750" on="1"/>
        <pt x="253" y="750" on="1"/>
      </contour>
      <contour>
        <pt x="484" y="883" on="1"/>
        <pt x="583" y="883" on="1"/>
        <pt x="469" y="750" on="1"/>
        <pt x="408" y="750" on="1"/>
      </contour>
    </TTGlyph>
    <TTGlyph name="Umacron" xMin="92" yMin="-10" xMax="666" yMax="828">
      <contour>
        <pt x="575" y="698" on="1"/>
        <pt x="666" y="698" on="1"/>
        <pt x="666" y="262" on="1"/>
        <pt x="666" y="194" on="0"/>
        <pt x="615" y="87" on="0"/>
        <pt x="530" y="23" on="0"/>
        <pt x="431" y="-10" on="0"/>
        <pt x="327" y="-10" on="0"/>
        <pt x="228" y="23" on="0"/>
        <pt x="143" y="87" on="0"/>
        <pt x="92" y="194" on="0"/>
        <pt x="92" y="262" on="1"/>
        <pt x="92" y="698" on="1"/>
        <pt x="183" y="698" on="1"/>
        <pt x="183" y="259" on="1"/>
        <pt x="183" y="171" on="0"/>
        <pt x="299" y="73" on="0"/>
        <pt x="459" y="73" on="0"/>
        <pt x="575" y="171" on="0"/>
        <pt x="575" y="259" on="1"/>
      </contour>
      <contour>
        <pt x="521" y="828" on="1"/>
        <pt x="521" y="768" on="1"/>
        <pt x="237" y="768" on="1"/>
        <pt x="237" y="828" on="1"/>
      </contour>
    </TTGlyph>
    <TTGlyph name="Uogonek" xMin="92" yMin="-203" xMax="666" yMax="698">
      <contour>
        <pt x="575" y="698" on="1"/>
        <pt x="666" y="698" on="1"/>
        <pt x="666" y="262" on="1"/>
        <pt x="666" y="179" on="0"/>
        <pt x="592" y="60" on="0"/>
        <pt x="530" y="27" on="1"/>
        <pt x="494" y="10" on="0"/>
        <pt x="430" y="-64" on="0"/>
        <pt x="431" y="-99" on="1"/>
        <pt x="431" y="-147" on="0"/>
        <pt x="482" y="-147" on="1"/>
        <pt x="511" y="-147" on="0"/>
        <pt x="542" y="-129" on="1"/>
        <pt x="542" y="-176" on="1"/>
        <pt x="502" y="-203" on="0"/>
        <pt x="413" y="-203" on="0"/>
        <pt x="358" y="-157" on="0"/>
        <pt x="358" y="-82" on="0"/>
        <pt x="398" y="-23" on="0"/>
        <pt x="431" y="-6" on="1"/>
        <pt x="408" y="-10" on="0"/>
        <pt x="327" y="-10" on="0"/>
        <pt x="228" y="23" on="0"/>
        <pt x="143" y="87" on="0"/>
        <pt x="92" y="194" on="0"/>
        <pt x="92" y="262" on="1"/>
        <pt x="92" y="698" on="1"/>
        <pt x="183" y="698" on="1"/>
        <pt x="183" y="259" on="1"/>
        <pt x="183" y="171" on="0"/>
        <pt x="299" y="73" on="0"/>
        <pt x="459" y="73" on="0"/>
        <pt x="575" y="171" on="0"/>
        <pt x="575" y="259" on="1"/>
      </contour>
    </TTGlyph>
    <TTGlyph name="Uring" xMin="92" yMin="-10" xMax="666" yMax="918">
      <contour>
        <pt x="575" y="698" on="1"/>
        <pt x="666" y="698" on="1"/>
        <pt x="666" y="262" on="1"/>
        <pt x="666" y="194" on="0"/>
        <pt x="615" y="87" on="0"/>
        <pt x="530" y="23" on="0"/>
        <pt x="431" y="-10" on="0"/>
        <pt x="327" y="-10" on="0"/>
        <pt x="228" y="23" on="0"/>
        <pt x="143" y="87" on="0"/>
        <pt x="92" y="194" on="0"/>
        <pt x="92" y="262" on="1"/>
        <pt x="92" y="698" on="1"/>
        <pt x="183" y="698" on="1"/>
        <pt x="183" y="259" on="1"/>
        <pt x="183" y="171" on="0"/>
        <pt x="299" y="73" on="0"/>
        <pt x="459" y="73" on="0"/>
        <pt x="575" y="171" on="0"/>
        <pt x="575" y="259" on="1"/>
      </contour>
      <contour>
        <pt x="340" y="918" on="0"/>
        <pt x="418" y="918" on="0"/>
        <pt x="473" y="863" on="0"/>
        <pt x="473" y="785" on="0"/>
        <pt x="418" y="730" on="0"/>
        <pt x="340" y="730" on="0"/>
        <pt x="285" y="785" on="0"/>
        <pt x="285" y="863" on="0"/>
      </contour>
      <contour>
        <pt x="359" y="775" on="0"/>
        <pt x="399" y="775" on="0"/>
        <pt x="428" y="804" on="0"/>
        <pt x="428" y="844" on="0"/>
        <pt x="399" y="873" on="0"/>
        <pt x="359" y="873" on="0"/>
        <pt x="330" y="844" on="0"/>
        <pt x="330" y="804" on="0"/>
      </contour>
    </TTGlyph>
    <TTGlyph name="Utilde" xMin="92" yMin="-10" xMax="666" yMax="861">
      <contour>
        <pt x="575" y="698" on="1"/>
        <pt x="666" y="698" on="1"/>
        <pt x="666" y="262" on="1"/>
        <pt x="666" y="194" on="0"/>
        <pt x="615" y="87" on="0"/>
        <pt x="530" y="23" on="0"/>
        <pt x="431" y="-10" on="0"/>
        <pt x="327" y="-10" on="0"/>
        <pt x="228" y="23" on="0"/>
        <pt x="143" y="87" on="0"/>
        <pt x="92" y="194" on="0"/>
        <pt x="92" y="262" on="1"/>
        <pt x="92" y="698" on="1"/>
        <pt x="183" y="698" on="1"/>
        <pt x="183" y="259" on="1"/>
        <pt x="183" y="171" on="0"/>
        <pt x="299" y="73" on="0"/>
        <pt x="459" y="73" on="0"/>
        <pt x="575" y="171" on="0"/>
        <pt x="575" y="259" on="1"/>
      </contour>
      <contour>
        <pt x="501" y="855" on="1"/>
        <pt x="546" y="855" on="1"/>
        <pt x="542" y="801" on="0"/>
        <pt x="495" y="745" on="0"/>
        <pt x="430" y="745" on="0"/>
        <pt x="331" y="793" on="0"/>
        <pt x="306" y="793" on="1"/>
        <pt x="273" y="793" on="0"/>
        <pt x="263" y="750" on="1"/>
        <pt x="219" y="750" on="1"/>
        <pt x="223" y="804" on="0"/>
        <pt x="270" y="861" on="0"/>
        <pt x="334" y="861" on="0"/>
        <pt x="432" y="814" on="0"/>
        <pt x="459" y="814" on="1"/>
        <pt x="493" y="814" on="0"/>
      </contour>
    </TTGlyph>
    <TTGlyph name="V" xMin="5" yMin="0" xMax="689" yMax="698">
      <contour>
        <pt x="591" y="698" on="1"/>
        <pt x="689" y="698" on="1"/>
        <pt x="401" y="0" on="1"/>
        <pt x="293" y="0" on="1"/>
        <pt x="5" y="698" on="1"/>
        <pt x="104" y="698" on="1"/>
        <pt x="345" y="93" on="1"/>
        <pt x="349" y="93" on="1"/>
      </contour>
    </TTGlyph>
    <TTGlyph name="W" xMin="12" yMin="0" xMax="995" yMax="698">
      <contour>
        <pt x="900" y="698" on="1"/>
        <pt x="995" y="698" on="1"/>
        <pt x="767" y="0" on="1"/>
        <pt x="676" y="0" on="1"/>
        <pt x="506" y="542" on="1"/>
        <pt x="501" y="542" on="1"/>
        <pt x="331" y="0" on="1"/>
        <pt x="240" y="0" on="1"/>
        <pt x="12" y="698" on="1"/>
        <pt x="107" y="698" on="1"/>
        <pt x="283" y="122" on="1"/>
        <pt x="286" y="122" on="1"/>
        <pt x="464" y="698" on="1"/>
        <pt x="543" y="698" on="1"/>
        <pt x="721" y="122" on="1"/>
        <pt x="724" y="122" on="1"/>
      </contour>
    </TTGlyph>
    <TTGlyph name="Wcircumflex" xMin="12" yMin="0" xMax="995" yMax="873">
      <contour>
        <pt x="900" y="698" on="1"/>
        <pt x="995" y="698" on="1"/>
        <pt x="767" y="0" on="1"/>
        <pt x="676" y="0" on="1"/>
        <pt x="506" y="542" on="1"/>
        <pt x="501" y="542" on="1"/>
        <pt x="331" y="0" on="1"/>
        <pt x="240" y="0" on="1"/>
        <pt x="12" y="698" on="1"/>
        <pt x="107" y="698" on="1"/>
        <pt x="283" y="122" on="1"/>
        <pt x="286" y="122" on="1"/>
        <pt x="464" y="698" on="1"/>
        <pt x="543" y="698" on="1"/>
        <pt x="721" y="122" on="1"/>
        <pt x="724" y="122" on="1"/>
      </contour>
      <contour>
        <pt x="544" y="873" on="1"/>
        <pt x="657" y="750" on="1"/>
        <pt x="578" y="750" on="1"/>
        <pt x="503" y="823" on="1"/>
        <pt x="428" y="750" on="1"/>
        <pt x="349" y="750" on="1"/>
        <pt x="462" y="873" on="1"/>
      </contour>
    </TTGlyph>
    <TTGlyph name="X" xMin="15" yMin="0" xMax="656" yMax="698">
      <contour>
        <pt x="386" y="350" on="1"/>
        <pt x="656" y="0" on="1"/>
        <pt x="543" y="0" on="1"/>
        <pt x="334" y="280" on="1"/>
        <pt x="329" y="280" on="1"/>
        <pt x="123" y="0" on="1"/>
        <pt x="15" y="0" on="1"/>
        <pt x="283" y="349" on="1"/>
        <pt x="15" y="698" on="1"/>
        <pt x="129" y="698" on="1"/>
        <pt x="334" y="420" on="1"/>
        <pt x="339" y="420" on="1"/>
        <pt x="543" y="698" on="1"/>
        <pt x="653" y="698" on="1"/>
      </contour>
    </TTGlyph>
    <TTGlyph name="Y" xMin="-7" yMin="0" xMax="652" yMax="698">
      <contour>
        <pt x="541" y="698" on="1"/>
        <pt x="652" y="698" on="1"/>
        <pt x="368" y="295" on="1"/>
        <pt x="368" y="0" on="1"/>
        <pt x="277" y="0" on="1"/>
        <pt x="277" y="295" on="1"/>
        <pt x="-7" y="698" on="1"/>
        <pt x="104" y="698" on="1"/>
        <pt x="320" y="379" on="1"/>
        <pt x="325" y="379" on="1"/>
      </contour>
    </TTGlyph>
    <TTGlyph name="Yacute" xMin="-7" yMin="0" xMax="652" yMax="883">
      <contour>
        <pt x="541" y="698" on="1"/>
        <pt x="652" y="698" on="1"/>
        <pt x="368" y="295" on="1"/>
        <pt x="368" y="0" on="1"/>
        <pt x="277" y="0" on="1"/>
        <pt x="277" y="295" on="1"/>
        <pt x="-7" y="698" on="1"/>
        <pt x="104" y="698" on="1"/>
        <pt x="320" y="379" on="1"/>
        <pt x="325" y="379" on="1"/>
      </contour>
      <contour>
        <pt x="345" y="883" on="1"/>
        <pt x="444" y="883" on="1"/>
        <pt x="331" y="750" on="1"/>
        <pt x="269" y="750" on="1"/>
      </contour>
    </TTGlyph>
    <TTGlyph name="Ycircumflex" xMin="-7" yMin="0" xMax="652" yMax="873">
      <contour>
        <pt x="541" y="698" on="1"/>
        <pt x="652" y="698" on="1"/>
        <pt x="368" y="295" on="1"/>
        <pt x="368" y="0" on="1"/>
        <pt x="277" y="0" on="1"/>
        <pt x="277" y="295" on="1"/>
        <pt x="-7" y="698" on="1"/>
        <pt x="104" y="698" on="1"/>
        <pt x="320" y="379" on="1"/>
        <pt x="325" y="379" on="1"/>
      </contour>
      <contour>
        <pt x="363" y="873" on="1"/>
        <pt x="476" y="750" on="1"/>
        <pt x="397" y="750" on="1"/>
        <pt x="322" y="823" on="1"/>
        <pt x="247" y="750" on="1"/>
        <pt x="168" y="750" on="1"/>
        <pt x="281" y="873" on="1"/>
      </contour>
    </TTGlyph>
    <TTGlyph name="Ydieresis" xMin="-7" yMin="0" xMax="652" yMax="846">
      <contour>
        <pt x="541" y="698" on="1"/>
        <pt x="652" y="698" on="1"/>
        <pt x="368" y="295" on="1"/>
        <pt x="368" y="0" on="1"/>
        <pt x="277" y="0" on="1"/>
        <pt x="277" y="295" on="1"/>
        <pt x="-7" y="698" on="1"/>
        <pt x="104" y="698" on="1"/>
        <pt x="320" y="379" on="1"/>
        <pt x="325" y="379" on="1"/>
      </contour>
      <contour>
        <pt x="191" y="750" on="1"/>
        <pt x="191" y="846" on="1"/>
        <pt x="287" y="846" on="1"/>
        <pt x="287" y="750" on="1"/>
      </contour>
      <contour>
        <pt x="359" y="750" on="1"/>
        <pt x="359" y="846" on="1"/>
        <pt x="455" y="846" on="1"/>
        <pt x="455" y="750" on="1"/>
      </contour>
    </TTGlyph>
    <TTGlyph name="Ydotbelow" xMin="-8" yMin="-156" xMax="651" yMax="698">
      <contour>
        <pt x="540" y="698" on="1"/>
        <pt x="651" y="698" on="1"/>
        <pt x="367" y="295" on="1"/>
        <pt x="367" y="0" on="1"/>
        <pt x="276" y="0" on="1"/>
        <pt x="276" y="295" on="1"/>
        <pt x="-8" y="698" on="1"/>
        <pt x="103" y="698" on="1"/>
        <pt x="319" y="379" on="1"/>
        <pt x="324" y="379" on="1"/>
      </contour>
      <contour>
        <pt x="274" y="-156" on="1"/>
        <pt x="274" y="-60" on="1"/>
        <pt x="370" y="-60" on="1"/>
        <pt x="370" y="-156" on="1"/>
      </contour>
    </TTGlyph>
    <TTGlyph name="Ygrave" xMin="-7" yMin="0" xMax="652" yMax="883">
      <contour>
        <pt x="541" y="698" on="1"/>
        <pt x="652" y="698" on="1"/>
        <pt x="368" y="295" on="1"/>
        <pt x="368" y="0" on="1"/>
        <pt x="277" y="0" on="1"/>
        <pt x="277" y="295" on="1"/>
        <pt x="-7" y="698" on="1"/>
        <pt x="104" y="698" on="1"/>
        <pt x="320" y="379" on="1"/>
        <pt x="325" y="379" on="1"/>
      </contour>
      <contour>
        <pt x="201" y="883" on="1"/>
        <pt x="300" y="883" on="1"/>
        <pt x="376" y="750" on="1"/>
        <pt x="314" y="750" on="1"/>
      </contour>
    </TTGlyph>
    <TTGlyph name="Yhookabove" xMin="-7" yMin="0" xMax="652" yMax="922">
      <contour>
        <pt x="541" y="698" on="1"/>
        <pt x="652" y="698" on="1"/>
        <pt x="368" y="295" on="1"/>
        <pt x="368" y="0" on="1"/>
        <pt x="277" y="0" on="1"/>
        <pt x="277" y="295" on="1"/>
        <pt x="-7" y="698" on="1"/>
        <pt x="104" y="698" on="1"/>
        <pt x="320" y="379" on="1"/>
        <pt x="325" y="379" on="1"/>
      </contour>
      <contour>
        <pt x="303" y="922" on="1"/>
        <pt x="418" y="922" on="0"/>
        <pt x="418" y="843" on="1"/>
        <pt x="418" y="786" on="0"/>
        <pt x="343" y="771" on="1"/>
        <pt x="343" y="753" on="1"/>
        <pt x="289" y="753" on="1"/>
        <pt x="289" y="798" on="1"/>
        <pt x="310" y="799" on="0"/>
        <pt x="356" y="818" on="0"/>
        <pt x="356" y="838" on="1"/>
        <pt x="356" y="874" on="0"/>
        <pt x="288" y="874" on="1"/>
        <pt x="271" y="874" on="0"/>
        <pt x="262" y="873" on="1"/>
        <pt x="262" y="919" on="1"/>
        <pt x="279" y="922" on="0"/>
      </contour>
    </TTGlyph>
    <TTGlyph name="Ytilde" xMin="-7" yMin="0" xMax="652" yMax="861">
      <contour>
        <pt x="541" y="698" on="1"/>
        <pt x="652" y="698" on="1"/>
        <pt x="368" y="295" on="1"/>
        <pt x="368" y="0" on="1"/>
        <pt x="277" y="0" on="1"/>
        <pt x="277" y="295" on="1"/>
        <pt x="-7" y="698" on="1"/>
        <pt x="104" y="698" on="1"/>
        <pt x="320" y="379" on="1"/>
        <pt x="325" y="379" on="1"/>
      </contour>
      <contour>
        <pt x="444" y="855" on="1"/>
        <pt x="489" y="855" on="1"/>
        <pt x="485" y="801" on="0"/>
        <pt x="438" y="745" on="0"/>
        <pt x="373" y="745" on="0"/>
        <pt x="274" y="793" on="0"/>
        <pt x="249" y="793" on="1"/>
        <pt x="216" y="793" on="0"/>
        <pt x="206" y="750" on="1"/>
        <pt x="162" y="750" on="1"/>
        <pt x="166" y="804" on="0"/>
        <pt x="213" y="861" on="0"/>
        <pt x="278" y="861" on="0"/>
        <pt x="376" y="814" on="0"/>
        <pt x="402" y="814" on="1"/>
        <pt x="436" y="814" on="0"/>
      </contour>
    </TTGlyph>
    <TTGlyph name="Z" xMin="47" yMin="0" xMax="587" yMax="698">
      <contour>
        <pt x="587" y="698" on="1"/>
        <pt x="587" y="616" on="1"/>
        <pt x="161" y="88" on="1"/>
        <pt x="161" y="85" on="1"/>
        <pt x="587" y="85" on="1"/>
        <pt x="587" y="0" on="1"/>
        <pt x="47" y="0" on="1"/>
        <pt x="47" y="80" on="1"/>
        <pt x="473" y="607" on="1"/>
        <pt x="473" y="611" on="1"/>
        <pt x="55" y="611" on="1"/>
        <pt x="55" y="698" on="1"/>
      </contour>
    </TTGlyph>
    <TTGlyph name="Zacute" xMin="47" yMin="0" xMax="587" yMax="883">
      <contour>
        <pt x="587" y="698" on="1"/>
        <pt x="587" y="616" on="1"/>
        <pt x="161" y="88" on="1"/>
        <pt x="161" y="85" on="1"/>
        <pt x="587" y="85" on="1"/>
        <pt x="587" y="0" on="1"/>
        <pt x="47" y="0" on="1"/>
        <pt x="47" y="80" on="1"/>
        <pt x="473" y="607" on="1"/>
        <pt x="473" y="611" on="1"/>
        <pt x="55" y="611" on="1"/>
        <pt x="55" y="698" on="1"/>
      </contour>
      <contour>
        <pt x="334" y="883" on="1"/>
        <pt x="433" y="883" on="1"/>
        <pt x="320" y="750" on="1"/>
        <pt x="258" y="750" on="1"/>
      </contour>
    </TTGlyph>
    <TTGlyph name="Zcaron" xMin="47" yMin="0" xMax="587" yMax="873">
      <contour>
        <pt x="587" y="698" on="1"/>
        <pt x="587" y="616" on="1"/>
        <pt x="161" y="88" on="1"/>
        <pt x="161" y="85" on="1"/>
        <pt x="587" y="85" on="1"/>
        <pt x="587" y="0" on="1"/>
        <pt x="47" y="0" on="1"/>
        <pt x="47" y="80" on="1"/>
        <pt x="473" y="607" on="1"/>
        <pt x="473" y="611" on="1"/>
        <pt x="55" y="611" on="1"/>
        <pt x="55" y="698" on="1"/>
      </contour>
      <contour>
        <pt x="474" y="873" on="1"/>
        <pt x="361" y="750" on="1"/>
        <pt x="279" y="750" on="1"/>
        <pt x="166" y="873" on="1"/>
        <pt x="245" y="873" on="1"/>
        <pt x="320" y="800" on="1"/>
        <pt x="395" y="873" on="1"/>
      </contour>
    </TTGlyph>
    <TTGlyph name="Zdotaccent" xMin="47" yMin="0" xMax="587" yMax="846">
      <contour>
        <pt x="587" y="698" on="1"/>
        <pt x="587" y="616" on="1"/>
        <pt x="161" y="88" on="1"/>
        <pt x="161" y="85" on="1"/>
        <pt x="587" y="85" on="1"/>
        <pt x="587" y="0" on="1"/>
        <pt x="47" y="0" on="1"/>
        <pt x="47" y="80" on="1"/>
        <pt x="473" y="607" on="1"/>
        <pt x="473" y="611" on="1"/>
        <pt x="55" y="611" on="1"/>
        <pt x="55" y="698" on="1"/>
      </contour>
      <contour>
        <pt x="279" y="750" on="1"/>
        <pt x="279" y="846" on="1"/>
        <pt x="375" y="846" on="1"/>
        <pt x="375" y="750" on="1"/>
      </contour>
    </TTGlyph>
    <TTGlyph name="a" xMin="38" yMin="-10" xMax="480" yMax="520">
      <contour>
        <pt x="88" y="482" on="1"/>
        <pt x="175" y="520" on="0"/>
        <pt x="374" y="520" on="0"/>
        <pt x="480" y="404" on="0"/>
        <pt x="480" y="323" on="1"/>
        <pt x="480" y="0" on="1"/>
        <pt x="400" y="0" on="1"/>
        <pt x="389" y="64" on="1"/>
        <pt x="386" y="64" on="1"/>
        <pt x="314" y="-10" on="0"/>
        <pt x="201" y="-10" on="1"/>
        <pt x="133" y="-10" on="0"/>
        <pt x="38" y="72" on="0"/>
        <pt x="38" y="214" on="0"/>
        <pt x="155" y="302" on="0"/>
        <pt x="268" y="302" on="1"/>
        <pt x="389" y="302" on="1"/>
        <pt x="389" y="310" on="1"/>
        <pt x="389" y="376" on="0"/>
        <pt x="324" y="434" on="0"/>
        <pt x="164" y="434" on="0"/>
        <pt x="94" y="400" on="1"/>
        <pt x="88" y="400" on="1"/>
      </contour>
      <contour>
        <pt x="389" y="145" on="1"/>
        <pt x="389" y="229" on="1"/>
        <pt x="280" y="229" on="1"/>
        <pt x="129" y="229" on="0"/>
        <pt x="129" y="70" on="0"/>
        <pt x="235" y="70" on="1"/>
        <pt x="279" y="70" on="0"/>
        <pt x="361" y="113" on="0"/>
      </contour>
    </TTGlyph>
    <TTGlyph name="a.alt" xMin="48" yMin="-10" xMax="552" yMax="520">
      <contour>
        <pt x="193" y="520" on="0"/>
        <pt x="387" y="520" on="0"/>
        <pt x="458" y="446" on="1"/>
        <pt x="461" y="446" on="1"/>
        <pt x="472" y="510" on="1"/>
        <pt x="552" y="510" on="1"/>
        <pt x="552" y="0" on="1"/>
        <pt x="472" y="0" on="1"/>
        <pt x="461" y="64" on="1"/>
        <pt x="458" y="64" on="1"/>
        <pt x="387" y="-10" on="0"/>
        <pt x="193" y="-10" on="0"/>
        <pt x="48" y="134" on="0"/>
        <pt x="48" y="376" on="0"/>
      </contour>
      <contour>
        <pt x="303" y="75" on="1"/>
        <pt x="393" y="75" on="0"/>
        <pt x="461" y="150" on="1"/>
        <pt x="461" y="360" on="1"/>
        <pt x="393" y="435" on="0"/>
        <pt x="303" y="435" on="1"/>
        <pt x="229" y="435" on="0"/>
        <pt x="139" y="341" on="0"/>
        <pt x="139" y="169" on="0"/>
        <pt x="229" y="75" on="0"/>
      </contour>
    </TTGlyph>
    <TTGlyph name="a.smcp" xMin="10" yMin="0" xMax="564" yMax="550">
      <contour>
        <pt x="330" y="550" on="1"/>
        <pt x="564" y="0" on="1"/>
        <pt x="467" y="0" on="1"/>
        <pt x="411" y="139" on="1"/>
        <pt x="163" y="139" on="1"/>
        <pt x="107" y="0" on="1"/>
        <pt x="10" y="0" on="1"/>
        <pt x="244" y="550" on="1"/>
      </contour>
      <contour>
        <pt x="378" y="218" on="1"/>
        <pt x="378" y="222" on="1"/>
        <pt x="288" y="444" on="1"/>
        <pt x="286" y="444" on="1"/>
        <pt x="196" y="222" on="1"/>
        <pt x="196" y="218" on="1"/>
      </contour>
    </TTGlyph>
    <TTGlyph name="aacute" xMin="38" yMin="-10" xMax="480" yMax="711">
      <contour>
        <pt x="88" y="482" on="1"/>
        <pt x="175" y="520" on="0"/>
        <pt x="374" y="520" on="0"/>
        <pt x="480" y="404" on="0"/>
        <pt x="480" y="323" on="1"/>
        <pt x="480" y="0" on="1"/>
        <pt x="400" y="0" on="1"/>
        <pt x="389" y="64" on="1"/>
        <pt x="386" y="64" on="1"/>
        <pt x="314" y="-10" on="0"/>
        <pt x="201" y="-10" on="1"/>
        <pt x="133" y="-10" on="0"/>
        <pt x="38" y="72" on="0"/>
        <pt x="38" y="214" on="0"/>
        <pt x="155" y="302" on="0"/>
        <pt x="268" y="302" on="1"/>
        <pt x="389" y="302" on="1"/>
        <pt x="389" y="310" on="1"/>
        <pt x="389" y="376" on="0"/>
        <pt x="324" y="434" on="0"/>
        <pt x="164" y="434" on="0"/>
        <pt x="94" y="400" on="1"/>
        <pt x="88" y="400" on="1"/>
      </contour>
      <contour>
        <pt x="389" y="145" on="1"/>
        <pt x="389" y="229" on="1"/>
        <pt x="280" y="229" on="1"/>
        <pt x="129" y="229" on="0"/>
        <pt x="129" y="70" on="0"/>
        <pt x="235" y="70" on="1"/>
        <pt x="279" y="70" on="0"/>
        <pt x="361" y="113" on="0"/>
      </contour>
      <contour>
        <pt x="287" y="711" on="1"/>
        <pt x="386" y="711" on="1"/>
        <pt x="273" y="578" on="1"/>
        <pt x="211" y="578" on="1"/>
      </contour>
    </TTGlyph>
    <TTGlyph name="aacute.alt" xMin="48" yMin="-10" xMax="552" yMax="711">
      <contour>
        <pt x="193" y="520" on="0"/>
        <pt x="387" y="520" on="0"/>
        <pt x="458" y="446" on="1"/>
        <pt x="461" y="446" on="1"/>
        <pt x="472" y="510" on="1"/>
        <pt x="552" y="510" on="1"/>
        <pt x="552" y="0" on="1"/>
        <pt x="472" y="0" on="1"/>
        <pt x="461" y="64" on="1"/>
        <pt x="458" y="64" on="1"/>
        <pt x="387" y="-10" on="0"/>
        <pt x="193" y="-10" on="0"/>
        <pt x="48" y="134" on="0"/>
        <pt x="48" y="376" on="0"/>
      </contour>
      <contour>
        <pt x="303" y="75" on="1"/>
        <pt x="393" y="75" on="0"/>
        <pt x="461" y="150" on="1"/>
        <pt x="461" y="360" on="1"/>
        <pt x="393" y="435" on="0"/>
        <pt x="303" y="435" on="1"/>
        <pt x="229" y="435" on="0"/>
        <pt x="139" y="341" on="0"/>
        <pt x="139" y="169" on="0"/>
        <pt x="229" y="75" on="0"/>
      </contour>
      <contour>
        <pt x="329" y="711" on="1"/>
        <pt x="428" y="711" on="1"/>
        <pt x="315" y="578" on="1"/>
        <pt x="253" y="578" on="1"/>
      </contour>
    </TTGlyph>
    <TTGlyph name="aacute.smcp" xMin="10" yMin="0" xMax="564" yMax="745">
      <contour>
        <pt x="317" y="745" on="1"/>
        <pt x="416" y="745" on="1"/>
        <pt x="303" y="612" on="1"/>
        <pt x="241" y="612" on="1"/>
      </contour>
      <contour>
        <pt x="330" y="550" on="1"/>
        <pt x="564" y="0" on="1"/>
        <pt x="467" y="0" on="1"/>
        <pt x="411" y="139" on="1"/>
        <pt x="163" y="139" on="1"/>
        <pt x="107" y="0" on="1"/>
        <pt x="10" y="0" on="1"/>
        <pt x="244" y="550" on="1"/>
      </contour>
      <contour>
        <pt x="378" y="218" on="1"/>
        <pt x="378" y="222" on="1"/>
        <pt x="288" y="444" on="1"/>
        <pt x="286" y="444" on="1"/>
        <pt x="196" y="222" on="1"/>
        <pt x="196" y="218" on="1"/>
      </contour>
    </TTGlyph>
    <TTGlyph name="abreve" xMin="38" yMin="-10" xMax="480" yMax="692">
      <contour>
        <pt x="88" y="482" on="1"/>
        <pt x="175" y="520" on="0"/>
        <pt x="374" y="520" on="0"/>
        <pt x="480" y="404" on="0"/>
        <pt x="480" y="323" on="1"/>
        <pt x="480" y="0" on="1"/>
        <pt x="400" y="0" on="1"/>
        <pt x="389" y="64" on="1"/>
        <pt x="386" y="64" on="1"/>
        <pt x="314" y="-10" on="0"/>
        <pt x="201" y="-10" on="1"/>
        <pt x="133" y="-10" on="0"/>
        <pt x="38" y="72" on="0"/>
        <pt x="38" y="214" on="0"/>
        <pt x="155" y="302" on="0"/>
        <pt x="268" y="302" on="1"/>
        <pt x="389" y="302" on="1"/>
        <pt x="389" y="310" on="1"/>
        <pt x="389" y="376" on="0"/>
        <pt x="324" y="434" on="0"/>
        <pt x="164" y="434" on="0"/>
        <pt x="94" y="400" on="1"/>
        <pt x="88" y="400" on="1"/>
      </contour>
      <contour>
        <pt x="389" y="145" on="1"/>
        <pt x="389" y="229" on="1"/>
        <pt x="280" y="229" on="1"/>
        <pt x="129" y="229" on="0"/>
        <pt x="129" y="70" on="0"/>
        <pt x="235" y="70" on="1"/>
        <pt x="279" y="70" on="0"/>
        <pt x="361" y="113" on="0"/>
      </contour>
      <contour>
        <pt x="352" y="692" on="1"/>
        <pt x="416" y="692" on="1"/>
        <pt x="406" y="639" on="0"/>
        <pt x="327" y="576" on="0"/>
        <pt x="211" y="576" on="0"/>
        <pt x="132" y="639" on="0"/>
        <pt x="122" y="692" on="1"/>
        <pt x="186" y="692" on="1"/>
        <pt x="206" y="634" on="0"/>
        <pt x="332" y="634" on="0"/>
      </contour>
    </TTGlyph>
    <TTGlyph name="abreve.alt" xMin="48" yMin="-10" xMax="552" yMax="692">
      <contour>
        <pt x="193" y="520" on="0"/>
        <pt x="387" y="520" on="0"/>
        <pt x="458" y="446" on="1"/>
        <pt x="461" y="446" on="1"/>
        <pt x="472" y="510" on="1"/>
        <pt x="552" y="510" on="1"/>
        <pt x="552" y="0" on="1"/>
        <pt x="472" y="0" on="1"/>
        <pt x="461" y="64" on="1"/>
        <pt x="458" y="64" on="1"/>
        <pt x="387" y="-10" on="0"/>
        <pt x="193" y="-10" on="0"/>
        <pt x="48" y="134" on="0"/>
        <pt x="48" y="376" on="0"/>
      </contour>
      <contour>
        <pt x="303" y="75" on="1"/>
        <pt x="393" y="75" on="0"/>
        <pt x="461" y="150" on="1"/>
        <pt x="461" y="360" on="1"/>
        <pt x="393" y="435" on="0"/>
        <pt x="303" y="435" on="1"/>
        <pt x="229" y="435" on="0"/>
        <pt x="139" y="341" on="0"/>
        <pt x="139" y="169" on="0"/>
        <pt x="229" y="75" on="0"/>
      </contour>
      <contour>
        <pt x="391" y="692" on="1"/>
        <pt x="455" y="692" on="1"/>
        <pt x="445" y="639" on="0"/>
        <pt x="366" y="576" on="0"/>
        <pt x="250" y="576" on="0"/>
        <pt x="171" y="639" on="0"/>
        <pt x="161" y="692" on="1"/>
        <pt x="225" y="692" on="1"/>
        <pt x="245" y="634" on="0"/>
        <pt x="371" y="634" on="0"/>
      </contour>
    </TTGlyph>
    <TTGlyph name="abreve.smcp" xMin="10" yMin="0" xMax="564" yMax="717">
      <contour>
        <pt x="370" y="717" on="1"/>
        <pt x="434" y="717" on="1"/>
        <pt x="424" y="664" on="0"/>
        <pt x="345" y="601" on="0"/>
        <pt x="229" y="601" on="0"/>
        <pt x="150" y="664" on="0"/>
        <pt x="140" y="717" on="1"/>
        <pt x="204" y="717" on="1"/>
        <pt x="224" y="659" on="0"/>
        <pt x="350" y="659" on="0"/>
      </contour>
      <contour>
        <pt x="330" y="550" on="1"/>
        <pt x="564" y="0" on="1"/>
        <pt x="467" y="0" on="1"/>
        <pt x="411" y="139" on="1"/>
        <pt x="163" y="139" on="1"/>
        <pt x="107" y="0" on="1"/>
        <pt x="10" y="0" on="1"/>
        <pt x="244" y="550" on="1"/>
      </contour>
      <contour>
        <pt x="378" y="218" on="1"/>
        <pt x="378" y="222" on="1"/>
        <pt x="288" y="444" on="1"/>
        <pt x="286" y="444" on="1"/>
        <pt x="196" y="222" on="1"/>
        <pt x="196" y="218" on="1"/>
      </contour>
    </TTGlyph>
    <TTGlyph name="abreveacute" xMin="38" yMin="-10" xMax="480" yMax="826">
      <contour>
        <pt x="88" y="482" on="1"/>
        <pt x="175" y="520" on="0"/>
        <pt x="374" y="520" on="0"/>
        <pt x="480" y="404" on="0"/>
        <pt x="480" y="323" on="1"/>
        <pt x="480" y="0" on="1"/>
        <pt x="400" y="0" on="1"/>
        <pt x="389" y="64" on="1"/>
        <pt x="386" y="64" on="1"/>
        <pt x="314" y="-10" on="0"/>
        <pt x="201" y="-10" on="1"/>
        <pt x="133" y="-10" on="0"/>
        <pt x="38" y="72" on="0"/>
        <pt x="38" y="214" on="0"/>
        <pt x="155" y="302" on="0"/>
        <pt x="268" y="302" on="1"/>
        <pt x="389" y="302" on="1"/>
        <pt x="389" y="310" on="1"/>
        <pt x="389" y="376" on="0"/>
        <pt x="324" y="434" on="0"/>
        <pt x="164" y="434" on="0"/>
        <pt x="94" y="400" on="1"/>
        <pt x="88" y="400" on="1"/>
      </contour>
      <contour>
        <pt x="389" y="145" on="1"/>
        <pt x="389" y="229" on="1"/>
        <pt x="280" y="229" on="1"/>
        <pt x="129" y="229" on="0"/>
        <pt x="129" y="70" on="0"/>
        <pt x="235" y="70" on="1"/>
        <pt x="279" y="70" on="0"/>
        <pt x="361" y="113" on="0"/>
      </contour>
      <contour>
        <pt x="352" y="692" on="1"/>
        <pt x="416" y="692" on="1"/>
        <pt x="406" y="639" on="0"/>
        <pt x="327" y="576" on="0"/>
        <pt x="211" y="576" on="0"/>
        <pt x="132" y="639" on="0"/>
        <pt x="122" y="692" on="1"/>
        <pt x="186" y="692" on="1"/>
        <pt x="206" y="634" on="0"/>
        <pt x="332" y="634" on="0"/>
      </contour>
      <contour>
        <pt x="301" y="826" on="1"/>
        <pt x="400" y="826" on="1"/>
        <pt x="287" y="693" on="1"/>
        <pt x="225" y="693" on="1"/>
      </contour>
    </TTGlyph>
    <TTGlyph name="abreveacute.alt" xMin="48" yMin="-10" xMax="552" yMax="826">
      <contour>
        <pt x="193" y="520" on="0"/>
        <pt x="387" y="520" on="0"/>
        <pt x="458" y="446" on="1"/>
        <pt x="461" y="446" on="1"/>
        <pt x="472" y="510" on="1"/>
        <pt x="552" y="510" on="1"/>
        <pt x="552" y="0" on="1"/>
        <pt x="472" y="0" on="1"/>
        <pt x="461" y="64" on="1"/>
        <pt x="458" y="64" on="1"/>
        <pt x="387" y="-10" on="0"/>
        <pt x="193" y="-10" on="0"/>
        <pt x="48" y="134" on="0"/>
        <pt x="48" y="376" on="0"/>
      </contour>
      <contour>
        <pt x="303" y="75" on="1"/>
        <pt x="393" y="75" on="0"/>
        <pt x="461" y="150" on="1"/>
        <pt x="461" y="360" on="1"/>
        <pt x="393" y="435" on="0"/>
        <pt x="303" y="435" on="1"/>
        <pt x="229" y="435" on="0"/>
        <pt x="139" y="341" on="0"/>
        <pt x="139" y="169" on="0"/>
        <pt x="229" y="75" on="0"/>
      </contour>
      <contour>
        <pt x="391" y="692" on="1"/>
        <pt x="455" y="692" on="1"/>
        <pt x="445" y="639" on="0"/>
        <pt x="366" y="576" on="0"/>
        <pt x="250" y="576" on="0"/>
        <pt x="171" y="639" on="0"/>
        <pt x="161" y="692" on="1"/>
        <pt x="225" y="692" on="1"/>
        <pt x="245" y="634" on="0"/>
        <pt x="371" y="634" on="0"/>
      </contour>
      <contour>
        <pt x="340" y="826" on="1"/>
        <pt x="439" y="826" on="1"/>
        <pt x="326" y="693" on="1"/>
        <pt x="264" y="693" on="1"/>
      </contour>
    </TTGlyph>
</ttFont>
